<svg width="150" height="150" viewBox="0 0 150 150" fill="none" xmlns="http://www.w3.org/2000/svg">
<path d="M118.657 61.0756L146.107 61.8803C143.473 47.7836 136.965 35.134 127.429 25.1953H118.656V61.0756H118.657Z" fill="#2356FE" fill-opacity="0.5"/>
<path d="M43.5762 93.5667L3.3125 84.5547C5.00683 97.7154 10.3622 109.737 18.1478 119.698L36.1405 126.089L43.5762 93.5667Z" fill="#2356FE" fill-opacity="0.5"/>
<path d="M72.619 58.4552C72.4906 59.7445 73.6673 60.9152 75.2446 61.0722C76.8206 61.2275 78.2029 60.3098 78.3313 59.0205L80.3576 38.5562C80.4856 37.2675 79.3089 36.0952 77.7329 35.9392C76.1539 35.7832 74.7723 36.7005 74.6456 37.9908L72.619 58.4552Z" fill="#2356FE" fill-opacity="0.5"/>
<path d="M72.7126 58.4997L72.7032 37.1634C72.7699 36.4721 75.2412 35.6584 75.8666 35.2891L73.9422 58.8301C73.9152 59.1147 73.5716 60.1687 73.6316 60.4364C73.0079 59.9437 72.6382 59.2441 72.7126 58.4997Z" fill="#2356FE" fill-opacity="0.5"/>
<path d="M67.2298 61.6947C67.1548 62.9871 68.3762 64.1127 69.9592 64.2044C71.5415 64.2964 72.8865 63.3221 72.9618 62.0297L74.2838 41.1947C74.3585 39.9021 73.0178 39.0834 71.4352 38.9904C69.8528 38.8984 68.5092 39.8714 68.4328 41.1651L67.2298 61.6947Z" fill="#2356FE" fill-opacity="0.5"/>
<path d="M67.2359 61.5854L68.3876 40.5447C68.4553 39.8547 69.7643 39.854 70.3909 39.4844L68.0916 62.6934C68.0639 62.978 68.0946 63.255 68.1543 63.5227C67.5309 63.0297 67.1619 62.3297 67.2359 61.5854Z" fill="#2356FE" fill-opacity="0.5"/>
<path d="M61.441 62.1466C61.3633 63.4399 62.5863 64.5652 64.1683 64.6576C65.7513 64.7502 67.098 63.7766 67.173 62.4826L68.373 41.9552C68.4513 40.6599 67.2287 39.5359 65.6453 39.4436C64.064 39.3512 62.7193 40.3246 62.6427 41.6179L61.441 62.1466Z" fill="#2356FE" fill-opacity="0.5"/>
<path d="M129.397 56.2411C129.604 56.0468 129.85 55.9175 130.105 55.8401L130.206 54.1438C130.225 53.7941 130.524 53.5291 130.876 53.5478C131.223 53.5685 131.491 53.8681 131.47 54.2178L131.369 55.9098C131.593 56.0071 131.799 56.1495 131.974 56.3388C132.659 57.0785 132.615 58.2321 131.879 58.9158C131.138 59.6015 129.984 59.5585 129.3 58.8198C128.614 58.0801 128.658 56.9261 129.397 56.2411Z" fill="#2356FE" fill-opacity="0.5"/>
<path d="M135.496 55.7472L135.596 54.0479C135.616 53.6995 135.915 53.4339 136.264 53.4542C136.613 53.4746 136.88 53.7742 136.859 54.1222L136.76 55.8156C136.981 55.9119 137.188 56.0536 137.365 56.2436C138.05 56.9816 138.004 58.1376 137.269 58.8216C136.529 59.5062 135.374 59.4629 134.692 58.7232C134.003 57.9875 134.049 56.8312 134.787 56.1472C134.997 55.9532 135.239 55.8246 135.496 55.7472Z" fill="#2356FE" fill-opacity="0.5"/>
<path d="M140.974 55.6609L141.073 53.9629C141.093 53.6142 141.391 53.3485 141.741 53.3682C142.091 53.3889 142.357 53.6882 142.337 54.0375L142.238 55.7292C142.459 55.8265 142.666 55.9682 142.843 56.1572C143.528 56.8962 143.483 58.0522 142.744 58.7379C142.007 59.4229 140.851 59.3795 140.167 58.6395C139.481 57.8999 139.524 56.7472 140.264 56.0609C140.473 55.8669 140.716 55.7389 140.974 55.6609Z" fill="#2356FE" fill-opacity="0.5"/>
<path d="M137.147 56.4184C137.827 57.15 137.783 58.29 137.052 58.9677C136.322 59.6454 135.181 59.6017 134.505 58.874C133.828 58.141 133.869 57.002 134.601 56.3244C135.331 55.648 136.469 55.691 137.147 56.4184Z" fill="#2356FE" fill-opacity="0.5"/>
<path d="M142.576 56.372C143.253 57.1033 143.212 58.244 142.481 58.9227C141.752 59.5993 140.61 59.555 139.932 58.8267C139.258 58.0943 139.3 56.9547 140.03 56.278C140.759 55.6007 141.899 55.6443 142.576 56.372Z" fill="#2356FE" fill-opacity="0.5"/>
<path d="M131.764 56.5131C132.444 57.2441 132.401 58.3838 131.669 59.0604C130.941 59.7388 129.8 59.6958 129.122 58.9678C128.445 58.2354 128.487 57.0964 129.216 56.4191C129.947 55.7418 131.089 55.7841 131.764 56.5131Z" fill="#2356FE" fill-opacity="0.5"/>
<path d="M80.7929 29.4707C79.1916 30.0357 60.4189 40.1584 59.8986 42.8657C59.4556 45.1654 59.6229 59.459 59.7412 63.3907C59.7446 63.5154 59.7412 63.8837 59.7412 63.8837C59.7412 65.445 61.1729 66.7077 62.9419 66.7077C64.7079 66.7077 66.1406 65.445 66.1406 63.8837V47.464C66.3306 46.925 66.5072 46.5557 66.6746 46.4124C67.7662 45.4754 76.8962 41.195 81.2722 40.9034L86.7182 34.836L80.9889 29.4297C80.9049 29.4427 80.8332 29.4564 80.7929 29.4707Z" fill="#2356FE" fill-opacity="0.5"/>
<path d="M61.911 64.2019C61.911 64.2019 61.4864 64.4129 60.9314 64.4179C60.9304 64.4192 60.9287 64.4169 60.9267 64.4202C60.924 64.4179 60.923 64.4202 60.9214 64.4179C60.367 64.4209 59.924 64.2179 59.924 64.2179C59.8617 62.8869 59.7574 60.8955 60.105 60.1212C60.2584 59.7762 60.4904 59.6662 60.704 59.6762L60.7064 59.6735C60.7067 59.6719 60.7087 59.6745 60.7094 59.6745C60.711 59.6745 60.7144 59.6745 60.7157 59.6719V59.6755C60.9267 59.6612 61.171 59.7682 61.3567 60.1105C61.774 60.8769 61.8497 62.8702 61.911 64.2019Z" fill="#2356FE" fill-opacity="0.5"/>
<path d="M60.454 42.2799C60.3917 42.3776 60.4233 42.5113 60.5207 42.5776L61.6617 43.3563C61.7597 43.4229 61.8903 43.3983 61.9517 43.3019C62.013 43.2046 61.9817 43.0713 61.8823 43.0049L60.745 42.2259C60.645 42.1576 60.5163 42.1833 60.454 42.2799Z" fill="#2356FE" fill-opacity="0.5"/>
<path d="M60.0007 42.9972C59.9393 43.0962 59.9693 43.2295 60.0653 43.2975L61.2053 44.0755C61.3053 44.1422 61.4343 44.1185 61.496 44.0212C61.5563 43.9239 61.526 43.7909 61.427 43.7242L60.2883 42.9445C60.1887 42.8765 60.059 42.9022 60.0007 42.9972Z" fill="#2356FE" fill-opacity="0.5"/>
<path d="M43.3737 46.1372L38.4453 73.3359L98.1436 84.1532L103.072 56.9545L43.3737 46.1372Z" fill="#2356FE" fill-opacity="0.5"/>
<path d="M95.9555 81.6251L41.3281 71.7281L45.5128 48.6328L100.14 58.5301L95.9555 81.6251ZM43.7795 70.0292L94.2565 79.1752L97.6905 60.2288L47.2125 51.0818L43.7795 70.0292Z" fill="#2356FE" fill-opacity="0.5"/>
<path d="M57.0454 62.6412C56.6977 64.5699 54.851 65.8482 52.9224 65.4995C50.995 65.1495 49.7157 63.3042 50.0654 61.3769C50.4144 59.4475 52.26 58.1689 54.188 58.5185C56.116 58.8672 57.3954 60.7125 57.0454 62.6412Z" fill="#2356FE" fill-opacity="0.5"/>
<path d="M91.437 68.8606C91.0877 70.7879 89.2424 72.0662 87.3154 71.7176C85.386 71.3676 84.1071 69.5236 84.4557 67.5952C84.8061 65.6662 86.6504 64.3886 88.578 64.7369C90.506 65.0852 91.7857 66.9309 91.437 68.8606Z" fill="#2356FE" fill-opacity="0.5"/>
<path d="M78.892 66.5891C78.0764 71.0878 73.77 74.0724 69.272 73.2578C64.7737 72.4431 61.7871 68.1361 62.6031 63.6374C63.4177 59.1394 67.7247 56.1557 72.2231 56.9697C76.7201 57.7854 79.7057 62.0898 78.892 66.5891Z" fill="#2356FE" fill-opacity="0.5"/>
<path d="M80.9931 29.4598L81.2764 40.9331C82.1834 40.8741 82.8904 40.9808 83.2741 41.3275C86.2054 43.9821 85.8864 46.1538 83.7761 49.5475C82.5448 51.5288 80.8761 53.4835 78.8791 57.2131C74.4761 65.4471 77.4721 65.7615 79.0074 66.7375C81.7678 68.4945 86.3688 58.2595 90.1768 55.4441C95.3271 51.6381 102.161 46.9128 102.161 46.9128H118.649V29.5004C118.648 29.5004 84.2478 28.9651 80.9931 29.4598Z" fill="#2356FE" fill-opacity="0.5"/>
<path d="M80.9772 65.1432C80.9772 65.1432 80.1588 64.7762 79.2755 64.0999C79.2712 64.0975 79.2712 64.0959 79.2675 64.0939C79.2665 64.0902 79.2622 64.0902 79.2605 64.0869C78.3785 63.4096 77.8125 62.7142 77.8125 62.7142C78.6222 61.6549 79.8142 60.0559 80.8932 59.9105C81.3708 59.8455 81.8182 60.0509 82.1488 60.3182H82.1525C82.1562 60.3182 82.1562 60.3212 82.1578 60.3235C82.1605 60.3252 82.1642 60.3285 82.1675 60.3285L82.1665 60.3312C82.5105 60.5809 82.8252 60.9595 82.8868 61.4392C83.0258 62.5189 81.7885 64.0852 80.9772 65.1432Z" fill="#2356FE" fill-opacity="0.5"/>
<path d="M84.1261 53.7846C84.0651 53.8819 84.1755 54.0636 84.3781 54.1956L86.7038 55.7003C86.9048 55.8303 87.1188 55.8566 87.1798 55.7626C87.2445 55.666 87.1295 55.482 86.9271 55.3516L84.6068 53.8466C84.4048 53.7143 84.1898 53.6879 84.1261 53.7846Z" fill="#2356FE" fill-opacity="0.5"/>
<path d="M83.6505 54.5025C83.5869 54.6005 83.7005 54.7841 83.8989 54.9141L86.2229 56.4188C86.4255 56.5488 86.6405 56.5775 86.7022 56.4825C86.7642 56.3841 86.6512 56.2001 86.4495 56.0691L84.1265 54.5635C83.9249 54.4345 83.7095 54.4065 83.6505 54.5025Z" fill="#2356FE" fill-opacity="0.5"/>
<path d="M118.64 26.1875H109.609V53.7108H118.64V26.1875Z" fill="#2356FE" fill-opacity="0.5"/>
<path d="M81.534 106.861C80.853 107.986 79.3886 108.344 78.2636 107.663C77.139 106.98 76.7807 105.514 77.4633 104.39L82.1566 96.6552C82.8386 95.5305 84.303 95.1712 85.4277 95.8532C86.5523 96.5342 86.909 97.9995 86.228 99.1235L81.534 106.861Z" fill="#2356FE" fill-opacity="0.5"/>
<path d="M71.7882 111.582C70.5768 112.096 66.1148 112.805 65.6032 111.591L64.5488 110.468C64.0352 109.259 62.3798 105.339 63.4605 106.088C68.9572 109.901 78.2685 103.672 78.2685 103.672C79.4792 103.161 80.8765 103.727 81.3872 104.939C81.9005 106.15 81.3335 107.547 80.1218 108.059L71.7882 111.582Z" fill="#2356FE" fill-opacity="0.5"/>
<path d="M74.4426 109.466L82.2836 105.13C82.5516 104.983 82.7756 104.791 82.9556 104.571C83.2003 104.364 83.4026 104.113 83.5443 103.811L86.2999 96.8291C86.4889 96.4348 82.4059 103.179 82.4059 103.179L70.3359 110.604C71.8473 110.449 73.7436 109.852 74.4426 109.466Z" fill="#2356FE" fill-opacity="0.5"/>
<path d="M87.3933 105.942C86.8493 107.137 85.4379 107.668 84.2406 107.123C83.0433 106.579 82.5136 105.168 83.0576 103.969L86.8019 95.7318C87.3469 94.5355 88.7583 94.0058 89.9539 94.5498C91.1523 95.0918 91.6809 96.5055 91.1386 97.7035L87.3933 105.942Z" fill="#2356FE" fill-opacity="0.5"/>
<path d="M78.2755 111.787C77.1328 112.44 72.7875 113.672 72.1365 112.53L70.9552 111.539C70.3042 110.396 71.4485 110.098 72.5905 109.443L83.7745 103.166C84.9162 102.513 86.3708 102.91 87.0232 104.053C87.6775 105.196 87.2768 106.65 86.1358 107.302L78.2755 111.787Z" fill="#2356FE" fill-opacity="0.5"/>
<path d="M78.342 109.742L86.1837 105.408C86.4517 105.26 86.6747 105.068 86.8567 104.85C87.0987 104.642 87.301 104.387 87.4454 104.086L91.2094 96.1784C91.3984 95.7851 91.4514 95.3701 91.4037 94.9688L86.306 103.457L74.2344 110.882C75.7477 110.726 77.6424 110.128 78.342 109.742Z" fill="#2356FE" fill-opacity="0.5"/>
<path d="M91.4951 105.989C90.9501 107.183 89.5404 107.713 88.3424 107.17C87.1451 106.627 86.6154 105.215 87.1588 104.017L90.9041 95.7804C91.4481 94.5811 92.8594 94.0524 94.0568 94.5974C95.2541 95.1387 95.7828 96.5521 95.2398 97.7511L91.4951 105.989Z" fill="#2356FE" fill-opacity="0.5"/>
<path d="M82.3707 111.834C81.2274 112.486 76.8824 113.719 76.2294 112.576L75.049 111.583C74.3977 110.442 75.5427 110.141 76.6837 109.491L87.868 103.212C89.0087 102.56 90.4644 102.958 91.114 104.1C91.7684 105.241 91.3694 106.696 90.2287 107.348L82.3707 111.834Z" fill="#2356FE" fill-opacity="0.5"/>
<path d="M89.2645 112.512C88.0125 113.545 86.0031 113.175 84.7745 111.686C83.5495 110.199 83.8441 108.336 85.0961 107.303L95.5298 99.2984C97.0881 98.2641 99.1998 97.5501 100.259 98.9231C101.633 100.698 100.058 102.602 98.2901 104.263L89.2645 112.512Z" fill="#2356FE" fill-opacity="0.5"/>
<path d="M85.1139 107.338C83.7689 108.013 71.5299 110.348 70.0709 108.172C68.1549 105.325 68.8786 103.563 71.3649 101.146C72.8153 99.7343 74.6313 98.4386 77.0919 95.7123C82.5219 89.7006 80.2063 88.628 78.9766 87.6653C76.7389 85.9176 71.0059 93.2666 67.2069 94.842C62.0743 96.9676 55.3296 99.52 55.3296 99.52L43.5779 96.748L40.4062 111.42C40.4062 111.42 68.2162 118.791 69.6822 118.652C71.0019 118.525 85.4562 115.225 89.2416 112.584L85.4416 107.035C85.3182 107.184 85.2089 107.289 85.1139 107.338Z" fill="#2356FE" fill-opacity="0.5"/>
<path d="M43.3629 94.453L37.6562 119.398L45.8403 121.271L51.547 96.3252L43.3629 94.453Z" fill="#2356FE" fill-opacity="0.5"/>
<path d="M31.695 119.141C31.561 118.912 31.379 118.731 31.1727 118.592L31.5427 117.057C31.6194 116.74 31.4277 116.423 31.1094 116.344C30.7947 116.269 30.4754 116.463 30.3987 116.781L30.029 118.31C29.805 118.337 29.583 118.408 29.3747 118.528C28.565 118.999 28.2907 120.037 28.7614 120.846C29.2327 121.655 30.2707 121.933 31.0794 121.459C31.89 120.988 32.1647 119.952 31.695 119.141Z" fill="#2356FE" fill-opacity="0.5"/>
<path d="M26.3914 117.013L26.7637 115.476C26.8384 115.16 26.6454 114.843 26.3284 114.766C26.012 114.691 25.6944 114.883 25.6177 115.2L25.248 116.732C25.024 116.758 24.8007 116.827 24.5957 116.948C23.7844 117.419 23.5097 118.458 23.979 119.268C24.4504 120.077 25.49 120.351 26.2984 119.879C27.1084 119.41 27.383 118.371 26.9117 117.563C26.78 117.335 26.597 117.154 26.3914 117.013Z" fill="#2356FE" fill-opacity="0.5"/>
<path d="M21.5458 115.442L21.9182 113.907C21.9958 113.591 21.8022 113.274 21.4848 113.196C21.1678 113.121 20.8512 113.313 20.7755 113.63L20.4045 115.16C20.1795 115.185 19.9572 115.255 19.7495 115.376C18.9395 115.849 18.6652 116.889 19.1375 117.698C19.6072 118.507 20.6472 118.783 21.4542 118.31C22.2655 117.838 22.5395 116.8 22.0682 115.991C21.9362 115.761 21.7532 115.58 21.5458 115.442Z" fill="#2356FE" fill-opacity="0.5"/>
<path d="M24.7405 117.188C23.9382 117.654 23.6695 118.68 24.1332 119.479C24.5992 120.281 25.6262 120.55 26.4238 120.087C27.2255 119.621 27.4978 118.595 27.0318 117.793C26.5652 116.994 25.5408 116.724 24.7405 117.188Z" fill="#2356FE" fill-opacity="0.5"/>
<path d="M19.9208 115.655C19.1194 116.121 18.8478 117.147 19.3138 117.95C19.7774 118.75 20.8064 119.02 21.6048 118.555C22.4041 118.089 22.6761 117.061 22.2114 116.265C21.7454 115.464 20.7201 115.192 19.9208 115.655Z" fill="#2356FE" fill-opacity="0.5"/>
<path d="M29.4982 118.718C28.6972 119.184 28.4259 120.212 28.8922 121.009C29.3566 121.81 30.3832 122.082 31.1829 121.619C31.9832 121.151 32.2542 120.125 31.7889 119.327C31.3249 118.528 30.2986 118.254 29.4982 118.718Z" fill="#2356FE" fill-opacity="0.5"/>
<path d="M79.2375 90.689C79.2375 90.689 78.8575 90.111 78.2302 89.5156C78.2282 89.514 78.2265 89.514 78.2255 89.5113C78.2228 89.5113 78.2218 89.5076 78.2175 89.506C77.5928 88.9163 76.9898 88.5703 76.9898 88.5703C76.2802 89.3196 75.2065 90.428 75.2268 91.2703C75.2358 91.646 75.4502 91.9613 75.6955 92.1793V92.181C75.6955 92.1856 75.6975 92.1857 75.6992 92.1873C75.7008 92.189 75.7038 92.1927 75.7055 92.1947L75.7072 92.1926C75.9402 92.4256 76.2692 92.6176 76.6428 92.6066C77.4835 92.58 78.5295 91.441 79.2375 90.689Z" fill="#2356FE" fill-opacity="0.5"/>
<path d="M100.031 101.95C100.031 101.95 99.8317 101.549 99.4373 101.186C99.4353 101.186 99.4347 101.186 99.4347 101.181C99.431 101.181 99.431 101.18 99.4283 101.18C99.033 100.818 98.61 100.648 98.61 100.648C97.895 101.392 96.815 102.497 96.6743 103.179C96.6107 103.481 96.7237 103.698 96.8813 103.831H96.8803C96.8813 103.835 96.883 103.833 96.884 103.835C96.8857 103.836 96.8857 103.836 96.8857 103.84L96.8873 103.838C97.0333 103.983 97.2626 104.08 97.5683 103.997C98.2563 103.819 99.3157 102.695 100.031 101.95Z" fill="#2356FE" fill-opacity="0.5"/>
<path d="M70.5509 94.7218C70.6316 94.6512 70.8166 94.7265 70.9659 94.8912L72.6926 96.8018C72.8423 96.9675 72.8973 97.1595 72.8193 97.2322C72.7403 97.3028 72.5543 97.2275 72.4053 97.0602L70.6796 95.1522C70.5286 94.9878 70.4726 94.7925 70.5509 94.7218Z" fill="#2356FE" fill-opacity="0.5"/>
<path d="M71.1604 94.1836C71.2414 94.112 71.427 94.1857 71.5757 94.3493L73.3024 96.26C73.451 96.4256 73.5087 96.6187 73.4297 96.6903C73.35 96.763 73.1637 96.685 73.013 96.519L71.2894 94.6083C71.1384 94.4453 71.0817 94.251 71.1604 94.1836Z" fill="#2356FE" fill-opacity="0.5"/>
<path d="M86.942 110.629C87.0317 110.573 87.1787 110.641 87.27 110.779L88.3167 112.386C88.4063 112.525 88.4063 112.686 88.3177 112.741C88.227 112.801 88.0803 112.731 87.9897 112.592L86.943 110.987C86.8517 110.849 86.8533 110.687 86.942 110.629Z" fill="#2356FE" fill-opacity="0.5"/>
<path d="M87.614 110.176C87.7053 110.12 87.8523 110.185 87.943 110.324L88.989 111.931C89.0803 112.071 89.0803 112.231 88.99 112.287C88.8993 112.344 88.7526 112.277 88.662 112.137L87.6153 110.531C87.5243 110.39 87.5243 110.232 87.614 110.176Z" fill="#2356FE" fill-opacity="0.5"/>
</svg>
