<svg width="150" height="150" viewBox="0 0 150 150" fill="none" xmlns="http://www.w3.org/2000/svg">
<g opacity="0.5">
<path d="M134.18 30.7422H55.0781C52.4854 30.7422 50.3906 32.8369 50.3906 35.4297V70H15.8203C13.2275 70 11.1328 72.0947 11.1328 74.6875V114.531C11.1328 117.124 13.2275 119.219 15.8203 119.219H94.9219C97.5146 119.219 99.6094 117.124 99.6094 114.531V79.9609H134.18C136.772 79.9609 138.867 77.8662 138.867 75.2734V35.4297C138.867 32.8369 136.772 30.7422 134.18 30.7422ZM89.6484 109.258H60.3516V79.9609H89.6484V109.258ZM128.906 70H99.6094V40.7031H128.906V70Z" fill="#2356FE"/>
</g>
</svg>
