<svg width="150" height="150" viewBox="0 0 150 150" fill="none" xmlns="http://www.w3.org/2000/svg">
<path d="M29.175 34.1719C28.9854 32.2197 29.2063 30.2494 29.8234 28.3877C30.4406 26.526 31.4403 24.8139 32.7585 23.3615C34.0767 21.9092 35.6841 20.7486 37.4775 19.9544C39.2708 19.1602 41.2105 18.75 43.1719 18.75H65.625C66.8682 18.75 68.0605 19.2439 68.9396 20.1229C69.8186 21.002 70.3125 22.1943 70.3125 23.4375V27.0187C70.3125 33.5437 65.6531 38.1 62.1375 40.7906C61.7194 41.0972 61.3551 41.471 61.0594 41.8969L60.9469 42.1313L60.9375 42.1875V42.2156L60.9656 42.3094C60.9969 42.4031 61.1094 42.5688 61.3031 42.8062C62.0266 43.5644 62.885 44.1812 63.8344 44.625C66.4688 45.9375 70.4062 46.875 75 46.875C79.6125 46.875 83.55 45.9375 86.1562 44.625C87.109 44.1822 87.9706 43.5654 88.6969 42.8062C88.8362 42.657 88.9502 42.486 89.0344 42.3L89.0625 42.2062V42.1313L88.95 41.8969C88.6543 41.471 88.29 41.0972 87.8719 40.7906C84.3563 38.1 79.6969 33.5437 79.6969 27.0187V23.4375C79.6969 22.1959 80.1894 21.0051 81.0665 20.1262C81.9435 19.2474 83.1334 18.7525 84.375 18.75H106.828C108.789 18.75 110.729 19.1602 112.523 19.9544C114.316 20.7486 115.923 21.9092 117.241 23.3615C118.56 24.8139 119.559 26.526 120.177 28.3877C120.794 30.2494 121.015 32.2197 120.825 34.1719L118.547 60.9375H120.769C122.597 60.9375 124.706 59.5594 127.097 56.4375C129.066 53.8688 132.047 51.5625 135.938 51.5625C141.262 51.5625 144.816 55.7531 146.756 59.6437C148.847 63.8156 150 69.2531 150 75C150 80.7469 148.847 86.1844 146.756 90.3562C144.816 94.2469 141.262 98.4375 135.938 98.4375C132.047 98.4375 129.066 96.1312 127.097 93.5625C124.706 90.4406 122.597 89.0625 120.769 89.0625H118.547L120.825 115.828C121.015 117.78 120.794 119.751 120.177 121.612C119.559 123.474 118.56 125.186 117.241 126.638C115.923 128.091 114.316 129.251 112.523 130.046C110.729 130.84 108.789 131.25 106.828 131.25H84.375C83.1318 131.25 81.9395 130.756 81.0604 129.877C80.1814 128.998 79.6875 127.806 79.6875 126.562V122.981C79.6875 116.456 84.3469 111.9 87.8625 109.209C88.2806 108.903 88.6449 108.529 88.9406 108.103L89.0531 107.869L89.0625 107.812V107.784L89.0344 107.691C88.9493 107.508 88.8354 107.34 88.6969 107.194C87.9734 106.436 87.115 105.819 86.1656 105.375C83.5312 104.062 79.5938 103.125 75 103.125C70.4062 103.125 66.45 104.062 63.8438 105.375C62.891 105.818 62.0294 106.435 61.3031 107.194C61.1638 107.343 61.0498 107.514 60.9656 107.7L60.9375 107.794V107.812L60.9469 107.869L61.0594 108.103C61.2094 108.356 61.5281 108.741 62.1375 109.209C65.6531 111.9 70.3125 116.456 70.3125 122.981V126.562C70.3125 127.806 69.8186 128.998 68.9396 129.877C68.0605 130.756 66.8682 131.25 65.625 131.25H43.1719C41.2105 131.25 39.2708 130.84 37.4775 130.046C35.6841 129.251 34.0767 128.091 32.7585 126.638C31.4403 125.186 30.4406 123.474 29.8234 121.612C29.2063 119.751 28.9854 117.78 29.175 115.828L31.4625 89.0625H29.2313C27.4031 89.0625 25.2938 90.4406 22.9031 93.5625C20.9344 96.1312 17.9531 98.4375 14.0625 98.4375C8.7375 98.4375 5.18437 94.2469 3.24375 90.3562C1.15312 86.1844 0 80.7469 0 75C0 69.2531 1.15312 63.8156 3.24375 59.6437C5.18437 55.7531 8.7375 51.5625 14.0625 51.5625C17.9531 51.5625 20.9344 53.8688 22.9031 56.4375C25.2938 59.5594 27.4031 60.9375 29.2313 60.9375H31.4625L29.175 34.1719Z" fill="#2356FE" fill-opacity="0.5"/>
</svg>
