<svg width="150" height="150" viewBox="0 0 150 150" fill="none" xmlns="http://www.w3.org/2000/svg">
<g opacity="0.5">
<path d="M18.75 131.25V18.75H131.25V131.25H18.75ZM61.4813 83.3062L80.2312 98.3063L106.622 68.7469L99.6281 62.5031L79.1438 85.4438L60.3937 70.4437L34.0031 100.003L40.9969 106.247L61.4813 83.3062ZM119.531 51.5625C119.531 49.6977 118.79 47.9093 117.472 46.5907C116.153 45.272 114.365 44.5312 112.5 44.5312C110.635 44.5312 108.847 45.272 107.528 46.5907C106.21 47.9093 105.469 49.6977 105.469 51.5625C105.469 53.4273 106.21 55.2157 107.528 56.5343C108.847 57.853 110.635 58.5938 112.5 58.5938C114.365 58.5938 116.153 57.853 117.472 56.5343C118.79 55.2157 119.531 53.4273 119.531 51.5625Z" fill="#2356FE"/>
</g>
</svg>
