<svg width="150" height="150" viewBox="0 0 150 150" fill="none" xmlns="http://www.w3.org/2000/svg">
<path d="M9.05223 133.219H16.4612C21.1058 133.219 24.746 129.641 24.746 124.996V114.45C38.6853 115.329 58.8362 115.956 74.9692 115.956C91.1665 115.956 111.317 115.329 125.257 114.45V124.996C125.257 129.641 128.835 133.219 133.542 133.219H140.95C145.659 133.219 149.3 129.641 149.3 124.996V88.7737C149.3 78.2254 147.165 72.2603 141.328 64.7281L136.054 57.8844C133.732 46.5862 129.588 34.7201 127.392 30.0754C124.062 22.9799 117.534 18.7719 109.185 17.6442C104.98 17.1406 91.2308 16.7656 74.9692 16.7656C58.7746 16.7656 45.0228 17.2049 40.8174 17.6442C32.4683 18.6487 25.9406 22.9799 22.6138 30.0728C20.4174 34.7201 16.271 46.5862 13.9487 57.8844L8.67455 64.7281C2.83527 72.2629 0.703125 78.2254 0.703125 88.7737V124.996C0.703125 129.641 4.34598 133.219 9.05223 133.219ZM26.6317 52.6746C28.1371 45.7692 31.1504 36.7906 33.221 33.1478C34.9165 30.2013 36.7379 28.9424 40.129 28.5058C44.8969 27.8147 55.571 27.4371 74.9692 27.4371C94.4317 27.4371 105.103 27.6888 109.876 28.5058C113.203 29.0067 115.022 30.1987 116.782 33.1504C118.917 36.729 121.74 45.7665 123.371 52.6746C123.939 54.9969 122.996 55.8754 120.548 55.6879C110.128 55.0612 97.6969 54.3701 74.9692 54.3701C52.3085 54.3701 39.8772 55.0612 29.4549 55.6879C27.0067 55.8754 26.1281 54.9969 26.629 52.6746M29.2004 99.6969C23.2379 99.6969 18.7808 95.1754 18.7808 89.2746C18.7808 83.3094 23.2379 78.8549 29.2004 78.8549C35.1656 78.8549 39.6228 83.3094 39.6228 89.2746C39.6228 95.1754 35.1656 99.6942 29.2031 99.6942M120.8 99.6942C114.834 99.6942 110.38 95.1728 110.38 89.2719C110.38 83.3067 114.834 78.8522 120.8 78.8522C126.7 78.8522 131.219 83.3067 131.219 89.2719C131.219 95.1728 126.7 99.6942 120.8 99.6942ZM58.3353 96.804C53.9397 96.804 50.8621 93.6647 50.8621 89.2692C50.8621 84.8121 53.9397 81.7371 58.3353 81.7371H91.6701C96.063 81.7371 99.1406 84.8121 99.1406 89.2692C99.1406 93.6621 96.063 96.804 91.6674 96.804H58.3353Z" fill="#2356FE" fill-opacity="0.5"/>
</svg>
