<svg width="150" height="150" viewBox="0 0 150 150" fill="none" xmlns="http://www.w3.org/2000/svg">
<g opacity="0.5">
<path d="M106.421 132.598C110.691 132.598 113.768 129.459 113.768 125.254V25.1208C113.768 20.9154 110.691 17.3984 106.295 17.3984C103.22 17.3984 101.15 18.7806 97.8228 21.9199L70.1371 48.0975C69.6788 48.4775 69.0982 48.6783 68.5031 48.6627H49.8603C41.0076 48.6627 36.2344 53.4975 36.2344 62.9127V87.2717C36.2344 96.6895 41.0076 101.522 49.8576 101.522H68.5031C69.1326 101.522 69.6951 101.709 70.1371 102.087L97.8228 128.519C100.833 131.342 103.346 132.598 106.421 132.598Z" fill="#2356FE"/>
</g>
</svg>
