<svg width="150" height="150" viewBox="0 0 150 150" fill="none" xmlns="http://www.w3.org/2000/svg">
<g opacity="0.5" clip-path="url(#clip0_2208_13979)">
<path d="M53.9062 0C62.959 0 70.3125 7.35352 70.3125 16.4062V133.594C70.3125 142.646 62.959 150 53.9062 150C45.4395 150 38.4668 143.584 37.5879 135.322C36.0645 135.732 34.4531 135.938 32.8125 135.938C22.4707 135.938 14.0625 127.529 14.0625 117.188C14.0625 115.02 14.4434 112.91 15.1172 110.977C6.26953 107.637 0 99.082 0 89.0625C0 79.7168 5.47852 71.6309 13.418 67.8809C10.8691 64.6875 9.375 60.6445 9.375 56.25C9.375 47.2559 15.7031 39.7559 24.1406 37.9102C23.6719 36.2988 23.4375 34.5703 23.4375 32.8125C23.4375 24.0527 29.4727 16.6699 37.5879 14.6191C38.4668 6.41602 45.4395 0 53.9062 0ZM96.0938 0C104.561 0 111.504 6.41602 112.412 14.6191C120.557 16.6699 126.562 24.0234 126.562 32.8125C126.562 34.5703 126.328 36.2988 125.859 37.9102C134.297 39.7266 140.625 47.2559 140.625 56.25C140.625 60.6445 139.131 64.6875 136.582 67.8809C144.521 71.6309 150 79.7168 150 89.0625C150 99.082 143.73 107.637 134.883 110.977C135.557 112.91 135.938 115.02 135.938 117.188C135.938 127.529 127.529 135.938 117.188 135.938C115.547 135.938 113.936 135.732 112.412 135.322C111.533 143.584 104.561 150 96.0938 150C87.041 150 79.6875 142.646 79.6875 133.594V16.4062C79.6875 7.35352 87.041 0 96.0938 0Z" fill="#2356FE"/>
<path d="M89.1126 101.575C91.0832 101.575 92.5036 100.127 92.5036 98.1856V51.9704C92.5036 50.0295 91.0832 48.4062 89.0545 48.4062C87.6352 48.4062 86.6796 49.0442 85.1442 50.4931L72.3661 62.5751C72.1546 62.7504 71.8867 62.8431 71.612 62.8359H63.0076C58.9218 62.8359 56.7188 65.0674 56.7188 69.4128V80.6554C56.7188 85.0021 58.9218 87.2323 63.0064 87.2323H71.612C71.9025 87.2323 72.1622 87.3189 72.3661 87.4932L85.1442 99.6927C86.5337 100.996 87.6933 101.575 89.1126 101.575Z" fill="#F0F0F0"/>
</g>
<defs>
<clipPath id="clip0_2208_13979">
<rect width="150" height="150" fill="white"/>
</clipPath>
</defs>
</svg>
