<svg width="150" height="150" viewBox="0 0 150 150" fill="none" xmlns="http://www.w3.org/2000/svg">
<g opacity="0.5">
<path d="M59.3828 131.25C74.9158 131.25 87.5078 118.658 87.5078 103.125C87.5078 87.592 74.9158 75 59.3828 75C43.8498 75 31.2578 87.592 31.2578 103.125C31.2578 118.658 43.8498 131.25 59.3828 131.25Z" fill="#2356FE"/>
<path d="M75 18.75V103.125H87.5V43.75L121.875 53.125V31.25L75 18.75Z" fill="#2356FE"/>
<path d="M70.4539 53.3104C73.6101 54.3729 64.3601 59.5916 70.1414 63.0916C73.3914 65.0604 80.4851 56.1541 84.0476 54.1541C87.0789 52.4666 92.3914 52.1229 95.0789 57.9979C98.4851 65.4354 95.5164 84.7791 83.2351 92.5604C70.8289 100.373 55.2039 96.4041 49.7976 84.2479C43.5164 70.0916 59.5476 49.5916 70.4539 53.3104ZM74.2351 73.4666C76.5164 78.5916 88.9226 71.9041 86.0789 64.7166C84.2351 60.0604 72.0789 68.6229 74.2351 73.4666Z" fill="#7B7B7B"/>
</g>
</svg>
