<svg width="150" height="150" viewBox="0 0 150 150" fill="none" xmlns="http://www.w3.org/2000/svg">
<g opacity="0.5">
<path d="M22.4922 44.9922C22.4922 39.0248 24.8627 33.3019 29.0823 29.0823C33.3019 24.8627 39.0248 22.4922 44.9922 22.4922H104.992C110.96 22.4922 116.683 24.8627 120.902 29.0823C125.122 33.3019 127.492 39.0248 127.492 44.9922V67.5147C124.935 67.6347 122.392 68.2047 119.992 69.2322V44.9922C119.992 41.0139 118.412 37.1986 115.599 34.3856C112.786 31.5725 108.97 29.9922 104.992 29.9922H44.9922C41.0139 29.9922 37.1986 31.5725 34.3856 34.3856C31.5725 37.1986 29.9922 41.0139 29.9922 44.9922V116.242C29.9922 117.237 29.5971 118.191 28.8938 118.894C28.1906 119.597 27.2367 119.992 26.2422 119.992C25.2476 119.992 24.2938 119.597 23.5905 118.894C22.8873 118.191 22.4922 117.237 22.4922 116.242V44.9922ZM25.4922 127.755C28.2597 129.135 31.7172 130.267 34.6197 129.63C36.5022 129.21 38.9472 128.182 41.6922 127.027C48.3297 124.23 56.7147 120.705 63.1572 123.3C67.9347 125.22 67.5372 130.657 66.1947 133.275C65.9322 133.77 66.1347 134.475 66.6822 134.602C69.4251 135.16 72.2257 135.381 75.0222 135.262C75.0548 134.909 75.1124 134.558 75.1947 134.212L78.0072 122.977C78.7336 120.082 80.2318 117.438 82.3422 115.327L118.567 79.1022C119.866 77.7835 121.413 76.735 123.119 76.0171C124.825 75.2992 126.656 74.9261 128.507 74.9192C130.358 74.9124 132.192 75.272 133.903 75.9774C135.615 76.6827 137.17 77.7198 138.478 79.0288C139.787 80.3379 140.823 81.893 141.528 83.6046C142.232 85.3161 142.591 87.1502 142.584 89.0011C142.576 90.852 142.203 92.6831 141.484 94.3889C140.765 96.0947 139.716 97.6413 138.397 98.9397L102.172 135.157C100.061 137.268 97.4174 138.766 94.5222 139.492L85.3572 141.78C76.9497 144.24 64.4022 143.445 60.5097 140.407C57.1422 137.782 57.0072 133.755 58.1397 131.077C58.3947 130.477 57.9447 129.705 57.3072 129.802C53.5947 130.327 50.5572 131.677 47.5572 133.005C43.1697 134.955 38.8872 136.852 32.7372 136.087C27.4047 135.427 24.4347 132.645 22.7997 129.9C21.8847 128.37 23.8947 126.96 25.4922 127.755Z" fill="#2356FE"/>
</g>
</svg>
