<svg width="150" height="150" viewBox="0 0 150 150" fill="none" xmlns="http://www.w3.org/2000/svg">
<g opacity="0.5">
<path d="M74.707 6.53906C68.4961 6.53906 62.8418 9.69727 59.9121 14.6338L58.623 16.8076L56.3965 15.6123C54.3164 14.4844 51.9434 13.8867 49.5703 13.8867C41.2793 13.8867 34.541 20.792 34.541 29.4756C34.541 37.2393 39.9902 43.7139 47.2852 44.8857L49.5117 45.2373V60.8818C66.4746 57.6299 83.4961 57.4834 100.488 60.8818V40.4619L101.895 39.7002C106.494 37.2686 109.541 32.0537 109.541 26.1797C109.541 17.7422 103.477 11.2031 96.2402 11.2031C94.3359 11.2031 92.4316 11.6748 90.7031 12.5859L88.8867 13.5234L87.5391 12.0322C84.375 8.58399 79.6875 6.53906 74.707 6.53906ZM75 63.6065C67.5 63.6065 60.0293 64.3096 52.5293 65.6572C52.2656 67.415 52.1484 69.2315 52.1484 71.1065C52.1484 79.6025 54.8438 87.2783 59.0625 92.6982C63.2813 98.1182 68.877 101.282 75 101.282C81.1231 101.282 86.7188 98.1182 90.9375 92.6982C95.1562 87.2783 97.8516 79.6025 97.8516 71.1065C97.8516 69.2315 97.7051 67.3857 97.4707 65.6279C89.9707 64.251 82.5 63.5772 75 63.6065ZM61.1426 101.956L35.0098 110.657L26.8125 143.47H94.2188L89.9707 113.675L95.1855 112.913L99.5508 143.47H123.193L114.99 110.657L88.8574 101.956C84.8145 104.856 80.0684 106.556 75 106.556C69.9316 106.556 65.1855 104.856 61.1426 101.956ZM81.4453 117.396C82.2223 117.396 82.9675 117.704 83.5169 118.254C84.0663 118.803 84.375 119.548 84.375 120.325C84.375 121.102 84.0663 121.847 83.5169 122.397C82.9675 122.946 82.2223 123.255 81.4453 123.255C80.6683 123.255 79.9231 122.946 79.3737 122.397C78.8243 121.847 78.5156 121.102 78.5156 120.325C78.5156 119.548 78.8243 118.803 79.3737 118.254C79.9231 117.704 80.6683 117.396 81.4453 117.396ZM83.4961 130.872C84.2731 130.872 85.0183 131.181 85.5677 131.73C86.1171 132.28 86.4258 133.025 86.4258 133.802C86.4258 134.579 86.1171 135.324 85.5677 135.873C85.0183 136.423 84.2731 136.731 83.4961 136.731C82.7191 136.731 81.9739 136.423 81.4245 135.873C80.8751 135.324 80.5664 134.579 80.5664 133.802C80.5664 133.025 80.8751 132.28 81.4245 131.73C81.9739 131.181 82.7191 130.872 83.4961 130.872Z" fill="#2356FE"/>
</g>
</svg>
