<svg width="151" height="150" viewBox="0 0 151 150" fill="none" xmlns="http://www.w3.org/2000/svg">
<path d="M75.8513 6.57842C70.9294 6.57842 66.3327 8.81963 62.4146 12.4896C58.497 16.1605 55.1431 21.2729 52.3473 27.4653C51.7613 28.7626 51.2018 30.1108 50.6668 31.5016C49.2242 31.2726 47.7753 31.0845 46.3221 30.9373C44.6316 30.7688 42.9822 30.6643 41.3797 30.6268C36.5691 30.5125 32.1726 31.0003 28.3191 32.1684C23.1816 33.7261 18.9424 36.5872 16.4814 40.849C14.0205 45.1117 13.6631 50.2135 14.8827 55.4418C16.1029 60.6698 18.853 66.1305 22.8184 71.6482C23.6504 72.8055 24.5393 73.9662 25.4773 75.1267C24.5596 76.2596 23.6741 77.4183 22.8219 78.6013C18.8562 84.1188 16.1061 89.5794 14.8862 94.8077C13.6663 100.036 14.024 105.138 16.485 109.4C18.9459 113.662 23.1852 116.523 28.3227 118.08C33.4604 119.638 39.5647 119.987 46.3256 119.311C47.743 119.17 49.1908 118.98 50.6639 118.748C51.1867 120.112 51.7481 121.46 52.3473 122.792C55.1431 128.985 58.4967 134.097 62.4146 137.767C66.3324 141.438 70.9297 143.679 75.8513 143.679C80.7728 143.679 85.3698 141.438 89.2877 137.767C93.2053 134.096 96.5592 128.985 99.355 122.792C99.9542 121.46 100.516 120.112 101.038 118.749C102.51 118.98 103.956 119.17 105.373 119.311C112.134 119.986 118.238 119.638 123.375 118.08C128.514 116.523 132.753 113.662 135.214 109.4C137.675 105.137 138.032 100.036 136.813 94.8077C135.592 89.5797 132.842 84.119 128.877 78.6013C128.024 77.4184 127.139 76.2598 126.221 75.1267C127.14 73.9927 128.027 72.8329 128.88 71.6485C132.845 66.1308 135.596 60.6701 136.815 55.4421C138.035 50.2138 137.678 45.112 135.217 40.8493C132.756 36.5875 128.517 33.7264 123.379 32.1687C119.526 31.0006 115.129 30.5128 110.319 30.6268C108.715 30.6643 107.066 30.7688 105.375 30.9373C103.958 31.0791 102.508 31.2692 101.035 31.5013C100.512 30.1404 99.9518 28.7946 99.3538 27.4653C96.558 21.272 93.2044 16.1597 89.2865 12.4894C85.3687 8.81904 80.7714 6.57812 75.8501 6.57812L75.8513 6.57842ZM75.8513 12.0531C79.134 12.0531 82.3528 13.4954 85.5444 16.4857C88.7357 19.4755 91.7838 24.0013 94.3648 29.7183C94.7846 30.651 95.1838 31.593 95.5619 32.5434C89.2874 33.9385 82.642 36.0789 75.8495 38.9389C69.0585 36.0795 62.414 33.9396 56.1406 32.5445C56.5279 31.5748 56.9258 30.6297 57.3377 29.718C59.9187 24.0007 62.9668 19.4749 66.1584 16.4846C69.35 13.4948 72.5686 12.0525 75.8519 12.0525L75.8513 12.0531ZM39.6433 36.0933C40.1718 36.088 40.7087 36.0915 41.254 36.1038C42.7071 36.136 44.218 36.2298 45.7783 36.3859C46.7762 36.4855 47.796 36.613 48.8322 36.7633C46.9027 42.8942 45.4338 49.7189 44.5133 57.0309C38.6398 61.484 33.4631 66.1697 29.1178 70.9067C28.4819 70.1024 27.8638 69.284 27.2642 68.4522C23.6035 63.3587 21.2085 58.4562 20.2145 54.197C19.2204 49.9378 19.5816 46.4295 21.2228 43.5865C22.8641 40.7436 25.7228 38.6772 29.9076 37.4084C32.6542 36.5755 35.9428 36.1267 39.643 36.093L39.6433 36.0933ZM112.056 36.0933C115.756 36.127 119.045 36.5758 121.791 37.4087C125.976 38.6772 128.834 40.7436 130.476 43.5865C132.117 46.4295 132.478 49.9381 131.484 54.197C130.491 58.4559 128.095 63.3587 124.435 68.4522C123.835 69.2841 123.217 70.1027 122.582 70.9073C118.237 66.1709 113.062 61.4863 107.19 57.0338C106.27 49.7207 104.799 42.8951 102.87 36.7633C103.905 36.613 104.923 36.485 105.92 36.3859C107.424 36.2335 108.934 36.1393 110.445 36.1035C110.982 36.0913 111.519 36.0877 112.056 36.0927V36.0933ZM97.4308 37.7456C98.8868 42.2685 100.092 47.2589 100.992 52.5991C98.0855 50.6357 95.1104 48.7757 92.0724 47.0225C89.0367 45.2688 85.9401 43.623 82.7882 42.088C87.8624 40.1969 92.7863 38.7461 97.4308 37.7462V37.7456ZM54.2715 37.7465C58.915 38.7467 63.8384 40.1975 68.9111 42.0883C65.7594 43.6234 62.6627 45.2691 59.627 47.0225C56.5903 48.7749 53.6164 50.6339 50.7107 52.5959C51.6102 47.2571 52.8154 42.2682 54.2715 37.7465ZM75.8495 44.9125C80.3047 46.8777 84.827 49.1617 89.3349 51.7645C93.8445 54.3684 98.0858 57.1434 102.016 60.0203C102.542 64.8622 102.825 69.9221 102.825 75.1287C102.825 80.3324 102.543 85.3902 102.017 90.2301C98.087 93.1064 93.8463 95.8809 89.3381 98.4842C84.8293 101.087 80.3059 103.372 75.8498 105.337C71.3932 103.372 66.8697 101.087 62.3609 98.4842C57.8536 95.8817 53.6146 93.1082 49.6859 90.233C49.1601 85.3923 48.8773 80.3336 48.8773 75.1284C48.8773 69.9209 49.1601 64.8605 49.6865 60.018C53.6161 57.1419 57.856 54.3672 62.3642 51.7645C66.8724 49.162 71.3946 46.8777 75.8495 44.9131V44.9125ZM76.2198 53.1496L60.5454 62.8226L76.2198 72.4964L91.8942 62.8226L76.2198 53.1493V53.1496ZM43.7706 64.6147C43.5242 68.1136 43.4014 71.6202 43.4023 75.1278C43.4023 78.7015 43.5283 82.2095 43.7709 85.6349C39.5961 82.1866 35.8774 78.6476 32.6888 75.1252C35.8774 71.6031 39.5958 68.0635 43.7706 64.6147ZM107.932 64.6176C112.105 68.0658 115.823 71.604 119.01 75.1255C115.823 78.647 112.105 82.1852 107.932 85.6325C108.178 82.1365 108.301 78.6328 108.3 75.1281C108.3 71.5527 108.174 68.0441 107.932 64.6176H107.932ZM57.0143 67.0768V86.1777L73.4762 96.337V77.2369L57.0143 67.0768ZM95.4102 67.0867L78.952 77.2439V96.335L95.4105 86.1777L95.4102 67.0867ZM29.1172 79.3445C33.4631 84.0818 38.6393 88.7664 44.5121 93.2195C45.432 100.531 46.9016 107.355 48.8305 113.486C47.7963 113.635 46.7779 113.763 45.7818 113.863C39.5404 114.486 34.0962 114.109 29.9111 112.84C25.7258 111.572 22.8682 109.504 21.2267 106.662C19.5854 103.818 19.2242 100.31 20.218 96.0511C21.2117 91.7922 23.607 86.8894 27.2677 81.7958C27.866 80.9651 28.4825 80.1478 29.1172 79.3445ZM122.581 79.3454C123.228 80.1657 123.847 80.9831 124.431 81.7958C128.091 86.8891 130.486 91.7919 131.48 96.0508C132.474 100.31 132.114 103.818 130.472 106.661C128.831 109.504 125.972 111.571 121.787 112.84C117.602 114.108 112.159 114.486 105.917 113.862C104.9 113.759 103.884 113.634 102.872 113.486C104.801 107.354 106.271 100.528 107.19 93.2154C113.062 88.7635 118.237 84.0801 122.582 79.3448L122.581 79.3454ZM100.993 97.651C100.094 102.991 98.8886 107.981 97.4325 112.504C92.7878 111.504 87.8633 110.052 82.7888 108.161C85.9414 106.625 89.0391 104.979 92.0759 103.225C95.1132 101.473 98.0877 99.6134 100.994 97.651H100.993ZM50.7096 97.6539C53.6141 99.6154 56.5871 101.474 59.6228 103.225C62.6597 104.979 65.7573 106.625 68.91 108.161C63.8369 110.052 58.9139 111.503 54.2694 112.503C52.8134 107.981 51.609 102.992 50.7096 97.6539ZM76.0133 97.9029L76.2125 98.026L76.4108 97.9029H76.0136H76.0133ZM75.8492 111.311C82.6432 114.171 89.2889 116.311 95.5643 117.706C95.1854 118.659 94.7855 119.603 94.3648 120.539C91.7838 126.255 88.7357 130.781 85.5441 133.771C82.3528 136.761 79.134 138.204 75.8513 138.204C72.5685 138.204 69.3494 136.761 66.1581 133.771C62.9668 130.781 59.9187 126.255 57.3377 120.538C56.9171 119.603 56.5171 118.658 56.138 117.705C62.4122 116.31 69.0573 114.17 75.8498 111.311H75.8492Z" fill="#2356FE" fill-opacity="0.5"/>
</svg>
