<svg width="150" height="150" viewBox="0 0 150 150" fill="none" xmlns="http://www.w3.org/2000/svg">
<g opacity="0.5">
<path d="M79.4496 6.35215C80.359 10.9453 82.4827 15.1125 85.476 18.4928C79.9213 21.4377 76.1186 27.281 76.1186 33.9803C76.1186 43.6239 83.9944 51.5007 93.6381 51.5007C103.282 51.5007 111.159 43.6236 111.159 33.9803C111.159 31.4779 110.619 29.0048 109.575 26.7305C119.846 24.7488 127.944 16.6134 129.973 6.35156H101.653C102.691 11.9748 107.512 16.2437 113.438 16.2437C116.239 16.2437 118.794 15.2892 120.819 13.6898C117.127 18.5637 111.305 21.7192 104.712 21.7192C95.2081 21.7192 87.3085 15.1626 85.0784 6.35186H79.4493L79.4496 6.35215ZM53.2271 7.95996C45.815 7.95996 39.7485 14.0273 39.7485 21.4389C39.7485 28.8504 45.8159 34.9175 53.2271 34.9175C60.6393 34.9175 66.7066 28.8501 66.7066 21.4389C66.7066 14.0268 60.6393 7.95996 53.2271 7.95996ZM53.2271 13.4341C57.6803 13.4341 61.2325 16.9857 61.2325 21.4389C61.2325 25.892 57.6809 29.4439 53.2271 29.4439C48.774 29.4439 45.2227 25.8917 45.2227 21.4389C45.2227 16.986 48.7734 13.4341 53.2271 13.4341ZM89.9514 22.5053C91.3632 23.5008 92.8718 24.3514 94.4543 25.0441C92.8626 26.3455 91.846 28.3233 91.846 30.5391C91.846 34.4581 95.0218 37.6348 98.9408 37.6348C102.032 37.6348 104.66 35.6572 105.632 32.8989C105.664 33.2552 105.683 33.6152 105.683 33.98C105.688 35.5633 105.38 37.132 104.777 38.5959C104.173 40.0597 103.286 41.3898 102.167 42.5093C101.047 43.6289 99.7173 44.5159 98.2534 45.1193C96.7896 45.7227 95.2208 46.0306 93.6375 46.0251C92.0542 46.0305 90.4855 45.7227 89.0217 45.1193C87.558 44.5159 86.228 43.6289 85.1084 42.5093C83.9889 41.3898 83.1019 40.0598 82.4985 38.596C81.8951 37.1322 81.5873 35.5635 81.5927 33.9803C81.5927 28.5838 85.0869 24.0516 89.9511 22.5053H89.9514ZM64.507 41.7044C58.2981 41.7044 53.2061 46.7962 53.2061 53.0054C53.2061 59.2146 58.2979 64.3063 64.507 64.3063C70.7162 64.3063 75.8083 59.214 75.8083 53.0054C75.8083 46.7962 70.7159 41.7044 64.507 41.7044ZM64.507 47.1809C67.7561 47.1809 70.3313 49.7561 70.3313 53.0051C70.3313 56.2541 67.7561 58.8293 64.507 58.8293C61.258 58.8293 58.6828 56.2541 58.6828 53.0051C58.6828 49.7561 61.258 47.1809 64.507 47.1809ZM65.8459 69.3067C62.9801 69.3067 60.658 71.6288 60.658 74.4938C60.658 77.2301 62.7773 79.4654 65.4627 79.6623V96.0305C57.0897 106.696 41.3139 126.857 41.3139 126.857L41.1961 127.007L41.1006 127.172C40.2064 128.718 39.3281 130.888 39.3281 133.508C39.3281 139.897 44.6057 145.145 50.9648 145.145H99.0205C105.352 145.145 110.658 139.948 110.658 133.508C110.658 130.536 109.357 128.307 108.693 127.166L108.595 126.997L84.5218 96.5842V79.6227C87.0354 79.2624 88.969 77.107 88.969 74.494C88.969 71.6294 86.6464 69.3073 83.7814 69.3073C80.9165 69.3073 78.593 71.6294 78.593 74.4943C78.593 75.2481 78.7576 75.9621 79.0465 76.6078V98.4897L90.4652 112.915H59.1856C63.148 107.856 67.3752 102.459 70.3535 98.6663L70.9383 97.9222V75.4723C70.9986 75.1553 71.0338 74.8289 71.0338 74.4938C71.0338 71.6291 68.7105 69.307 65.8453 69.307L65.8459 69.3067Z" fill="#2356FE"/>
</g>
</svg>
