<svg width="150" height="150" viewBox="0 0 150 150" fill="none" xmlns="http://www.w3.org/2000/svg">
<path d="M87.5078 24.9844C87.5078 28.2996 86.1908 31.479 83.8466 33.8232C81.5024 36.1674 78.323 37.4844 75.0078 37.4844C71.6926 37.4844 68.5132 36.1674 66.169 33.8232C63.8248 31.479 62.5078 28.2996 62.5078 24.9844C62.5078 21.6692 63.8248 18.4897 66.169 16.1455C68.5132 13.8013 71.6926 12.4844 75.0078 12.4844C78.323 12.4844 81.5024 13.8013 83.8466 16.1455C86.1908 18.4897 87.5078 21.6692 87.5078 24.9844ZM56.2578 58.7969C55.5797 60.4 54.9766 62.5156 54.4953 65.0312C53.2266 71.6438 53.1328 78.9625 53.1328 81.2344C53.1328 82.892 52.4743 84.4817 51.3022 85.6538C50.1301 86.8259 48.5404 87.4844 46.8828 87.4844C45.2252 87.4844 43.6355 86.8259 42.4634 85.6538C41.2913 84.4817 40.6328 82.892 40.6328 81.2344C40.6328 78.8187 40.7141 70.5125 42.2203 62.6719C42.9641 58.8094 44.1453 54.525 46.1734 51.0563C48.2078 47.5719 51.8672 43.7344 57.6453 43.7344H92.3703C98.1484 43.7344 101.808 47.5719 103.842 51.0563C105.87 54.525 107.052 58.8062 107.795 62.6719C109.302 70.5125 109.383 78.8187 109.383 81.2344C109.383 82.892 108.724 84.4817 107.552 85.6538C106.38 86.8259 104.79 87.4844 103.133 87.4844C101.475 87.4844 99.8855 86.8259 98.7134 85.6538C97.5413 84.4817 96.8828 82.892 96.8828 81.2344C96.8828 78.9625 96.7891 71.6438 95.5203 65.0312C95.0359 62.5156 94.4359 60.4 93.7578 58.8V131.234C93.7564 132.85 93.1297 134.402 92.0091 135.565C90.8885 136.728 89.3611 137.412 87.7471 137.474C86.133 137.536 84.5577 136.971 83.3515 135.896C82.1452 134.822 81.4016 133.323 81.2766 131.713L78.1516 91.0875C78.1392 90.9284 78.133 90.7689 78.1328 90.6094H71.8828C71.8828 90.7677 71.8766 90.9271 71.8641 91.0875L68.7391 131.713C68.614 133.323 67.8705 134.822 66.6642 135.896C65.4579 136.971 63.8826 137.536 62.2686 137.474C60.6545 137.412 59.1271 136.728 58.0065 135.565C56.886 134.402 56.2593 132.85 56.2578 131.234V58.7969Z" fill="#2356FE" fill-opacity="0.5"/>
<path d="M80.05 137.484C78.6104 137.484 77.4094 137.003 76.4469 136.041C75.4844 135.078 75.0021 133.876 75 132.434V101.909C75 100.47 75.4823 99.2688 76.4469 98.3063C77.4115 97.3438 78.6115 96.8615 80.0469 96.8594H93.75V92.5313C93.75 91.0938 94.2323 89.8927 95.1969 88.9281C96.1615 87.9635 97.3625 87.4823 98.8 87.4844H107.453C108.891 87.4844 110.092 87.9656 111.056 88.9281C112.021 89.8906 112.502 91.0917 112.5 92.5313V96.8594H126.203C127.641 96.8594 128.841 97.3417 129.803 98.3063C130.766 99.2708 131.248 100.472 131.25 101.909V132.438C131.25 133.875 130.768 135.076 129.803 136.041C128.839 137.005 127.639 137.486 126.203 137.484H80.05ZM96.875 96.8594H109.375V92.5313C109.375 92.0521 109.175 91.6115 108.775 91.2094C108.375 90.8073 107.934 90.6073 107.453 90.6094H98.7969C98.3177 90.6094 97.8771 90.8094 97.475 91.2094C97.0729 91.6094 96.8729 92.05 96.875 92.5313V96.8594Z" fill="#2356FE" fill-opacity="0.5"/>
</svg>
