<svg width="150" height="150" viewBox="0 0 150 150" fill="none" xmlns="http://www.w3.org/2000/svg">
<g opacity="0.5">
<path d="M15.6172 75.0156C15.6172 47.0281 15.6172 33.0281 24.3109 24.3344C33.0047 15.6406 46.9984 15.6406 74.9922 15.6406C102.98 15.6406 116.98 15.6406 125.673 24.3344C134.367 33.0281 134.367 47.0219 134.367 75.0156C134.367 103.003 134.367 117.003 125.673 125.697C116.98 134.391 102.986 134.391 74.9922 134.391C47.0047 134.391 33.0047 134.391 24.3109 125.697C15.6172 117.003 15.6172 103.009 15.6172 75.0156Z" stroke="#2356FE" stroke-width="1.5" stroke-linecap="round" stroke-linejoin="round"/>
<path d="M34.3672 78.125L37.3359 76.15C40.2922 74.175 41.7734 73.1875 43.1984 73.625C44.6172 74.0687 45.2797 75.7188 46.6047 79.025L56.2422 103.125L69.2922 63.9687C72.0422 55.7187 73.4172 51.5937 76.6922 49.2375C79.9672 46.8812 84.3172 46.875 93.0109 46.875H115.617M106.242 75L96.8672 84.375M96.8672 84.375L87.4922 93.75M96.8672 84.375L106.242 93.75M96.8672 84.375L87.4922 75" stroke="#2356FE" stroke-width="1.5" stroke-linecap="round" stroke-linejoin="round"/>
</g>
</svg>
