<svg width="150" height="150" viewBox="0 0 150 150" fill="none" xmlns="http://www.w3.org/2000/svg">
<g opacity="0.5">
<path d="M93.7266 93.5484V102.336C93.7266 118.911 93.7266 127.192 88.2328 132.342C82.7453 137.492 73.9016 137.492 56.2266 137.492C38.5516 137.492 29.7078 137.492 24.2203 132.342C18.7266 127.198 18.7266 118.905 18.7266 102.342V72.2047C18.7266 55.6297 18.7266 47.3422 24.2203 42.1922C27.8578 38.7859 32.6453 37.8422 37.4766 37.5859M56.2266 118.742H56.2828" stroke="#2356FE" stroke-width="1.5" stroke-linecap="round" stroke-linejoin="round"/>
<path d="M93.7271 21.8594C80.5584 14.4719 72.6334 13.0469 62.4771 12.4844C58.4334 13.2156 57.1584 14.6781 56.2271 18.7344V56.2344C56.1959 61.9469 57.4646 64.0844 62.4771 65.6094C76.0834 67.7844 82.6021 69.7531 92.9584 74.6219C93.4459 74.8531 94.0209 74.8594 94.5146 74.6469C104.508 70.3594 110.965 67.9594 118.377 66.5656C122.733 65.7531 128.146 65.6906 130.302 61.8281C131.065 60.4719 131.321 58.7156 131.227 56.2344V18.7344C129.952 14.7094 128.583 13.3531 124.977 12.4844C114.002 13.0906 107.365 14.6406 93.7271 21.8594ZM93.7271 21.8594V71.8594" stroke="#2356FE" stroke-width="1.5" stroke-linecap="round" stroke-linejoin="round"/>
</g>
</svg>
