<svg width="150" height="150" viewBox="0 0 150 150" fill="none" xmlns="http://www.w3.org/2000/svg">
<g opacity="0.5">
<path d="M59.3828 34.375C66.2578 34.375 71.8828 28.75 71.8828 21.875C71.8828 15 66.2578 9.375 59.3828 9.375C52.5078 9.375 46.8828 15 46.8828 21.875C46.8828 28.75 52.5078 34.375 59.3828 34.375ZM35.9453 55.625L18.7578 143.75H31.8828L42.8203 93.75L56.2578 106.25V143.75H68.7578V96.5625L55.9453 83.75L59.6953 65C67.8203 75 80.0078 81.25 93.7578 81.25V68.75C82.1953 68.75 72.1953 62.5 66.5703 53.4375L60.6328 43.4375C58.4453 39.6875 54.3828 37.5 50.0078 37.5C48.4453 37.5 46.8828 37.8125 45.3203 38.4375L12.5078 51.875V81.25H25.0078V60.3125L35.9453 55.625ZM81.2578 12.5V56.25H104.695V143.75H114.07V56.25H137.508V12.5H81.2578ZM112.57 50V39.0625H90.6328V29.6875H112.57V18.75L128.133 34.375L112.57 50Z" fill="#2356FE"/>
</g>
</svg>
