<svg width="150" height="150" viewBox="0 0 150 150" fill="none" xmlns="http://www.w3.org/2000/svg">
<g opacity="0.5">
<path opacity="0.3" d="M96 56.25H22.75L19 75H99.75L96 56.25Z" fill="#2356FE"/>
<path d="M12.4922 25.0156H106.242V37.5156H12.4922V25.0156ZM93.7422 106.266H106.242V87.5156H112.492V75.0156L106.242 43.7656H12.4922L6.24219 75.0156V87.5156H12.4922V125.016H68.7422V87.5156H93.7422V106.266ZM56.2422 112.516H24.9922V87.5156H56.2422V112.516ZM18.9922 75.0156L22.7422 56.2656H95.9922L99.7422 75.0156H18.9922Z" fill="#2356FE"/>
<path d="M125 112.5V93.75H112.5V112.5H93.75V125H112.5V143.75H125V125H143.75V112.5H125Z" fill="#2356FE"/>
</g>
</svg>
