<svg width="150" height="150" viewBox="0 0 150 150" fill="none" xmlns="http://www.w3.org/2000/svg">
<g opacity="0.5">
<mask id="mask0_2199_13636" style="mask-type:luminance" maskUnits="userSpaceOnUse" x="10" y="10" width="130" height="130">
<path d="M75.0079 137.484C83.217 137.495 91.3474 135.883 98.9316 132.742C106.516 129.6 113.405 124.991 119.202 119.178C125.014 113.381 129.623 106.492 132.765 98.9082C135.907 91.3239 137.518 83.1936 137.508 74.9844C137.518 66.7753 135.906 58.645 132.765 51.0608C129.623 43.4765 125.014 36.5879 119.202 30.7907C113.405 24.9783 106.516 20.3688 98.9316 17.2272C91.3474 14.0856 83.217 12.4738 75.0079 12.4844C66.7987 12.474 58.6684 14.0858 51.0842 17.2274C43.5 20.369 36.6113 24.9784 30.8141 30.7907C25.0018 36.5879 20.3925 43.4765 17.2509 51.0608C14.1093 58.645 12.4974 66.7753 12.5079 74.9844C12.4972 83.1936 14.109 91.3239 17.2506 98.9082C20.3922 106.492 25.0017 113.381 30.8141 119.178C36.6113 124.99 43.5 129.6 51.0842 132.741C58.6684 135.883 66.7987 137.495 75.0079 137.484Z" fill="white" stroke="white" stroke-width="4" stroke-linejoin="round"/>
<path fill-rule="evenodd" clip-rule="evenodd" d="M75.0156 115.594C77.0876 115.594 79.0748 114.771 80.5399 113.306C82.005 111.84 82.8281 109.853 82.8281 107.781C82.8281 105.709 82.005 103.722 80.5399 102.257C79.0748 100.792 77.0876 99.9688 75.0156 99.9688C72.9436 99.9688 70.9565 100.792 69.4914 102.257C68.0262 103.722 67.2031 105.709 67.2031 107.781C67.2031 109.853 68.0262 111.84 69.4914 113.306C70.9565 114.771 72.9436 115.594 75.0156 115.594Z" fill="black"/>
<path d="M75 37.5V87.5" stroke="black" stroke-width="4" stroke-linecap="round" stroke-linejoin="round"/>
</mask>
<g mask="url(#mask0_2199_13636)">
<path d="M0 0H150V150H0V0Z" fill="#2356FE"/>
</g>
</g>
</svg>
