<svg width="150" height="150" viewBox="0 0 150 150" fill="none" xmlns="http://www.w3.org/2000/svg">
<g opacity="0.5">
<path d="M74.9444 91.5583C71.6628 91.5612 68.4542 90.5892 65.7259 88.7656C62.9976 86.9419 60.8725 84.3489 59.6203 81.3156C58.3681 78.2822 58.0453 74.9452 58.6928 71.7281C59.3402 68.5109 60.9288 65.5586 63.2569 63.2458C63.696 62.8108 64.2165 62.4665 64.7887 62.2327C65.3608 61.9988 65.9734 61.88 66.5915 61.8829C67.2096 61.8858 67.8211 62.0104 68.391 62.2496C68.9609 62.4888 69.4782 62.8379 69.9132 63.277C70.3482 63.7162 70.6924 64.2366 70.9263 64.8088C71.1601 65.3809 71.279 65.9936 71.2761 66.6116C71.2732 67.2297 71.1486 67.8412 70.9094 68.4111C70.6701 68.9811 70.321 69.4983 69.8819 69.9333C69.2077 70.5925 68.6723 71.3801 68.3073 72.2496C67.9424 73.1191 67.7552 74.0528 67.7569 74.9958C67.6738 76.4802 68.0571 77.9534 68.8532 79.2091C69.6493 80.4647 70.8182 81.4399 72.1962 81.998C73.5742 82.5561 75.0923 82.6691 76.5377 82.3213C77.9832 81.9735 79.2837 81.1822 80.2569 80.0583C81.1465 79.1766 82.3482 78.682 83.6007 78.682C84.8531 78.682 86.0549 79.1766 86.9444 80.0583C87.8113 80.9556 88.2958 82.1544 88.2958 83.402C88.2958 84.6497 87.8113 85.8485 86.9444 86.7458C85.3649 88.3059 83.49 89.5351 81.4294 90.3614C79.3689 91.1878 77.1642 91.5947 74.9444 91.5583Z" fill="#2356FE"/>
<path d="M139.016 75.0156C139.016 92.0061 132.266 108.301 120.252 120.315C108.238 132.329 91.9436 139.078 74.9531 139.078C57.9627 139.078 41.6681 132.329 29.6541 120.315C17.64 108.301 10.8906 92.0061 10.8906 75.0156C10.8906 58.0252 17.64 41.7306 29.6541 29.7166C41.6681 17.7025 57.9627 10.9531 74.9531 10.9531C76.1963 10.9531 77.3886 11.447 78.2677 12.3261C79.1468 13.2051 79.6406 14.3974 79.6406 15.6406V39.3906C79.6244 40.6288 79.1254 41.8117 78.2498 42.6873C77.3742 43.5629 76.1913 44.0619 74.9531 44.0781C68.8321 44.036 62.8412 45.8442 57.7656 49.2656C52.6614 52.6484 48.6809 57.4754 46.3321 63.1304C43.9832 68.7854 43.3726 75.012 44.5781 81.0156C46.5387 88.138 50.959 94.3355 57.0547 98.5086C63.1504 102.682 70.5274 104.56 77.8766 103.811C85.2258 103.062 92.072 99.7334 97.2003 94.4162C102.329 89.0991 105.408 82.1371 105.891 74.7656C105.883 74.148 105.999 73.535 106.232 72.9629C106.465 72.3908 106.81 71.871 107.247 71.4342C107.684 70.9975 108.203 70.6525 108.775 70.4196C109.348 70.1867 109.96 70.0706 110.578 70.0781H134.328C134.965 70.0772 135.596 70.2062 136.182 70.4573C136.767 70.7083 137.296 71.0761 137.734 71.5382C138.173 72.0003 138.513 72.547 138.733 73.1449C138.954 73.7428 139.05 74.3793 139.016 75.0156Z" fill="#2356FE"/>
<path d="M136.757 38.3026C136.593 39.5185 136.096 40.6653 135.319 41.6151L121.757 55.1776C119.833 57.1206 117.445 58.5405 114.819 59.3026C113.282 59.78 111.679 60.012 110.069 59.9901C108.967 60.0825 107.859 60.0825 106.757 59.9901L98.4442 58.3651L84.1942 72.6776C83.3014 73.5349 82.1192 74.0257 80.8817 74.0526C79.6389 74.0515 78.4474 73.5569 77.5692 72.6776C77.127 72.2467 76.7755 71.7316 76.5355 71.1627C76.2955 70.5937 76.1719 69.9825 76.1719 69.3651C76.1719 68.7476 76.2955 68.1364 76.5355 67.5675C76.7755 66.9986 77.127 66.4835 77.5692 66.0526L91.8817 51.6776L90.1942 43.4276C89.6898 40.7684 89.8183 38.0279 90.5692 35.4276C91.3313 32.8017 92.7511 30.4138 94.6942 28.4901L108.132 15.0526C109.055 14.2126 110.209 13.6684 111.444 13.4901C112.6 13.3183 113.781 13.5151 114.819 14.0526C115.851 14.5771 116.716 15.3777 117.319 16.3651C117.929 17.4699 118.191 18.7337 118.069 19.9901L116.069 34.1151L130.132 32.1776C131.309 32.062 132.493 32.3045 133.53 32.8732C134.568 33.4419 135.409 34.3104 135.944 35.3651C136.453 36.2622 136.732 37.2714 136.757 38.3026Z" fill="#2356FE"/>
</g>
</svg>
