<svg width="150" height="150" viewBox="0 0 150 150" fill="none" xmlns="http://www.w3.org/2000/svg">
<g opacity="0.5">
<path d="M74.9938 101.647L49.8687 126.766C47.9312 128.682 45.5708 129.641 42.7875 129.641C40.0042 129.641 37.6542 128.682 35.7375 126.766L23.0938 114.122C21.1771 112.18 20.2188 109.818 20.2188 107.034C20.2188 104.251 21.1792 101.901 23.1 99.9844L48.3438 74.7469L23.4562 49.8594C21.5396 47.9427 20.5417 45.5865 20.4625 42.7906C20.3833 39.9948 21.3 37.6406 23.2125 35.7281L35.7437 23.2031C37.6854 21.2865 40.0479 20.3281 42.8312 20.3281C45.6146 20.3281 47.9646 21.2865 49.8812 23.2031L74.8813 48.2031L99.8812 23.2031C101.823 21.2865 104.185 20.3281 106.969 20.3281C109.752 20.3281 112.1 21.2865 114.012 23.2031L126.656 35.8469C128.573 37.7844 129.531 40.1448 129.531 42.9281C129.531 45.7156 128.573 48.0656 126.656 49.9781L101.537 75.1031L126.537 100.103C128.533 102.061 129.531 104.447 129.531 107.259C129.531 110.076 128.573 112.441 126.656 114.353L114.494 126.516C112.502 128.511 110.085 129.53 107.244 129.572C104.41 129.614 101.996 128.634 100 126.634L74.9938 101.647ZM75.0125 69.9344C76.45 69.9344 77.6479 69.449 78.6063 68.4781C79.5646 67.5073 80.0437 66.3031 80.0437 64.8656C80.0437 63.4281 79.5563 62.2323 78.5813 61.2781C77.6063 60.324 76.4042 59.8448 74.975 59.8406C73.5458 59.8365 72.3479 60.3219 71.3812 61.2969C70.4146 62.2719 69.9354 63.476 69.9438 64.9094C69.9521 66.3427 70.4375 67.5385 71.4 68.4969C72.3625 69.4552 73.5667 69.9344 75.0125 69.9344ZM52.6375 70.4406L70.45 52.6281L45.45 27.6281C44.7292 26.9073 43.8479 26.5469 42.8062 26.5469C41.7646 26.5469 40.8833 26.9073 40.1625 27.6281L27.6375 40.1531C26.9167 40.874 26.5562 41.7552 26.5562 42.7969C26.5562 43.8385 26.9167 44.7198 27.6375 45.4406L52.6375 70.4406ZM64.9187 80.0344C66.3562 80.0344 67.5521 79.5469 68.5062 78.5719C69.4604 77.5969 69.9396 76.3948 69.9438 74.9656C69.9479 73.5365 69.4625 72.3385 68.4875 71.3719C67.5125 70.4052 66.3083 69.926 64.875 69.9344C63.4417 69.9427 62.2458 70.4281 61.2875 71.3906C60.3292 72.3531 59.85 73.5573 59.85 75.0031C59.85 76.449 60.3354 77.6469 61.3063 78.5969C62.2771 79.5469 63.4812 80.026 64.9187 80.0344ZM75.0125 90.1281C76.45 90.1281 77.6479 89.6427 78.6063 88.6719C79.5646 87.701 80.0437 86.4969 80.0437 85.0594C80.0437 83.6219 79.5563 82.424 78.5813 81.4656C77.6063 80.5073 76.4042 80.0281 74.975 80.0281C73.5458 80.0281 72.3479 80.5156 71.3812 81.4906C70.4146 82.4656 69.9354 83.6698 69.9438 85.1031C69.9521 86.5365 70.4375 87.7323 71.4 88.6906C72.3625 89.649 73.5667 90.1281 75.0125 90.1281ZM85.1125 80.0344C86.5458 80.0344 87.7417 79.5469 88.7 78.5719C89.6583 77.5969 90.1375 76.3948 90.1375 74.9656C90.1375 73.5365 89.6521 72.3385 88.6812 71.3719C87.7104 70.4052 86.5063 69.926 85.0688 69.9344C83.6313 69.9427 82.4333 70.4281 81.475 71.3906C80.5167 72.3531 80.0375 73.5573 80.0375 75.0031C80.0375 76.449 80.525 77.6469 81.5 78.5969C82.4708 79.5552 83.675 80.0344 85.1125 80.0344ZM79.4188 97.2219L104.537 122.341C105.258 123.061 106.14 123.422 107.181 123.422C108.223 123.422 109.104 123.061 109.825 122.341L122.35 109.816C123.071 109.095 123.431 108.214 123.431 107.172C123.431 106.13 123.071 105.249 122.35 104.528L97.225 79.4031L79.4188 97.2219Z" fill="#2356FE"/>
</g>
</svg>
