<svg width="150" height="150" viewBox="0 0 150 150" fill="none" xmlns="http://www.w3.org/2000/svg">
<path d="M135.681 54.4306C143.493 46.6181 139.931 37.4931 135.681 33.0556L116.931 14.3056C109.056 6.49315 99.9931 10.0556 95.5556 14.3056L84.9306 24.9931H68.7431C56.8681 24.9931 49.9931 31.2431 46.4931 38.4306L18.7431 66.1806V91.1806L14.3056 95.5556C6.49315 103.431 10.0556 112.493 14.3056 116.931L33.0556 135.681C36.4306 139.056 40.0556 140.306 43.4931 140.306C47.9306 140.306 51.9931 138.118 54.4306 135.681L71.3056 118.743H93.7431C104.368 118.743 109.743 112.118 111.681 105.618C118.743 103.743 122.618 98.3681 124.181 93.1181C133.868 90.6181 137.493 81.4306 137.493 74.9931V56.2431H133.806L135.681 54.4306ZM124.993 74.9931C124.993 77.8056 123.806 81.2431 118.743 81.2431H112.493V87.4931C112.493 90.3056 111.306 93.7431 106.243 93.7431H99.9931V99.9931C99.9931 102.806 98.8056 106.243 93.7431 106.243H66.1806L45.6806 126.743C43.7431 128.556 42.6181 127.493 41.9306 126.806L23.2431 108.181C21.4306 106.243 22.4931 105.118 23.1806 104.431L31.2431 96.3056V71.3056L43.7431 58.8056V68.7431C43.7431 76.3056 48.7431 87.4931 62.4931 87.4931C76.2431 87.4931 81.2431 76.3056 81.2431 68.7431H124.993V74.9931ZM126.806 45.5556L116.181 56.2431H68.7431V68.7431C68.7431 71.5556 67.5556 74.9931 62.4931 74.9931C57.4306 74.9931 56.2431 71.5556 56.2431 68.7431V49.9931C56.2431 47.1181 57.3056 37.4931 68.7431 37.4931H90.0556L104.306 23.2431C106.243 21.4306 107.368 22.4931 108.056 23.1806L126.743 41.8056C128.556 43.7431 127.493 44.8681 126.806 45.5556Z" fill="#2356FE" fill-opacity="0.5"/>
</svg>
