<svg width="150" height="150" viewBox="0 0 150 150" fill="none" xmlns="http://www.w3.org/2000/svg">
<path d="M125 106.234C128.315 106.234 131.495 104.917 133.839 102.573C136.183 100.229 137.5 97.0496 137.5 93.7344V24.9844C137.5 21.6692 136.183 18.4897 133.839 16.1455C131.495 13.8013 128.315 12.4844 125 12.4844H59.125C61.3125 16.2969 62.5 20.6094 62.5 24.9844H125V93.7344H68.75V106.234M93.75 43.7344V56.2344H56.25V137.484H43.75V99.9844H31.25V137.484H18.75V87.4844H9.375V56.2344C9.375 52.9192 10.692 49.7397 13.0362 47.3955C15.3804 45.0513 18.5598 43.7344 21.875 43.7344H93.75ZM50 24.9844C50 28.2996 48.683 31.479 46.3388 33.8232C43.9946 36.1674 40.8152 37.4844 37.5 37.4844C34.1848 37.4844 31.0054 36.1674 28.6612 33.8232C26.317 31.479 25 28.2996 25 24.9844C25 21.6692 26.317 18.4897 28.6612 16.1455C31.0054 13.8013 34.1848 12.4844 37.5 12.4844C40.8152 12.4844 43.9946 13.8013 46.3388 16.1455C48.683 18.4897 50 21.6692 50 24.9844Z" fill="#2356FE" fill-opacity="0.5"/>
</svg>
