<svg width="150" height="150" viewBox="0 0 150 150" fill="none" xmlns="http://www.w3.org/2000/svg">
<g opacity="0.5" clip-path="url(#clip0_2204_13927)">
<path d="M75.0045 56.25C85.9607 56.25 95.8857 60.125 103.429 65.6187C106.598 67.925 109.461 70.6063 111.836 73.525L112.979 75H37.0295C39.7176 71.4058 42.9379 68.2424 46.5795 65.6187C54.1232 60.125 64.0482 56.25 75.0045 56.25ZM75.0045 18.75C79.9773 18.75 84.7464 20.7254 88.2627 24.2417C91.779 27.7581 93.7545 32.5272 93.7545 37.5C93.7545 42.4728 91.779 47.2419 88.2627 50.7583C84.7464 54.2746 79.9773 56.25 75.0045 56.25C70.0317 56.25 65.2625 54.2746 61.7462 50.7583C58.2299 47.2419 56.2545 42.4728 56.2545 37.5C56.2545 32.5272 58.2299 27.7581 61.7462 24.2417C65.2625 20.7254 70.0317 18.75 75.0045 18.75ZM18.7545 81.25C17.6895 81.2506 16.6424 81.5232 15.7124 82.0422C14.7825 82.5611 14.0005 83.309 13.4408 84.215C12.881 85.1209 12.5621 86.1549 12.5141 87.2188C12.4662 88.2827 12.6909 89.3411 13.167 90.2937L31.917 127.794C32.4357 128.832 33.2331 129.705 34.2199 130.315C35.2068 130.926 36.3441 131.249 37.5045 131.25H112.504C113.665 131.249 114.802 130.926 115.789 130.315C116.776 129.705 117.573 128.832 118.092 127.794L136.842 90.2937C137.318 89.3411 137.543 88.2827 137.495 87.2188C137.447 86.1549 137.128 85.1209 136.568 84.215C136.008 83.309 135.226 82.5611 134.297 82.0422C133.367 81.5232 132.319 81.2506 131.254 81.25H18.7545Z" fill="#2356FE"/>
</g>
<defs>
<clipPath id="clip0_2204_13927">
<rect width="150" height="150" fill="white"/>
</clipPath>
</defs>
</svg>
