<svg width="150" height="150" viewBox="0 0 150 150" fill="none" xmlns="http://www.w3.org/2000/svg">
<g opacity="0.5">
<path d="M132.375 37.4782L80.8126 7.94699C79.0336 6.96204 77.0335 6.44531 75.0001 6.44531C72.9666 6.44531 70.9666 6.96204 69.1876 7.94699L17.6251 37.4782C15.8246 38.5067 14.3292 39.9945 13.2915 41.7898C12.2539 43.585 11.7112 45.6235 11.7188 47.697V103.103C11.8536 105.032 12.4634 106.897 13.4939 108.533C14.5245 110.169 15.9437 111.524 17.6251 112.478L69.1876 141.634C70.9666 142.619 72.9666 143.136 75.0001 143.136C77.0335 143.136 79.0336 142.619 80.8126 141.634L132.375 112.478C134.056 111.524 135.476 110.169 136.506 108.533C137.537 106.897 138.147 105.032 138.281 103.103V47.322C138.224 45.3124 137.65 43.3513 136.616 41.6274C135.582 39.9034 134.121 38.4746 132.375 37.4782ZM69.1876 128.509L49.2188 117.259V67.572L69.1876 78.447V128.509ZM75.0001 68.322L55.5001 57.6345L100.594 32.6032L120.188 43.6657L75.0001 68.322ZM75.0001 18.1657L88.6876 25.8532L43.3126 51.072L29.8126 43.6657L75.0001 18.1657ZM23.4376 53.5095L37.5001 61.197V110.603L23.4376 103.103V53.5095ZM80.8126 128.509V78.447L126.563 53.5095V103.103L80.8126 128.509Z" fill="#2356FE"/>
</g>
</svg>
