<svg width="150" height="150" viewBox="0 0 150 150" fill="none" xmlns="http://www.w3.org/2000/svg">
<g opacity="0.5" clip-path="url(#clip0_2199_13680)">
<path d="M53.143 11.5454C53.0255 11.5557 52.9086 11.5728 52.7929 11.5968L34.3347 14.9913C33.6038 15.1262 32.9421 15.5267 32.4666 16.1221C31.9911 16.7175 31.7325 17.4693 31.7365 18.2447V39.3435C31.2334 39.2352 30.7149 39.1703 30.1824 39.1703C25.856 39.1703 22.3323 42.9352 22.3323 47.4417C22.3323 51.9482 25.856 55.7387 30.1824 55.7387C34.2668 55.7387 37.5888 52.349 37.9527 48.1796C38.0038 47.9373 38.0285 47.6898 38.0264 47.4417V32.4582L53.8863 29.5192C54.613 29.3852 55.2715 28.9884 55.7465 28.3983C56.2215 27.8083 56.4827 27.0625 56.4845 26.2915V14.8245C56.4845 14.3758 56.3965 13.9318 56.2259 13.52C56.0553 13.1081 55.8058 12.7372 55.4927 12.4299C55.1796 12.1227 54.8096 11.8857 54.4055 11.7336C54.0014 11.5815 53.5717 11.5174 53.143 11.5454ZM50.1946 18.726V23.5258L38.0264 25.7846V20.9847L50.1946 18.726ZM134.371 21.2606C133.779 21.2886 133.206 21.4911 132.719 21.8446L127.596 25.5921L126.134 23.4103C125.84 22.9679 125.447 22.6078 124.988 22.3617C124.53 22.1155 124.02 21.9908 123.505 21.9986C122.883 22.0093 122.278 22.2126 121.767 22.5825C121.428 22.8304 121.139 23.1456 120.917 23.5102C120.695 23.8747 120.544 24.2814 120.473 24.707C120.402 25.1326 120.412 25.5687 120.502 25.9903C120.592 26.4119 120.761 26.8109 120.999 27.1642L122.461 29.3459L118.892 31.9576L117.424 29.763C117.13 29.3228 116.737 28.9645 116.28 28.7195C115.823 28.4745 115.315 28.3503 114.801 28.3577C114.177 28.3742 113.572 28.5841 113.063 28.9609C112.722 29.2068 112.431 29.5206 112.207 29.8842C111.983 30.2478 111.829 30.6541 111.756 31.0798C111.682 31.5055 111.69 31.9422 111.778 32.3648C111.866 32.7875 112.034 33.1877 112.27 33.5426L113.739 35.7308L108.64 39.459C107.96 39.9615 107.498 40.7256 107.357 41.5834C107.215 42.4412 107.405 43.3226 107.885 44.0343L108.616 45.1251L93.2779 56.3419C87.9853 51.9505 81.7664 49.8028 75.4033 49.7004C68.2317 49.585 60.8733 52.0583 54.4207 56.7782C54.3874 56.8032 54.3547 56.8289 54.3224 56.8552C46.3874 63.1515 40.5635 64.5075 34.8016 65.4347C29.0398 66.3618 23.0171 66.7075 16.6936 71.1842C16.6771 71.2011 16.6608 71.2181 16.6446 71.2354C-1.50716 84.5128 -5.3608 111.306 7.79947 130.945C20.9644 150.587 46.4074 155.986 64.5621 142.707C64.5621 142.698 64.5621 142.69 64.5621 142.681C72.3707 136.927 75.9129 130.763 78.9785 125.317C82.0441 119.871 84.6276 115.174 91.2143 110.449C91.2224 110.449 91.2306 110.449 91.2388 110.449C103.463 101.508 108.913 86.6299 104.218 72.5124L119.488 61.347L120.231 62.4571C120.71 63.1645 121.437 63.6456 122.254 63.7958C123.071 63.946 123.911 63.7532 124.592 63.2592L129.697 59.5246L131.171 61.7256C131.408 62.0795 131.71 62.381 132.059 62.6129C132.408 62.8448 132.797 63.0025 133.205 63.077C133.612 63.1515 134.029 63.1413 134.433 63.0471C134.837 62.9528 135.218 62.7763 135.557 62.5277C135.895 62.2798 136.184 61.9646 136.406 61.6001C136.628 61.2355 136.779 60.8288 136.85 60.4032C136.922 59.9777 136.912 59.5416 136.822 59.1199C136.731 58.6983 136.563 58.2994 136.325 57.946L134.85 55.7514L138.407 53.1526L139.875 55.3472C140.112 55.7011 140.414 56.0026 140.763 56.2345C141.112 56.4664 141.501 56.6241 141.908 56.6986C142.316 56.7731 142.733 56.7629 143.137 56.6687C143.541 56.5744 143.922 56.3979 144.261 56.1493C144.94 55.649 145.401 54.8883 145.545 54.0335C145.689 53.1787 145.503 52.2991 145.028 51.5869L143.554 49.3859L148.671 45.6448C149.348 45.1445 149.809 44.3851 149.952 43.5319C150.096 42.6786 149.912 41.8006 149.439 41.0888L137.098 22.6724C136.795 22.2152 136.386 21.8458 135.909 21.5989C135.432 21.352 134.903 21.2356 134.371 21.2606ZM133.738 29.1214L142.473 42.1541L139.942 44.0022L131.208 30.9758L133.738 29.1214ZM126.066 34.7362L134.801 47.7689L131.245 50.3677L122.504 37.3414L126.066 34.7362ZM117.35 41.1146L126.085 54.1409L123.554 55.9954L122.989 55.1548C122.942 55.0624 122.891 54.9725 122.835 54.8853L115.569 44.0728C115.519 43.9956 115.465 43.9207 115.409 43.8482L114.82 42.9627L117.35 41.1146ZM30.1824 45.7476C31.054 45.7476 31.7365 46.4292 31.7365 47.4416C31.7365 48.454 31.054 49.1614 30.1824 49.1614C29.3108 49.1614 28.6284 48.454 28.6284 47.4416C28.6284 46.4292 29.3108 45.7476 30.1824 45.7476ZM112.227 50.5218L115.87 55.9569L98.585 68.611C98.5809 68.6132 98.5768 68.6154 98.5727 68.6176L66.6687 91.9623C66.2704 90.983 65.7814 90.0338 65.1822 89.1261C65.1591 89.0884 65.1455 89.0472 65.121 89.0106C65.0921 88.9675 65.0533 88.9361 65.0227 88.8951C64.4227 88.0195 63.7473 87.2251 63.0203 86.5144L112.227 50.5218ZM75.1699 56.1237C79.3728 56.1702 83.096 58.6702 86.7792 61.0968L56.9451 82.9272C52.5477 81.5321 47.6204 82.106 43.5853 85.0576C36.6179 90.154 34.9108 100.277 39.7892 107.555C44.6676 114.834 54.3512 116.617 61.3186 111.521C65.3516 108.571 67.5598 103.934 67.8112 99.1427L97.7865 77.2225C100.196 87.7101 97.1537 98.0879 87.6145 105.066C80.0351 110.513 76.6048 116.544 73.5483 121.974C70.487 127.413 67.7902 132.278 60.9439 137.323C45.703 148.472 24.2548 144.047 12.9527 127.185C1.66003 110.333 5.04515 87.7956 20.2684 76.645C20.2741 76.6407 20.2628 76.6235 20.2684 76.6194C25.1862 73.1564 29.6495 72.9173 35.7536 71.9351C41.8771 70.9497 49.3149 69.0609 58.1306 62.0659L58.0385 62.1621C63.5307 58.1447 69.4605 56.0603 75.1699 56.1237ZM52.3014 88.6896C53.9787 88.6566 55.6324 89.1339 57.0926 90.0371C57.2376 90.1261 57.3767 90.2224 57.5164 90.3194C57.878 90.5724 58.2251 90.8496 58.5545 91.16C58.6744 91.2723 58.7904 91.3878 58.9046 91.5066C59.2822 91.9021 59.6489 92.3213 59.9673 92.7964C60.2875 93.2742 60.5385 93.7762 60.7658 94.2851C60.8289 94.4273 60.8934 94.57 60.9501 94.715C61.1523 95.2329 61.3242 95.7592 61.4353 96.2936C61.4367 96.3002 61.44 96.313 61.4416 96.3197C62.1887 99.9621 60.8428 103.848 57.7131 106.138C53.5303 109.197 47.8716 108.159 44.9429 103.789C42.0142 99.4193 43.0083 93.5078 47.191 90.4482C48.7596 89.3009 50.5394 88.724 52.3014 88.6896ZM142.934 92.668C142.897 92.6695 142.86 92.6717 142.823 92.6746C142.731 92.6789 142.638 92.6874 142.547 92.7002L112.32 97.5514C111.576 97.6696 110.898 98.0621 110.408 98.6577C109.918 99.2534 109.648 100.013 109.648 100.798V126.652C108.84 126.395 108 126.216 107.117 126.216C102.288 126.216 98.3209 130.361 98.3209 135.405C98.3209 140.449 102.288 144.626 107.117 144.626C111.719 144.626 115.52 140.821 115.87 136.098C115.916 135.87 115.939 135.638 115.938 135.405V117.206L139.875 113.382V121.801C139.074 121.546 138.245 121.365 137.369 121.365C132.54 121.365 128.566 125.535 128.566 130.579C128.566 135.623 132.54 139.8 137.369 139.8C141.99 139.8 145.782 135.964 146.103 131.215C146.143 131.005 146.164 130.793 146.164 130.579V95.9472C146.164 95.5086 146.079 95.0747 145.915 94.6709C145.751 94.267 145.512 93.9016 145.211 93.596C144.91 93.2904 144.553 93.0508 144.162 92.8915C143.771 92.7322 143.353 92.6561 142.934 92.668ZM139.875 99.778V106.715L115.938 110.546V103.609L139.875 99.778ZM26.5338 106.471C25.9093 106.489 25.3041 106.701 24.7955 107.08C24.4548 107.326 24.164 107.64 23.9396 108.004C23.7153 108.367 23.562 108.774 23.4883 109.199C23.4147 109.625 23.4223 110.062 23.5106 110.484C23.599 110.907 23.7663 111.307 24.0031 111.662L30.7168 121.634C31.1928 122.344 31.9184 122.83 32.7354 122.983C33.5524 123.137 34.3944 122.947 35.078 122.455C35.4187 122.209 35.7095 121.896 35.9338 121.532C36.1581 121.168 36.3115 120.762 36.3851 120.336C36.4587 119.911 36.4512 119.474 36.3628 119.051C36.2745 118.629 36.1071 118.229 35.8704 117.874L29.1566 107.883C28.8633 107.441 28.4708 107.082 28.0135 106.835C27.5562 106.589 27.0482 106.464 26.5338 106.471ZM137.369 127.935C138.793 127.935 139.875 129.081 139.875 130.579C139.875 132.077 138.793 133.223 137.369 133.223C135.944 133.223 134.863 132.077 134.863 130.579C134.863 129.081 135.944 127.935 137.369 127.935ZM107.117 132.787C108.542 132.787 109.648 133.906 109.648 135.405C109.648 136.903 108.542 138.048 107.117 138.048C105.692 138.048 104.611 136.903 104.611 135.405C104.611 133.906 105.692 132.787 107.117 132.787Z" fill="#2356FE"/>
</g>
<defs>
<clipPath id="clip0_2199_13680">
<rect width="150" height="150" fill="white"/>
</clipPath>
</defs>
</svg>
