<svg width="150" height="150" viewBox="0 0 150 150" fill="none" xmlns="http://www.w3.org/2000/svg">
<g opacity="0.5" clip-path="url(#clip0_2199_13823)">
<path d="M84.0859 48.6516H74.7109C73.0549 48.6516 71.7109 47.5764 71.7109 46.2516C71.7109 44.9268 73.0549 43.8516 74.7109 43.8516H84.0859C85.7449 43.8516 87.0859 44.9268 87.0859 46.2516C87.0859 47.5764 85.7449 48.6516 84.0859 48.6516Z" fill="#2356FE"/>
<path d="M148.864 28.4174L148.705 26.5043L147.155 25.4357C133.137 15.7664 117.527 11.1118 100.654 11.6241C99.8387 11.6 99.0155 11.588 98.1845 11.588C83.6341 11.588 69.9964 15.5462 57.5624 23.2745C56.4285 23.9789 55.2908 24.6673 54.1763 25.4357L52.6308 26.5043L52.4677 28.4174C52.4444 28.7096 52.289 30.6066 52.0988 33.4842C51.4969 42.7414 50.5572 62.4563 52.5065 74.1348C52.8793 76.3721 53.5666 79.6619 54.6927 83.476C54.8791 84.1084 55.1393 84.8088 55.349 85.4651C57.2518 91.3564 60.1875 98.1922 64.8046 104.568C68.9246 110.263 74.3378 115.502 81.4751 119.208C86.7524 121.949 92.9266 123.867 100.239 124.455L100.759 124.483L101.089 124.455C138.069 121.493 146.973 85.185 148.821 74.1348C151.384 58.8263 148.973 29.6501 148.864 28.4174ZM100.751 95.963C100.949 96.2472 100.67 112.892 117.612 111.596C109.807 115.502 109.368 115.118 100.573 116.038V116.078C100.51 116.074 100.452 116.058 100.39 116.054C100.367 116.058 100.347 116.058 100.324 116.062V116.046C93.9479 115.654 87.9445 113.573 82.5352 110.631C78.4346 108.142 75.0212 105.052 72.2564 101.626C66.9714 95.0665 63.8532 87.4302 62.0242 81.0267C61.1311 77.8929 60.5408 75.0474 60.1642 72.7701C58.1371 60.6273 59.5661 37.7986 60.0593 31.0349C65.1191 27.725 70.4197 25.1716 75.9105 23.2945C79.8325 21.9498 83.8671 21.0013 87.9872 20.3809C91.3306 19.8806 94.7245 19.5885 98.1922 19.5885C98.9417 19.5885 99.695 19.6005 100.433 19.6205H100.674V28.7576V73.6546H98.0408H90.2744H80.1626C80.9509 79.1656 82.4653 83.2879 84.3137 86.4137C87.9833 92.6051 93.0082 94.7903 96.5225 95.5228C98.9611 96.031 100.67 95.8549 100.67 95.8549V73.6986H120.975C117.577 97.712 100.67 95.899 100.67 95.899V95.959H100.751V95.963ZM129.456 51.1941H117.321C115.177 51.1941 113.438 49.4011 113.438 47.1918C113.438 44.9826 115.177 43.1896 117.321 43.1896H129.456C131.603 43.1896 133.339 44.9826 133.339 47.1918C133.339 49.4011 131.603 51.1941 129.456 51.1941Z" fill="#2356FE"/>
<path d="M100.328 116.122C100.351 116.119 100.371 116.119 100.394 116.116C100.371 116.116 100.351 116.112 100.328 116.109V116.122Z" fill="#2356FE"/>
<path d="M86.2089 119.02C85.5914 118.101 84.298 117.838 83.33 118.427C83.0379 118.604 82.7667 118.745 82.4788 118.91C76.5999 115.509 71.3511 111.113 66.9701 105.582C66.7322 105.283 62.4263 99.4535 62.4263 99.4535C62.4263 99.4535 59.0592 98.4085 55.279 101.972C51.4989 105.535 48.816 110.987 48.816 110.987C45.3821 96.2676 50.8563 88.5956 55.8381 84.7851C55.713 84.4119 55.5753 84.023 55.4585 83.6694C54.1191 79.5133 53.3764 76.1349 52.9926 74.0293C50.147 58.4888 52.7881 29.3799 52.905 28.1464L52.9968 27.1329C53.2262 27.0779 53.4474 27.0072 53.681 26.9561C54.8034 26.7008 55.4877 25.6401 55.2165 24.5834C54.9453 23.5267 53.8104 22.8707 52.6963 23.1378C49.2666 23.9195 45.8828 24.9095 42.6409 26.0801C41.8231 26.3747 41.0053 26.6811 39.8204 27.1368C39.0067 27.404 38.1764 27.6868 37.367 27.9814C22.4382 33.3632 10.0045 42.2452 0.412165 54.3798C0.0199606 54.8748 -0.101039 55.5229 0.0867185 56.1161C2.23967 62.8807 9.80838 85.8221 16.8931 97.0532C23.0766 106.843 38.9233 126.928 64.8088 126.924C69.3859 126.924 74.2843 126.296 79.4914 124.874C79.5999 124.842 79.9253 124.724 80.0255 124.677C81.8279 123.86 83.6429 122.898 85.5747 121.731C86.5469 121.15 86.8306 119.936 86.2089 119.02ZM41.2265 60.5433L30.0236 66.8247C28.0417 67.9325 25.484 67.3236 24.3032 65.4577C23.1225 63.5917 23.7734 61.1837 25.7552 60.0719L36.9581 53.7905C38.94 52.6788 41.4977 53.2916 42.6784 55.1576C43.8592 57.0196 43.2083 59.4316 41.2265 60.5433Z" fill="#2356FE"/>
<path d="M3.5245 146.645H2.7468C2.7326 146.544 2.7036 146.455 2.6598 146.376C2.616 146.297 2.55978 146.23 2.49112 146.174C2.42247 146.118 2.34316 146.076 2.2532 146.046C2.16442 146.017 2.06795 146.002 1.96378 146.002C1.77557 146.002 1.61162 146.049 1.47195 146.142C1.33227 146.234 1.22396 146.369 1.14702 146.547C1.07008 146.723 1.03161 146.937 1.03161 147.19C1.03161 147.449 1.07008 147.667 1.14702 147.843C1.22514 148.019 1.33404 148.153 1.47372 148.243C1.6134 148.333 1.77498 148.377 1.95845 148.377C2.06143 148.377 2.15672 148.364 2.24432 148.337C2.3331 148.309 2.41181 148.27 2.48047 148.218C2.54912 148.164 2.60594 148.1 2.65092 148.024C2.69709 147.948 2.72905 147.862 2.7468 147.765L3.5245 147.768C3.50438 147.935 3.45407 148.096 3.37358 148.251C3.29427 148.405 3.18714 148.543 3.0522 148.665C2.91844 148.786 2.75864 148.882 2.5728 148.953C2.38814 149.023 2.17921 149.058 1.94602 149.058C1.62169 149.058 1.33168 148.984 1.07599 148.837C0.821496 148.691 0.620265 148.478 0.472301 148.2C0.325521 147.922 0.252131 147.585 0.252131 147.19C0.252131 146.793 0.326705 146.456 0.475852 146.178C0.625 145.899 0.827415 145.687 1.0831 145.542C1.33878 145.395 1.62642 145.322 1.94602 145.322C2.15672 145.322 2.35204 145.351 2.53196 145.411C2.71307 145.47 2.87346 145.556 3.01314 145.67C3.15282 145.782 3.26645 145.92 3.35405 146.083C3.44283 146.247 3.49964 146.434 3.5245 146.645ZM4.06161 149.008V146.281H4.79492V146.756H4.82333C4.87305 146.587 4.9565 146.459 5.07369 146.373C5.19087 146.285 5.32582 146.241 5.47852 146.241C5.51639 146.241 5.55723 146.244 5.60103 146.249C5.64483 146.253 5.6833 146.26 5.71644 146.268V146.939C5.68093 146.929 5.63181 146.919 5.56907 146.911C5.50633 146.903 5.44892 146.898 5.39684 146.898C5.28557 146.898 5.18614 146.923 5.09854 146.971C5.01213 147.019 4.94348 147.085 4.89258 147.17C4.84286 147.255 4.818 147.354 4.818 147.465V149.008H4.06161ZM7.22346 149.061C6.94292 149.061 6.70144 149.004 6.49902 148.891C6.29779 148.776 6.14273 148.614 6.03382 148.404C5.92492 148.193 5.87047 147.944 5.87047 147.657C5.87047 147.376 5.92492 147.13 6.03382 146.918C6.14273 146.706 6.29602 146.541 6.4937 146.423C6.69256 146.304 6.92575 146.245 7.19327 146.245C7.37319 146.245 7.54069 146.274 7.69576 146.332C7.85201 146.389 7.98813 146.475 8.10414 146.589C8.22132 146.704 8.31247 146.849 8.37757 147.023C8.44268 147.196 8.47523 147.398 8.47523 147.63V147.838H6.17232V147.369H7.76323C7.76323 147.26 7.73955 147.164 7.69221 147.08C7.64486 146.996 7.57916 146.93 7.49512 146.882C7.41226 146.834 7.31578 146.81 7.2057 146.81C7.09088 146.81 6.98908 146.836 6.9003 146.89C6.81271 146.942 6.74405 147.012 6.69434 147.101C6.64462 147.188 6.61917 147.286 6.61799 147.394V147.839C6.61799 147.974 6.64284 148.091 6.69256 148.189C6.74346 148.288 6.81507 148.363 6.9074 148.417C6.99973 148.47 7.10923 148.496 7.23588 148.496C7.31993 148.496 7.39687 148.485 7.46671 148.461C7.53655 148.437 7.59632 148.402 7.64604 148.354C7.69576 148.307 7.73364 148.249 7.75968 148.18L8.45925 148.227C8.42374 148.395 8.35094 148.541 8.24086 148.667C8.13195 148.791 7.99109 148.888 7.81827 148.958C7.64663 149.027 7.44836 149.061 7.22346 149.061ZM9.74654 149.059C9.57253 149.059 9.41747 149.029 9.28134 148.969C9.14521 148.907 9.03749 148.817 8.95819 148.697C8.88006 148.576 8.841 148.426 8.841 148.246C8.841 148.095 8.86882 147.967 8.92445 147.864C8.98008 147.761 9.05584 147.679 9.15172 147.616C9.2476 147.553 9.3565 147.506 9.47843 147.474C9.60153 147.442 9.73056 147.419 9.8655 147.406C10.0241 147.39 10.152 147.374 10.249 147.36C10.3461 147.345 10.4165 147.322 10.4603 147.293C10.5041 147.263 10.526 147.219 10.526 147.161V147.151C10.526 147.038 10.4905 146.951 10.4195 146.89C10.3496 146.828 10.2502 146.797 10.1212 146.797C9.98506 146.797 9.87675 146.827 9.79625 146.888C9.71576 146.947 9.66249 147.022 9.63645 147.112L8.93688 147.055C8.97239 146.889 9.04223 146.746 9.1464 146.625C9.25056 146.503 9.38491 146.41 9.54945 146.344C9.71517 146.278 9.90693 146.245 10.1247 146.245C10.2762 146.245 10.4213 146.263 10.5597 146.298C10.6994 146.334 10.8231 146.389 10.9308 146.463C11.0397 146.538 11.1256 146.634 11.1883 146.751C11.251 146.867 11.2824 147.006 11.2824 147.168V149.008H10.5651V148.63H10.5438C10.5 148.715 10.4414 148.79 10.368 148.855C10.2946 148.919 10.2064 148.969 10.1034 149.006C10.0004 149.042 9.88148 149.059 9.74654 149.059ZM9.96316 148.537C10.0744 148.537 10.1727 148.515 10.2579 148.472C10.3431 148.427 10.41 148.366 10.4585 148.29C10.5071 148.215 10.5313 148.129 10.5313 148.033V147.744C10.5077 147.759 10.4751 147.773 10.4337 147.786C10.3934 147.798 10.3479 147.809 10.297 147.82C10.2461 147.829 10.1952 147.838 10.1443 147.847C10.0934 147.854 10.0472 147.86 10.0058 147.866C9.91699 147.879 9.83946 147.9 9.77317 147.928C9.70688 147.957 9.65539 147.995 9.6187 148.044C9.582 148.091 9.56365 148.15 9.56365 148.221C9.56365 148.324 9.60094 148.403 9.67551 148.457C9.75127 148.511 9.84715 148.537 9.96316 148.537ZM13.3199 146.281V146.849H11.6775V146.281H13.3199ZM12.0503 145.627H12.8067V148.17C12.8067 148.24 12.8174 148.294 12.8387 148.333C12.86 148.371 12.8896 148.398 12.9275 148.413C12.9665 148.428 13.0115 148.436 13.0624 148.436C13.0979 148.436 13.1334 148.433 13.1689 148.427C13.2045 148.42 13.2317 148.415 13.2506 148.411L13.3696 148.974C13.3317 148.986 13.2784 149 13.2098 149.015C13.1411 149.031 13.0577 149.042 12.9594 149.045C12.7771 149.052 12.6173 149.028 12.48 148.972C12.3439 148.917 12.238 148.83 12.1622 148.713C12.0864 148.596 12.0492 148.448 12.0503 148.269V145.627ZM15.0262 149.061C14.7456 149.061 14.5042 149.004 14.3018 148.891C14.1005 148.776 13.9455 148.614 13.8366 148.404C13.7277 148.193 13.6732 147.944 13.6732 147.657C13.6732 147.376 13.7277 147.13 13.8366 146.918C13.9455 146.706 14.0988 146.541 14.2964 146.423C14.4953 146.304 14.7285 146.245 14.996 146.245C15.1759 146.245 15.3434 146.274 15.4985 146.332C15.6547 146.389 15.7909 146.475 15.9069 146.589C16.0241 146.704 16.1152 146.849 16.1803 147.023C16.2454 147.196 16.278 147.398 16.278 147.63V147.838H13.9751V147.369H15.566C15.566 147.26 15.5423 147.164 15.4949 147.08C15.4476 146.996 15.3819 146.93 15.2979 146.882C15.215 146.834 15.1185 146.81 15.0084 146.81C14.8936 146.81 14.7918 146.836 14.703 146.89C14.6154 146.942 14.5468 147.012 14.4971 147.101C14.4474 147.188 14.4219 147.286 14.4207 147.394V147.839C14.4207 147.974 14.4456 148.091 14.4953 148.189C14.5462 148.288 14.6178 148.363 14.7101 148.417C14.8025 148.47 14.912 148.496 15.0386 148.496C15.1227 148.496 15.1996 148.485 15.2694 148.461C15.3393 148.437 15.3991 148.402 15.4488 148.354C15.4985 148.307 15.5364 148.249 15.5624 148.18L16.262 148.227C16.2265 148.395 16.1537 148.541 16.0436 148.667C15.9347 148.791 15.7938 148.888 15.621 148.958C15.4494 149.027 15.2511 149.061 15.0262 149.061ZM17.7765 149.052C17.5694 149.052 17.3818 148.999 17.2137 148.892C17.0468 148.785 16.9142 148.627 16.816 148.418C16.7189 148.209 16.6704 147.952 16.6704 147.648C16.6704 147.335 16.7207 147.075 16.8213 146.868C16.9219 146.66 17.0557 146.504 17.2226 146.401C17.3907 146.297 17.5747 146.245 17.7748 146.245C17.9275 146.245 18.0547 146.271 18.1565 146.323C18.2595 146.374 18.3424 146.438 18.4051 146.515C18.469 146.591 18.5175 146.665 18.5507 146.739H18.5738V145.371H19.3284V149.008H18.5827V148.571H18.5507C18.5152 148.647 18.4649 148.722 18.3998 148.797C18.3358 148.87 18.2524 148.931 18.1494 148.979C18.0476 149.028 17.9233 149.052 17.7765 149.052ZM18.0162 148.45C18.1382 148.45 18.2412 148.417 18.3252 148.351C18.4104 148.283 18.4755 148.189 18.5205 148.069C18.5667 147.948 18.5898 147.806 18.5898 147.644C18.5898 147.482 18.5673 147.341 18.5223 147.222C18.4773 147.102 18.4122 147.01 18.327 146.945C18.2417 146.879 18.1382 146.847 18.0162 146.847C17.892 146.847 17.7872 146.881 17.702 146.948C17.6167 147.016 17.5522 147.109 17.5084 147.229C17.4646 147.348 17.4427 147.487 17.4427 147.644C17.4427 147.803 17.4646 147.943 17.5084 148.065C17.5534 148.186 17.6179 148.28 17.702 148.349C17.7872 148.417 17.892 148.45 18.0162 148.45ZM21.1217 149.008V145.371H21.8781V146.739H21.9012C21.9343 146.665 21.9823 146.591 22.045 146.515C22.1089 146.438 22.1918 146.374 22.2936 146.323C22.3966 146.271 22.5244 146.245 22.6771 146.245C22.876 146.245 23.0595 146.297 23.2275 146.401C23.3956 146.504 23.53 146.66 23.6306 146.868C23.7312 147.075 23.7815 147.335 23.7815 147.648C23.7815 147.952 23.7324 148.209 23.6341 148.418C23.5371 148.627 23.4045 148.785 23.2364 148.892C23.0695 148.999 22.8825 149.052 22.6753 149.052C22.5286 149.052 22.4037 149.028 22.3007 148.979C22.1989 148.931 22.1154 148.87 22.0503 148.797C21.9852 148.722 21.9355 148.647 21.9012 148.571H21.8675V149.008H21.1217ZM21.8621 147.644C21.8621 147.806 21.8846 147.948 21.9296 148.069C21.9746 148.189 22.0397 148.283 22.1249 148.351C22.2101 148.417 22.3137 148.45 22.4356 148.45C22.5587 148.45 22.6629 148.417 22.7481 148.349C22.8334 148.28 22.8979 148.186 22.9417 148.065C22.9867 147.943 23.0091 147.803 23.0091 147.644C23.0091 147.487 22.9872 147.348 22.9434 147.229C22.8997 147.109 22.8351 147.016 22.7499 146.948C22.6647 146.881 22.5599 146.847 22.4356 146.847C22.3125 146.847 22.2084 146.879 22.1231 146.945C22.0391 147.01 21.9746 147.102 21.9296 147.222C21.8846 147.341 21.8621 147.482 21.8621 147.644ZM24.6653 150.031C24.5694 150.031 24.4795 150.023 24.3954 150.007C24.3126 149.993 24.2439 149.975 24.1895 149.952L24.3599 149.388C24.4487 149.415 24.5286 149.43 24.5996 149.432C24.6718 149.435 24.734 149.418 24.786 149.382C24.8393 149.347 24.8825 149.287 24.9157 149.201L24.96 149.086L23.9817 146.281H24.7772L25.3418 148.283H25.3702L25.9402 146.281H26.7409L25.6809 149.303C25.63 149.449 25.5608 149.577 25.4732 149.686C25.3868 149.796 25.2773 149.881 25.1447 149.94C25.0121 150 24.8523 150.031 24.6653 150.031ZM30.2721 146.417C30.2579 146.274 30.1969 146.163 30.0892 146.083C29.9815 146.004 29.8353 145.964 29.6507 145.964C29.5252 145.964 29.4192 145.982 29.3328 146.018C29.2464 146.052 29.1801 146.1 29.134 146.162C29.089 146.223 29.0665 146.293 29.0665 146.371C29.0641 146.436 29.0777 146.493 29.1073 146.542C29.1381 146.59 29.1801 146.632 29.2334 146.668C29.2867 146.702 29.3482 146.732 29.4181 146.758C29.4879 146.783 29.5625 146.804 29.6418 146.822L29.9685 146.9C30.1271 146.936 30.2727 146.983 30.4053 147.042C30.5378 147.101 30.6527 147.174 30.7497 147.261C30.8468 147.347 30.922 147.449 30.9752 147.566C31.0297 147.683 31.0575 147.818 31.0587 147.969C31.0575 148.192 31.0007 148.385 30.8882 148.548C30.777 148.71 30.616 148.836 30.4053 148.926C30.1958 149.015 29.943 149.059 29.6471 149.059C29.3535 149.059 29.0979 149.014 28.8801 148.924C28.6634 148.834 28.4942 148.701 28.3722 148.525C28.2515 148.347 28.1882 148.128 28.1823 147.866H28.9262C28.9345 147.988 28.9694 148.09 29.031 148.172C29.0937 148.252 29.1772 148.313 29.2813 148.354C29.3867 148.395 29.5057 148.415 29.6382 148.415C29.7684 148.415 29.8815 148.396 29.9774 148.358C30.0744 148.32 30.1496 148.267 30.2029 148.2C30.2561 148.132 30.2828 148.055 30.2828 147.967C30.2828 147.886 30.2585 147.817 30.21 147.761C30.1626 147.706 30.0928 147.658 30.0004 147.619C29.9093 147.58 29.7974 147.545 29.6649 147.513L29.2689 147.413C28.9623 147.339 28.7203 147.222 28.5427 147.064C28.3651 146.905 28.277 146.691 28.2781 146.423C28.277 146.202 28.3356 146.01 28.4539 145.846C28.5735 145.681 28.7374 145.553 28.9458 145.46C29.1541 145.368 29.3908 145.322 29.656 145.322C29.9259 145.322 30.1614 145.368 30.3627 145.46C30.5651 145.553 30.7225 145.681 30.835 145.846C30.9474 146.01 31.0054 146.201 31.009 146.417H30.2721ZM33.3105 147.847V146.281H34.0669V149.008H33.3407V148.512H33.3123C33.2508 148.672 33.1484 148.801 33.0051 148.898C32.8631 148.995 32.6897 149.043 32.4849 149.043C32.3026 149.043 32.1422 149.002 32.0037 148.919C31.8652 148.836 31.7569 148.718 31.6788 148.566C31.6019 148.413 31.5628 148.23 31.5616 148.017V146.281H32.318V147.882C32.3192 148.043 32.3624 148.17 32.4476 148.264C32.5328 148.357 32.6471 148.404 32.7903 148.404C32.8815 148.404 32.9667 148.383 33.046 148.342C33.1253 148.299 33.1892 148.237 33.2377 148.154C33.2875 148.071 33.3117 147.969 33.3105 147.847ZM35.4284 147.431V149.008H34.672V146.281H35.3928V146.762H35.4248C35.4852 146.603 35.5864 146.478 35.7284 146.385C35.8705 146.292 36.0427 146.245 36.2451 146.245C36.4345 146.245 36.5996 146.286 36.7405 146.369C36.8814 146.452 36.9909 146.571 37.069 146.724C37.1471 146.877 37.1862 147.059 37.1862 147.271V149.008H36.4298V147.406C36.431 147.239 36.3883 147.109 36.3019 147.016C36.2155 146.921 36.0966 146.874 35.945 146.874C35.8432 146.874 35.7533 146.895 35.6752 146.939C35.5982 146.983 35.5378 147.047 35.4941 147.131C35.4514 147.214 35.4295 147.314 35.4284 147.431ZM38.7873 149.052C38.5801 149.052 38.3925 148.999 38.2244 148.892C38.0575 148.785 37.925 148.627 37.8267 148.418C37.7296 148.209 37.6811 147.952 37.6811 147.648C37.6811 147.335 37.7314 147.075 37.832 146.868C37.9326 146.66 38.0664 146.504 38.2333 146.401C38.4014 146.297 38.5855 146.245 38.7855 146.245C38.9382 146.245 39.0655 146.271 39.1673 146.323C39.2702 146.374 39.3531 146.438 39.4158 146.515C39.4798 146.591 39.5283 146.665 39.5614 146.739H39.5845V145.371H40.3391V149.008H39.5934V148.571H39.5614C39.5259 148.647 39.4756 148.722 39.4105 148.797C39.3466 148.87 39.2631 148.931 39.1602 148.979C39.0584 149.028 38.9341 149.052 38.7873 149.052ZM39.027 148.45C39.1489 148.45 39.2519 148.417 39.3359 148.351C39.4212 148.283 39.4863 148.189 39.5312 148.069C39.5774 147.948 39.6005 147.806 39.6005 147.644C39.6005 147.482 39.578 147.341 39.533 147.222C39.488 147.102 39.4229 147.01 39.3377 146.945C39.2525 146.879 39.1489 146.847 39.027 146.847C38.9027 146.847 38.7979 146.881 38.7127 146.948C38.6275 147.016 38.563 147.109 38.5192 147.229C38.4754 147.348 38.4535 147.487 38.4535 147.644C38.4535 147.803 38.4754 147.943 38.5192 148.065C38.5642 148.186 38.6287 148.28 38.7127 148.349C38.7979 148.417 38.9027 148.45 39.027 148.45ZM41.7387 149.059C41.5647 149.059 41.4097 149.029 41.2735 148.969C41.1374 148.907 41.0297 148.817 40.9504 148.697C40.8722 148.576 40.8332 148.426 40.8332 148.246C40.8332 148.095 40.861 147.967 40.9166 147.864C40.9723 147.761 41.048 147.679 41.1439 147.616C41.2398 147.553 41.3487 147.506 41.4706 147.474C41.5937 147.442 41.7227 147.419 41.8577 147.406C42.0163 147.39 42.1441 147.374 42.2412 147.36C42.3383 147.345 42.4087 147.322 42.4525 147.293C42.4963 147.263 42.5182 147.219 42.5182 147.161V147.151C42.5182 147.038 42.4827 146.951 42.4117 146.89C42.3418 146.828 42.2424 146.797 42.1134 146.797C41.9772 146.797 41.8689 146.827 41.7884 146.888C41.7079 146.947 41.6547 147.022 41.6286 147.112L40.9291 147.055C40.9646 146.889 41.0344 146.746 41.1386 146.625C41.2427 146.503 41.3771 146.41 41.5416 146.344C41.7074 146.278 41.8991 146.245 42.1169 146.245C42.2684 146.245 42.4134 146.263 42.5519 146.298C42.6916 146.334 42.8153 146.389 42.923 146.463C43.0319 146.538 43.1177 146.634 43.1805 146.751C43.2432 146.867 43.2746 147.006 43.2746 147.168V149.008H42.5573V148.63H42.536C42.4922 148.715 42.4336 148.79 42.3602 148.855C42.2868 148.919 42.1986 148.969 42.0956 149.006C41.9926 149.042 41.8737 149.059 41.7387 149.059ZM41.9553 148.537C42.0666 148.537 42.1649 148.515 42.2501 148.472C42.3353 148.427 42.4022 148.366 42.4507 148.29C42.4993 148.215 42.5235 148.129 42.5235 148.033V147.744C42.4999 147.759 42.4673 147.773 42.4259 147.786C42.3856 147.798 42.3401 147.809 42.2892 147.82C42.2383 147.829 42.1874 147.838 42.1365 147.847C42.0856 147.854 42.0394 147.86 41.998 147.866C41.9092 147.879 41.8316 147.9 41.7654 147.928C41.6991 147.957 41.6476 147.995 41.6109 148.044C41.5742 148.091 41.5558 148.15 41.5558 148.221C41.5558 148.324 41.5931 148.403 41.6677 148.457C41.7435 148.511 41.8393 148.537 41.9553 148.537ZM43.8614 149.008V146.281H44.5947V146.756H44.6231C44.6729 146.587 44.7563 146.459 44.8735 146.373C44.9907 146.285 45.1256 146.241 45.2783 146.241C45.3162 146.241 45.357 146.244 45.4008 146.249C45.4446 146.253 45.4831 146.26 45.5162 146.268V146.939C45.4807 146.929 45.4316 146.919 45.3689 146.911C45.3061 146.903 45.2487 146.898 45.1966 146.898C45.0854 146.898 44.9859 146.923 44.8983 146.971C44.8119 147.019 44.7433 147.085 44.6924 147.17C44.6427 147.255 44.6178 147.354 44.6178 147.465V149.008H43.8614ZM46.8657 145.371H47.7268L48.556 146.938H48.5915L49.4207 145.371H50.2819L48.9555 147.722V149.008H48.192V147.722L46.8657 145.371ZM50.9379 149.059C50.7639 149.059 50.6089 149.029 50.4727 148.969C50.3366 148.907 50.2289 148.817 50.1496 148.697C50.0715 148.576 50.0324 148.426 50.0324 148.246C50.0324 148.095 50.0602 147.967 50.1159 147.864C50.1715 147.761 50.2472 147.679 50.3431 147.616C50.439 147.553 50.5479 147.506 50.6698 147.474C50.7929 147.442 50.922 147.419 51.0569 147.406C51.2155 147.39 51.3434 147.374 51.4404 147.36C51.5375 147.345 51.6079 147.322 51.6517 147.293C51.6955 147.263 51.7174 147.219 51.7174 147.161V147.151C51.7174 147.038 51.6819 146.951 51.6109 146.89C51.541 146.828 51.4416 146.797 51.3126 146.797C51.1765 146.797 51.0682 146.827 50.9877 146.888C50.9072 146.947 50.8539 147.022 50.8279 147.112L50.1283 147.055C50.1638 146.889 50.2336 146.746 50.3378 146.625C50.442 146.503 50.5763 146.41 50.7409 146.344C50.9066 146.278 51.0983 146.245 51.3161 146.245C51.4677 146.245 51.6127 146.263 51.7512 146.298C51.8908 146.334 52.0145 146.389 52.1222 146.463C52.2311 146.538 52.317 146.634 52.3797 146.751C52.4424 146.867 52.4738 147.006 52.4738 147.168V149.008H51.7565V148.63H51.7352C51.6914 148.715 51.6328 148.79 51.5594 148.855C51.486 148.919 51.3978 148.969 51.2948 149.006C51.1919 149.042 51.0729 149.059 50.9379 149.059ZM51.1546 148.537C51.2658 148.537 51.3641 148.515 51.4493 148.472C51.5345 148.427 51.6014 148.366 51.6499 148.29C51.6985 148.215 51.7227 148.129 51.7227 148.033V147.744C51.6991 147.759 51.6665 147.773 51.6251 147.786C51.5848 147.798 51.5393 147.809 51.4884 147.82C51.4375 147.829 51.3866 147.838 51.3357 147.847C51.2848 147.854 51.2386 147.86 51.1972 147.866C51.1084 147.879 51.0309 147.9 50.9646 147.928C50.8983 147.957 50.8468 147.995 50.8101 148.044C50.7734 148.091 50.7551 148.15 50.7551 148.221C50.7551 148.324 50.7923 148.403 50.8669 148.457C50.9427 148.511 51.0386 148.537 51.1546 148.537ZM54.0656 149.052C53.8585 149.052 53.6708 148.999 53.5028 148.892C53.3358 148.785 53.2033 148.627 53.105 148.418C53.008 148.209 52.9594 147.952 52.9594 147.648C52.9594 147.335 53.0097 147.075 53.1104 146.868C53.211 146.66 53.3447 146.504 53.5116 146.401C53.6797 146.297 53.8638 146.245 54.0638 146.245C54.2165 146.245 54.3438 146.271 54.4456 146.323C54.5486 146.374 54.6314 146.438 54.6942 146.515C54.7581 146.591 54.8066 146.665 54.8398 146.739H54.8628V145.371H55.6175V149.008H54.8717V148.571H54.8398C54.8042 148.647 54.7539 148.722 54.6888 148.797C54.6249 148.87 54.5415 148.931 54.4385 148.979C54.3367 149.028 54.2124 149.052 54.0656 149.052ZM54.3053 148.45C54.4272 148.45 54.5302 148.417 54.6143 148.351C54.6995 148.283 54.7646 148.189 54.8096 148.069C54.8557 147.948 54.8788 147.806 54.8788 147.644C54.8788 147.482 54.8563 147.341 54.8113 147.222C54.7664 147.102 54.7013 147.01 54.616 146.945C54.5308 146.879 54.4272 146.847 54.3053 146.847C54.181 146.847 54.0763 146.881 53.991 146.948C53.9058 147.016 53.8413 147.109 53.7975 147.229C53.7537 147.348 53.7318 147.487 53.7318 147.644C53.7318 147.803 53.7537 147.943 53.7975 148.065C53.8425 148.186 53.907 148.28 53.991 148.349C54.0763 148.417 54.181 148.45 54.3053 148.45ZM56.9957 147.431V149.008H56.2393V145.371H56.9744V146.762H57.0064C57.0679 146.601 57.1674 146.475 57.3047 146.384C57.442 146.291 57.6142 146.245 57.8214 146.245C58.0108 146.245 58.1759 146.286 58.3168 146.369C58.4588 146.451 58.5689 146.569 58.647 146.723C58.7263 146.875 58.7654 147.058 58.7642 147.271V149.008H58.0078V147.406C58.009 147.238 57.9664 147.107 57.88 147.014C57.7947 146.92 57.6752 146.874 57.5213 146.874C57.4183 146.874 57.3272 146.895 57.2479 146.939C57.1697 146.983 57.1082 147.047 57.0632 147.131C57.0194 147.214 56.9969 147.314 56.9957 147.431ZM60.1372 149.059C59.9632 149.059 59.8081 149.029 59.672 148.969C59.5358 148.907 59.4281 148.817 59.3488 148.697C59.2707 148.576 59.2316 148.426 59.2316 148.246C59.2316 148.095 59.2594 147.967 59.3151 147.864C59.3707 147.761 59.4465 147.679 59.5423 147.616C59.6382 147.553 59.7471 147.506 59.8691 147.474C59.9922 147.442 60.1212 147.419 60.2561 147.406C60.4147 147.39 60.5426 147.374 60.6396 147.36C60.7367 147.345 60.8071 147.322 60.8509 147.293C60.8947 147.263 60.9166 147.219 60.9166 147.161V147.151C60.9166 147.038 60.8811 146.951 60.8101 146.89C60.7403 146.828 60.6408 146.797 60.5118 146.797C60.3757 146.797 60.2674 146.827 60.1869 146.888C60.1064 146.947 60.0531 147.022 60.0271 147.112L59.3275 147.055C59.363 146.889 59.4329 146.746 59.537 146.625C59.6412 146.503 59.7755 146.41 59.9401 146.344C60.1058 146.278 60.2976 146.245 60.5154 146.245C60.6669 146.245 60.8119 146.263 60.9504 146.298C61.0901 146.334 61.2137 146.389 61.3215 146.463C61.4304 146.538 61.5162 146.634 61.5789 146.751C61.6417 146.867 61.673 147.006 61.673 147.168V149.008H60.9557V148.63H60.9344C60.8906 148.715 60.832 148.79 60.7586 148.855C60.6852 148.919 60.597 148.969 60.4941 149.006C60.3911 149.042 60.2721 149.059 60.1372 149.059ZM60.3538 148.537C60.4651 148.537 60.5633 148.515 60.6485 148.472C60.7338 148.427 60.8006 148.366 60.8492 148.29C60.8977 148.215 60.922 148.129 60.922 148.033V147.744C60.8983 147.759 60.8657 147.773 60.8243 147.786C60.7841 147.798 60.7385 147.809 60.6876 147.82C60.6367 147.829 60.5858 147.838 60.5349 147.847C60.484 147.854 60.4378 147.86 60.3964 147.866C60.3076 147.879 60.2301 147.9 60.1638 147.928C60.0975 147.957 60.046 147.995 60.0093 148.044C59.9726 148.091 59.9543 148.15 59.9543 148.221C59.9543 148.324 59.9916 148.403 60.0661 148.457C60.1419 148.511 60.2378 148.537 60.3538 148.537ZM64.7048 146.281L63.7513 149.008H62.8991L61.9456 146.281H62.7446L63.311 148.232H63.3394L63.904 146.281H64.7048Z" fill="#2356FE"/>
</g>
<defs>
<clipPath id="clip0_2199_13823">
<rect width="150" height="150" fill="white"/>
</clipPath>
</defs>
</svg>
