<svg width="150" height="150" viewBox="0 0 150 150" fill="none" xmlns="http://www.w3.org/2000/svg">
<g opacity="0.5" clip-path="url(#clip0_2199_13625)">
<path d="M125.623 113.681L108.846 112.563L100.31 104.027C102.009 102.743 103.125 100.727 103.125 98.4375C103.125 96.6305 102.42 94.9969 101.297 93.75C102.422 92.5031 103.125 90.8695 103.125 89.0625C103.125 87.0914 102.305 85.3148 100.995 84.0375C109.718 76.5 114.844 65.4961 114.844 53.9062C114.844 31.9359 96.9703 14.0625 75 14.0625C53.0297 14.0625 35.1562 31.9359 35.1562 53.9062C35.1562 65.4961 40.282 76.5 49.0055 84.0375C47.6953 85.3148 46.875 87.0914 46.875 89.0625C46.875 90.8695 47.5805 92.5031 48.7031 93.75C47.5781 94.9969 46.875 96.6305 46.875 98.4375C46.875 100.866 48.1125 103.008 49.9875 104.271L43.35 112.568L24.4664 113.749C13.3758 114.443 4.6875 123.689 4.6875 134.803V145.312H9.375V134.803C9.375 126.159 16.132 118.969 24.757 118.43L43.7273 117.244L59.4094 130.685C59.8523 131.062 60.3961 131.25 60.9375 131.25C61.5375 131.25 62.1398 131.018 62.5945 130.563L65.2594 127.898L67.5375 131.318L61.2703 141.764C61.0523 142.127 60.9375 142.542 60.9375 142.969V145.312H65.625V143.618L72.3211 132.455C72.7875 131.679 72.7641 130.702 72.2625 129.949L68.6414 124.516L75 118.158L81.3586 124.516L77.7375 129.949C77.2359 130.702 77.2125 131.679 77.6789 132.455L84.375 143.618V145.312H89.0625V142.969C89.0625 142.542 88.9477 142.127 88.7273 141.762L82.4602 131.316L84.7383 127.896L87.4031 130.561C87.8602 131.018 88.4602 131.25 89.0625 131.25C89.5547 131.25 90.0492 131.098 90.4688 130.781L108.523 117.241L125.311 118.359C133.898 118.931 140.625 126.122 140.625 134.728V145.312H145.312V134.728C145.312 123.663 136.664 114.417 125.623 113.681ZM75 112.162L62.9508 105.469H87.0492L75 112.162ZM53.9062 96.0938H96.0938C97.3852 96.0938 98.4375 97.1438 98.4375 98.4375C98.4375 99.7312 97.3852 100.781 96.0938 100.781H53.9062C52.6148 100.781 51.5625 99.7312 51.5625 98.4375C51.5625 97.1438 52.6148 96.0938 53.9062 96.0938ZM51.5625 89.0625C51.5625 87.7688 52.6148 86.7188 53.9062 86.7188H96.0867L96.1102 86.7211C97.3945 86.7305 98.4375 87.7758 98.4375 89.0625C98.4375 90.3562 97.3852 91.4062 96.0938 91.4062H53.9062C52.6148 91.4062 51.5625 90.3562 51.5625 89.0625ZM69.4688 63.8227L60.4172 56.2781C57.7687 54.0727 56.25 50.8312 56.25 47.3859C56.25 43.3688 59.5359 39.8438 63.2812 39.8438C64.0102 39.8438 64.725 39.9609 65.4117 40.1859C65.3648 40.2516 65.3344 40.3266 65.2875 40.3922C65.0414 40.7555 64.8188 41.1281 64.6148 41.5148C64.568 41.6016 64.5141 41.6859 64.4719 41.775C64.2398 42.2461 64.0453 42.7336 63.8789 43.2328C63.8367 43.3617 63.8039 43.493 63.7664 43.6242C63.6516 44.0156 63.5555 44.4141 63.4828 44.8172C63.4547 44.9672 63.4266 45.1172 63.4055 45.2695C63.3328 45.7992 63.2812 46.3336 63.2812 46.875C63.2812 50.3977 64.8797 53.7094 67.6688 55.9641C68.0977 56.3086 68.6203 56.4844 69.1406 56.4844C69.6609 56.4844 70.1836 56.3109 70.6125 55.9641C73.4016 53.7094 75 50.3977 75 46.875C75 46.3336 74.9484 45.7992 74.8758 45.2695C74.8547 45.1172 74.8266 44.9695 74.7984 44.8172C74.7258 44.4117 74.6297 44.0156 74.5148 43.6219C74.4773 43.493 74.4445 43.3617 74.4023 43.2328C74.2359 42.7336 74.0391 42.2437 73.807 41.7727C73.7672 41.6906 73.7156 41.6133 73.6734 41.5312C73.4672 41.1352 73.2375 40.7531 72.9844 40.3828C72.9422 40.3219 72.9117 40.2516 72.8695 40.1906C74.2406 39.7336 75.7594 39.7336 77.1305 40.1906C77.0883 40.2516 77.0578 40.3219 77.0156 40.3828C76.7648 40.7531 76.5328 41.1375 76.3266 41.5312C76.2844 41.6133 76.2328 41.6906 76.193 41.7727C75.9609 42.2461 75.7641 42.7336 75.5977 43.2328C75.5555 43.3617 75.5227 43.493 75.4852 43.6219C75.3703 44.0133 75.2742 44.4117 75.2016 44.8172C75.1734 44.9672 75.1453 45.1172 75.1242 45.2695C75.0516 45.7992 75 46.3336 75 46.875C75 50.3977 76.5984 53.7094 79.3875 55.9641C79.8164 56.3086 80.3391 56.4844 80.8594 56.4844C81.3797 56.4844 81.9023 56.3109 82.3312 55.9641C85.1203 53.7094 86.7188 50.3977 86.7188 46.875C86.7188 46.3336 86.6672 45.7992 86.5945 45.2695C86.5734 45.1172 86.5453 44.9695 86.5172 44.8172C86.4445 44.4141 86.3484 44.0156 86.2336 43.6242C86.1961 43.493 86.1633 43.3617 86.1211 43.2328C85.9547 42.7336 85.7602 42.2461 85.5281 41.775C85.4836 41.6859 85.4297 41.6039 85.3852 41.5148C85.1836 41.1281 84.9586 40.7555 84.7125 40.3922C84.668 40.3266 84.6352 40.2516 84.5883 40.1859C85.2727 39.9609 85.9875 39.8438 86.7188 39.8438C90.4641 39.8438 93.75 43.3688 93.75 47.3859C93.75 50.8336 92.2312 54.075 89.5828 56.2805L80.5312 63.825C79.9969 64.2703 79.6875 64.9289 79.6875 65.625V82.0312H70.3125V65.625C70.3125 64.9289 70.0031 64.2703 69.4688 63.8227ZM69.6281 43.8984C69.825 44.3062 69.968 44.7352 70.0805 45.1734C70.1086 45.2812 70.132 45.3914 70.1555 45.5016C70.2469 45.9516 70.3125 46.4086 70.3125 46.875C70.3125 47.3414 70.2469 47.7984 70.1555 48.2484C70.132 48.3586 70.1086 48.4688 70.0805 48.5766C69.968 49.0148 69.825 49.4438 69.6281 49.8516C69.6094 49.8891 69.5859 49.9219 69.5672 49.957C69.4477 50.1938 69.2859 50.4094 69.1383 50.6344C68.9906 50.4094 68.8289 50.1938 68.7094 49.957C68.6906 49.9195 68.6672 49.8867 68.6484 49.8516C68.4516 49.4438 68.3086 49.0148 68.1961 48.5766C68.168 48.4688 68.1445 48.3586 68.1211 48.2484C68.0344 47.7984 67.9688 47.3414 67.9688 46.875C67.9688 46.4086 68.0344 45.9516 68.1258 45.5016C68.1492 45.3914 68.1727 45.2812 68.2008 45.1734C68.3133 44.7352 68.4562 44.3062 68.6531 43.8984C68.6695 43.8633 68.6953 43.8305 68.7117 43.793C68.8312 43.5539 68.993 43.3383 69.1406 43.1133C69.2883 43.3383 69.45 43.5539 69.5695 43.793C69.5883 43.8305 69.6117 43.8633 69.6281 43.8984ZM81.3469 43.8984C81.5437 44.3062 81.6867 44.7352 81.7992 45.1734C81.8273 45.2812 81.8508 45.3914 81.8742 45.5016C81.9656 45.9516 82.0312 46.4086 82.0312 46.875C82.0312 47.3414 81.9656 47.7984 81.8742 48.2484C81.8508 48.3586 81.8273 48.4688 81.7992 48.5766C81.6867 49.0148 81.5437 49.4438 81.3469 49.8516C81.3281 49.8891 81.3047 49.9219 81.2859 49.957C81.1664 50.1938 81.0047 50.4094 80.857 50.6344C80.7094 50.4094 80.5477 50.1938 80.4281 49.957C80.4094 49.9195 80.3859 49.8867 80.3672 49.8516C80.1703 49.4438 80.0273 49.0148 79.9148 48.5766C79.8867 48.4688 79.8633 48.3586 79.8398 48.2484C79.7531 47.7984 79.6875 47.3414 79.6875 46.875C79.6875 46.4086 79.7531 45.9516 79.8445 45.5016C79.868 45.3914 79.8914 45.2812 79.9195 45.1734C80.032 44.7352 80.175 44.3062 80.3719 43.8984C80.3883 43.8633 80.4141 43.8305 80.4305 43.793C80.55 43.5539 80.7117 43.3383 80.8594 43.1133C81.007 43.3383 81.1687 43.5539 81.2883 43.793C81.307 43.8305 81.3305 43.8633 81.3469 43.8984ZM39.8438 53.9062C39.8438 34.5211 55.6148 18.75 75 18.75C94.3852 18.75 110.156 34.5211 110.156 53.9062C110.156 64.943 104.897 75.3937 96.0445 82.0312H84.375V66.7242L92.5828 59.8828C96.3047 56.782 98.4375 52.2258 98.4375 47.3859C98.4375 40.7578 93.0703 35.1562 86.7188 35.1562C84.6375 35.1562 82.643 35.7258 80.8523 36.7898C77.2453 34.6992 72.7594 34.6992 69.1523 36.7898C67.3594 35.7258 65.3625 35.1562 63.2812 35.1562C56.9297 35.1562 51.5625 40.7578 51.5625 47.3859C51.5625 52.2258 53.6953 56.782 57.4172 59.8828L65.625 66.7242V82.0312H53.9555C45.1031 75.3937 39.8438 64.943 39.8438 53.9062ZM60.8156 125.714L47.7773 114.539L54.4992 106.134L71.1469 115.383L60.8156 125.714ZM89.2828 125.812L86.032 122.562L78.8555 115.385L95.6883 106.034L104.245 114.591L89.2828 125.812Z" fill="#2356FE"/>
<path d="M115.515 19.4304L110.828 24.1172L114.143 27.4317L118.829 22.745L115.515 19.4304Z" fill="#2356FE"/>
<path d="M114.143 80.3808L110.828 83.6953L115.515 88.3821L118.829 85.0675L114.143 80.3808Z" fill="#2356FE"/>
<path d="M126.562 51.5625H121.875V56.25H126.562V51.5625Z" fill="#2356FE"/>
<path d="M34.4552 19.4433L31.1406 22.7578L35.8274 27.4446L39.1419 24.13L34.4552 19.4433Z" fill="#2356FE"/>
<path d="M35.8274 80.3679L31.1406 85.0547L34.4552 88.3692L39.1419 83.6825L35.8274 80.3679Z" fill="#2356FE"/>
<path d="M28.125 51.5625H23.4375V56.25H28.125V51.5625Z" fill="#2356FE"/>
<path d="M77.3438 4.6875H72.6562V9.375H77.3438V4.6875Z" fill="#2356FE"/>
</g>
<defs>
<clipPath id="clip0_2199_13625">
<rect width="150" height="150" fill="white"/>
</clipPath>
</defs>
</svg>
