<svg width="150" height="150" viewBox="0 0 150 150" fill="none" xmlns="http://www.w3.org/2000/svg">
<g opacity="0.5" clip-path="url(#clip0_2199_13673)">
<path d="M90.1469 71.6412V36.2812H73.7969V82.5612C80.2469 80.2212 85.9469 76.4512 90.1469 71.6412Z" fill="#2356FE"/>
<path d="M51.2969 84.1219C53.9969 84.6419 56.6969 84.9019 59.5469 84.9019C62.3969 84.9019 65.0969 84.6419 67.7969 84.1219V59.4219H51.2969V84.1219Z" fill="#2356FE"/>
<path d="M45.3031 82.5494V51.6094H28.9531V71.6294C33.1531 76.4394 38.8531 80.2094 45.3031 82.5494Z" fill="#2356FE"/>
<path d="M142.341 113.352L101.541 77.9922C107.691 70.5822 111.441 61.4822 111.441 51.6022C111.441 26.7722 88.1906 6.49219 59.3906 6.49219C30.5906 6.49219 7.64062 26.7722 7.64062 51.6022C7.64062 76.4322 30.8906 96.7122 59.6906 96.7122C71.0906 96.7122 81.5906 93.4622 90.1406 88.1322L130.941 123.492L142.341 113.352ZM18.4406 51.6022C18.4406 31.9722 36.8906 15.9822 59.5406 15.9822C82.1906 15.9822 100.641 31.9722 100.641 51.6022C100.641 71.2322 82.1906 87.2222 59.5406 87.2222C36.8906 87.2222 18.4406 71.2322 18.4406 51.6022Z" fill="#2356FE"/>
<path d="M3.5245 145.652H2.7468C2.7326 145.552 2.7036 145.462 2.6598 145.384C2.616 145.305 2.55978 145.237 2.49112 145.182C2.42247 145.126 2.34316 145.084 2.2532 145.054C2.16442 145.024 2.06795 145.01 1.96378 145.01C1.77557 145.01 1.61162 145.056 1.47195 145.15C1.33227 145.242 1.22396 145.377 1.14702 145.555C1.07008 145.731 1.03161 145.945 1.03161 146.197C1.03161 146.457 1.07008 146.674 1.14702 146.851C1.22514 147.027 1.33404 147.16 1.47372 147.25C1.6134 147.34 1.77498 147.385 1.95845 147.385C2.06143 147.385 2.15672 147.372 2.24432 147.344C2.3331 147.317 2.41181 147.278 2.48047 147.225C2.54912 147.172 2.60594 147.108 2.65092 147.032C2.69709 146.956 2.72905 146.87 2.7468 146.773L3.5245 146.776C3.50438 146.943 3.45407 147.104 3.37358 147.259C3.29427 147.413 3.18714 147.551 3.0522 147.673C2.91844 147.794 2.75864 147.89 2.5728 147.961C2.38814 148.03 2.17921 148.065 1.94602 148.065C1.62169 148.065 1.33168 147.992 1.07599 147.845C0.821496 147.698 0.620265 147.486 0.472301 147.208C0.325521 146.93 0.252131 146.593 0.252131 146.197C0.252131 145.801 0.326705 145.464 0.475852 145.185C0.625 144.907 0.827415 144.695 1.0831 144.55C1.33878 144.403 1.62642 144.33 1.94602 144.33C2.15672 144.33 2.35204 144.359 2.53196 144.418C2.71307 144.478 2.87346 144.564 3.01314 144.678C3.15282 144.79 3.26645 144.928 3.35405 145.091C3.44283 145.255 3.49964 145.442 3.5245 145.652ZM4.06161 148.016V145.288H4.79492V145.764H4.82333C4.87305 145.595 4.9565 145.467 5.07369 145.381C5.19087 145.293 5.32582 145.249 5.47852 145.249C5.51639 145.249 5.55723 145.252 5.60103 145.256C5.64483 145.261 5.6833 145.268 5.71644 145.276V145.947C5.68093 145.936 5.63181 145.927 5.56907 145.919C5.50633 145.91 5.44892 145.906 5.39684 145.906C5.28557 145.906 5.18614 145.931 5.09854 145.979C5.01213 146.026 4.94348 146.093 4.89258 146.178C4.84286 146.263 4.818 146.361 4.818 146.473V148.016H4.06161ZM7.22346 148.069C6.94292 148.069 6.70144 148.012 6.49902 147.898C6.29779 147.784 6.14273 147.621 6.03382 147.412C5.92492 147.201 5.87047 146.952 5.87047 146.664C5.87047 146.384 5.92492 146.138 6.03382 145.926C6.14273 145.714 6.29602 145.549 6.4937 145.43C6.69256 145.312 6.92575 145.253 7.19327 145.253C7.37319 145.253 7.54069 145.282 7.69576 145.34C7.85201 145.397 7.98813 145.482 8.10414 145.597C8.22132 145.712 8.31247 145.857 8.37757 146.031C8.44268 146.203 8.47523 146.406 8.47523 146.638V146.846H6.17232V146.377H7.76323C7.76323 146.268 7.73955 146.171 7.69221 146.087C7.64486 146.003 7.57916 145.938 7.49512 145.89C7.41226 145.842 7.31578 145.817 7.2057 145.817C7.09088 145.817 6.98908 145.844 6.9003 145.897C6.81271 145.949 6.74405 146.02 6.69434 146.109C6.64462 146.196 6.61917 146.294 6.61799 146.402V146.847C6.61799 146.982 6.64284 147.099 6.69256 147.197C6.74346 147.295 6.81507 147.371 6.9074 147.424C6.99973 147.478 7.10923 147.504 7.23588 147.504C7.31993 147.504 7.39687 147.492 7.46671 147.469C7.53655 147.445 7.59632 147.41 7.64604 147.362C7.69576 147.315 7.73364 147.257 7.75968 147.188L8.45925 147.234C8.42374 147.402 8.35094 147.549 8.24086 147.675C8.13195 147.799 7.99109 147.896 7.81827 147.966C7.64663 148.035 7.44836 148.069 7.22346 148.069ZM9.74654 148.067C9.57253 148.067 9.41747 148.037 9.28134 147.977C9.14521 147.915 9.03749 147.824 8.95819 147.705C8.88006 147.584 8.841 147.434 8.841 147.254C8.841 147.102 8.86882 146.975 8.92445 146.872C8.98008 146.769 9.05584 146.686 9.15172 146.624C9.2476 146.561 9.3565 146.513 9.47843 146.482C9.60153 146.45 9.73056 146.427 9.8655 146.414C10.0241 146.397 10.152 146.382 10.249 146.368C10.3461 146.353 10.4165 146.33 10.4603 146.3C10.5041 146.271 10.526 146.227 10.526 146.169V146.158C10.526 146.046 10.4905 145.959 10.4195 145.897C10.3496 145.836 10.2502 145.805 10.1212 145.805C9.98506 145.805 9.87675 145.835 9.79625 145.896C9.71576 145.955 9.66249 146.029 9.63645 146.119L8.93688 146.062C8.97239 145.897 9.04223 145.754 9.1464 145.633C9.25056 145.511 9.38491 145.417 9.54945 145.352C9.71517 145.286 9.90693 145.253 10.1247 145.253C10.2762 145.253 10.4213 145.271 10.5597 145.306C10.6994 145.342 10.8231 145.397 10.9308 145.471C11.0397 145.546 11.1256 145.642 11.1883 145.759C11.251 145.875 11.2824 146.014 11.2824 146.176V148.016H10.5651V147.637H10.5438C10.5 147.723 10.4414 147.798 10.368 147.863C10.2946 147.927 10.2064 147.977 10.1034 148.014C10.0004 148.049 9.88148 148.067 9.74654 148.067ZM9.96316 147.545C10.0744 147.545 10.1727 147.523 10.2579 147.479C10.3431 147.434 10.41 147.374 10.4585 147.298C10.5071 147.223 10.5313 147.137 10.5313 147.041V146.751C10.5077 146.767 10.4751 146.781 10.4337 146.794C10.3934 146.806 10.3479 146.817 10.297 146.828C10.2461 146.837 10.1952 146.846 10.1443 146.854C10.0934 146.862 10.0472 146.868 10.0058 146.874C9.91699 146.887 9.83946 146.908 9.77317 146.936C9.70688 146.964 9.65539 147.003 9.6187 147.051C9.582 147.099 9.56365 147.158 9.56365 147.229C9.56365 147.332 9.60094 147.411 9.67551 147.465C9.75127 147.518 9.84715 147.545 9.96316 147.545ZM13.3199 145.288V145.857H11.6775V145.288H13.3199ZM12.0503 144.635H12.8067V147.178C12.8067 147.247 12.8174 147.302 12.8387 147.341C12.86 147.379 12.8896 147.405 12.9275 147.421C12.9665 147.436 13.0115 147.444 13.0624 147.444C13.0979 147.444 13.1334 147.441 13.1689 147.435C13.2045 147.428 13.2317 147.423 13.2506 147.419L13.3696 147.982C13.3317 147.994 13.2784 148.007 13.2098 148.023C13.1411 148.039 13.0577 148.049 12.9594 148.053C12.7771 148.06 12.6173 148.036 12.48 147.98C12.3439 147.924 12.238 147.838 12.1622 147.721C12.0864 147.604 12.0492 147.456 12.0503 147.277V144.635ZM15.0262 148.069C14.7456 148.069 14.5042 148.012 14.3018 147.898C14.1005 147.784 13.9455 147.621 13.8366 147.412C13.7277 147.201 13.6732 146.952 13.6732 146.664C13.6732 146.384 13.7277 146.138 13.8366 145.926C13.9455 145.714 14.0988 145.549 14.2964 145.43C14.4953 145.312 14.7285 145.253 14.996 145.253C15.1759 145.253 15.3434 145.282 15.4985 145.34C15.6547 145.397 15.7909 145.482 15.9069 145.597C16.0241 145.712 16.1152 145.857 16.1803 146.031C16.2454 146.203 16.278 146.406 16.278 146.638V146.846H13.9751V146.377H15.566C15.566 146.268 15.5423 146.171 15.4949 146.087C15.4476 146.003 15.3819 145.938 15.2979 145.89C15.215 145.842 15.1185 145.817 15.0084 145.817C14.8936 145.817 14.7918 145.844 14.703 145.897C14.6154 145.949 14.5468 146.02 14.4971 146.109C14.4474 146.196 14.4219 146.294 14.4207 146.402V146.847C14.4207 146.982 14.4456 147.099 14.4953 147.197C14.5462 147.295 14.6178 147.371 14.7101 147.424C14.8025 147.478 14.912 147.504 15.0386 147.504C15.1227 147.504 15.1996 147.492 15.2694 147.469C15.3393 147.445 15.3991 147.41 15.4488 147.362C15.4985 147.315 15.5364 147.257 15.5624 147.188L16.262 147.234C16.2265 147.402 16.1537 147.549 16.0436 147.675C15.9347 147.799 15.7938 147.896 15.621 147.966C15.4494 148.035 15.2511 148.069 15.0262 148.069ZM17.7765 148.06C17.5694 148.06 17.3818 148.007 17.2137 147.9C17.0468 147.792 16.9142 147.634 16.816 147.426C16.7189 147.217 16.6704 146.96 16.6704 146.656C16.6704 146.343 16.7207 146.083 16.8213 145.876C16.9219 145.668 17.0557 145.512 17.2226 145.409C17.3907 145.305 17.5747 145.253 17.7748 145.253C17.9275 145.253 18.0547 145.279 18.1565 145.331C18.2595 145.382 18.3424 145.446 18.4051 145.523C18.469 145.598 18.5175 145.673 18.5507 145.746H18.5738V144.379H19.3284V148.016H18.5827V147.579H18.5507C18.5152 147.655 18.4649 147.73 18.3998 147.804C18.3358 147.878 18.2524 147.939 18.1494 147.987C18.0476 148.036 17.9233 148.06 17.7765 148.06ZM18.0162 147.458C18.1382 147.458 18.2412 147.425 18.3252 147.359C18.4104 147.291 18.4755 147.197 18.5205 147.076C18.5667 146.956 18.5898 146.814 18.5898 146.652C18.5898 146.49 18.5673 146.349 18.5223 146.229C18.4773 146.11 18.4122 146.018 18.327 145.952C18.2417 145.887 18.1382 145.855 18.0162 145.855C17.892 145.855 17.7872 145.888 17.702 145.956C17.6167 146.023 17.5522 146.117 17.5084 146.237C17.4646 146.356 17.4427 146.495 17.4427 146.652C17.4427 146.811 17.4646 146.951 17.5084 147.073C17.5534 147.194 17.6179 147.288 17.702 147.357C17.7872 147.424 17.892 147.458 18.0162 147.458ZM21.1217 148.016V144.379H21.8781V145.746H21.9012C21.9343 145.673 21.9823 145.598 22.045 145.523C22.1089 145.446 22.1918 145.382 22.2936 145.331C22.3966 145.279 22.5244 145.253 22.6771 145.253C22.876 145.253 23.0595 145.305 23.2275 145.409C23.3956 145.512 23.53 145.668 23.6306 145.876C23.7312 146.083 23.7815 146.343 23.7815 146.656C23.7815 146.96 23.7324 147.217 23.6341 147.426C23.5371 147.634 23.4045 147.792 23.2364 147.9C23.0695 148.007 22.8825 148.06 22.6753 148.06C22.5286 148.06 22.4037 148.036 22.3007 147.987C22.1989 147.939 22.1154 147.878 22.0503 147.804C21.9852 147.73 21.9355 147.655 21.9012 147.579H21.8675V148.016H21.1217ZM21.8621 146.652C21.8621 146.814 21.8846 146.956 21.9296 147.076C21.9746 147.197 22.0397 147.291 22.1249 147.359C22.2101 147.425 22.3137 147.458 22.4356 147.458C22.5587 147.458 22.6629 147.424 22.7481 147.357C22.8334 147.288 22.8979 147.194 22.9417 147.073C22.9867 146.951 23.0091 146.811 23.0091 146.652C23.0091 146.495 22.9872 146.356 22.9434 146.237C22.8997 146.117 22.8351 146.023 22.7499 145.956C22.6647 145.888 22.5599 145.855 22.4356 145.855C22.3125 145.855 22.2084 145.887 22.1231 145.952C22.0391 146.018 21.9746 146.11 21.9296 146.229C21.8846 146.349 21.8621 146.49 21.8621 146.652ZM24.6653 149.038C24.5694 149.038 24.4795 149.031 24.3954 149.015C24.3126 149.001 24.2439 148.983 24.1895 148.96L24.3599 148.396C24.4487 148.423 24.5286 148.438 24.5996 148.44C24.6718 148.442 24.734 148.426 24.786 148.39C24.8393 148.355 24.8825 148.294 24.9157 148.209L24.96 148.094L23.9817 145.288H24.7772L25.3418 147.291H25.3702L25.9402 145.288H26.7409L25.6809 148.31C25.63 148.457 25.5608 148.585 25.4732 148.694C25.3868 148.804 25.2773 148.889 25.1447 148.948C25.0121 149.008 24.8523 149.038 24.6653 149.038ZM28.0864 144.379H28.9475L29.7767 145.945H29.8122L30.6414 144.379H31.5026L30.1762 146.73V148.016H29.4127V146.73L28.0864 144.379ZM32.1586 148.067C31.9846 148.067 31.8296 148.037 31.6934 147.977C31.5573 147.915 31.4496 147.824 31.3703 147.705C31.2922 147.584 31.2531 147.434 31.2531 147.254C31.2531 147.102 31.2809 146.975 31.3366 146.872C31.3922 146.769 31.468 146.686 31.5638 146.624C31.6597 146.561 31.7686 146.513 31.8905 146.482C32.0136 146.45 32.1427 146.427 32.2776 146.414C32.4362 146.397 32.5641 146.382 32.6611 146.368C32.7582 146.353 32.8286 146.33 32.8724 146.3C32.9162 146.271 32.9381 146.227 32.9381 146.169V146.158C32.9381 146.046 32.9026 145.959 32.8316 145.897C32.7617 145.836 32.6623 145.805 32.5333 145.805C32.3972 145.805 32.2889 145.835 32.2084 145.896C32.1279 145.955 32.0746 146.029 32.0486 146.119L31.349 146.062C31.3845 145.897 31.4543 145.754 31.5585 145.633C31.6627 145.511 31.797 145.417 31.9616 145.352C32.1273 145.286 32.319 145.253 32.5368 145.253C32.6884 145.253 32.8334 145.271 32.9719 145.306C33.1115 145.342 33.2352 145.397 33.343 145.471C33.4519 145.546 33.5377 145.642 33.6004 145.759C33.6631 145.875 33.6945 146.014 33.6945 146.176V148.016H32.9772V147.637H32.9559C32.9121 147.723 32.8535 147.798 32.7801 147.863C32.7067 147.927 32.6185 147.977 32.5155 148.014C32.4126 148.049 32.2936 148.067 32.1586 148.067ZM32.3753 147.545C32.4865 147.545 32.5848 147.523 32.67 147.479C32.7552 147.434 32.8221 147.374 32.8706 147.298C32.9192 147.223 32.9434 147.137 32.9434 147.041V146.751C32.9198 146.767 32.8872 146.781 32.8458 146.794C32.8055 146.806 32.76 146.817 32.7091 146.828C32.6582 146.837 32.6073 146.846 32.5564 146.854C32.5055 146.862 32.4593 146.868 32.4179 146.874C32.3291 146.887 32.2516 146.908 32.1853 146.936C32.119 146.964 32.0675 147.003 32.0308 147.051C31.9941 147.099 31.9758 147.158 31.9758 147.229C31.9758 147.332 32.0131 147.411 32.0876 147.465C32.1634 147.518 32.2593 147.545 32.3753 147.545ZM35.0377 146.439V148.016H34.2813V145.288H35.0022V145.77H35.0342C35.0945 145.611 35.1958 145.485 35.3378 145.393C35.4798 145.3 35.6521 145.253 35.8545 145.253C36.0439 145.253 36.209 145.294 36.3499 145.377C36.4907 145.46 36.6002 145.578 36.6784 145.732C36.7565 145.885 36.7955 146.067 36.7955 146.279V148.016H36.0392V146.414C36.0403 146.247 35.9977 146.117 35.9113 146.023C35.8249 145.929 35.7059 145.881 35.5544 145.881C35.4526 145.881 35.3627 145.903 35.2845 145.947C35.2076 145.991 35.1472 146.055 35.1034 146.139C35.0608 146.222 35.0389 146.322 35.0377 146.439ZM37.3917 148.016V145.288H38.1481V148.016H37.3917ZM37.7717 144.937C37.6592 144.937 37.5627 144.9 37.4822 144.825C37.4029 144.749 37.3633 144.659 37.3633 144.553C37.3633 144.449 37.4029 144.36 37.4822 144.285C37.5627 144.209 37.6592 144.172 37.7717 144.172C37.8841 144.172 37.98 144.209 38.0593 144.285C38.1398 144.36 38.18 144.449 38.18 144.553C38.18 144.659 38.1398 144.749 38.0593 144.825C37.98 144.9 37.8841 144.937 37.7717 144.937ZM39.9862 148.069C39.7069 148.069 39.4666 148.01 39.2654 147.891C39.0653 147.772 38.9114 147.606 38.8037 147.394C38.6972 147.182 38.6439 146.938 38.6439 146.663C38.6439 146.383 38.6978 146.138 38.8055 145.928C38.9144 145.716 39.0689 145.551 39.2689 145.432C39.469 145.313 39.7069 145.253 39.9827 145.253C40.2206 145.253 40.4289 145.296 40.6077 145.382C40.7864 145.469 40.9279 145.59 41.032 145.746C41.1362 145.903 41.1936 146.086 41.2043 146.297H40.4905C40.4704 146.161 40.4171 146.051 40.3307 145.968C40.2455 145.884 40.1336 145.842 39.9951 145.842C39.8779 145.842 39.7755 145.874 39.6879 145.938C39.6015 146.001 39.5341 146.093 39.4855 146.213C39.437 146.334 39.4127 146.48 39.4127 146.652C39.4127 146.826 39.4364 146.974 39.4838 147.096C39.5323 147.218 39.6003 147.311 39.6879 147.375C39.7755 147.439 39.8779 147.471 39.9951 147.471C40.0815 147.471 40.1591 147.453 40.2277 147.417C40.2976 147.382 40.355 147.33 40.3999 147.263C40.4461 147.194 40.4763 147.112 40.4905 147.016H41.2043C41.1924 147.224 41.1356 147.408 41.0338 147.566C40.9332 147.724 40.7941 147.847 40.6166 147.936C40.439 148.025 40.2289 148.069 39.9862 148.069ZM42.3739 147.231L42.3757 146.324H42.4858L43.3594 145.288H44.2276L43.054 146.659H42.8746L42.3739 147.231ZM41.6886 148.016V144.379H42.445V148.016H41.6886ZM43.3931 148.016L42.5906 146.828L43.0948 146.293L44.2791 148.016H43.3931ZM45.7702 148.016V144.379H47.2261C47.4936 144.379 47.7168 144.419 47.8955 144.498C48.0742 144.578 48.2086 144.688 48.2986 144.828C48.3885 144.968 48.4335 145.129 48.4335 145.311C48.4335 145.453 48.4051 145.578 48.3483 145.686C48.2915 145.793 48.2133 145.88 48.1139 145.949C48.0157 146.016 47.9032 146.064 47.7765 146.093V146.128C47.915 146.134 48.0447 146.173 48.1654 146.245C48.2873 146.318 48.3862 146.419 48.4619 146.549C48.5377 146.678 48.5756 146.832 48.5756 147.011C48.5756 147.204 48.5276 147.376 48.4317 147.527C48.337 147.678 48.1968 147.797 48.0109 147.884C47.8251 147.972 47.596 148.016 47.3238 148.016H45.7702ZM46.539 147.387H47.1657C47.38 147.387 47.5363 147.346 47.6345 147.265C47.7327 147.182 47.7819 147.072 47.7819 146.934C47.7819 146.834 47.7576 146.745 47.7091 146.668C47.6605 146.591 47.5913 146.531 47.5013 146.487C47.4126 146.443 47.3066 146.421 47.1835 146.421H46.539V147.387ZM46.539 145.901H47.1089C47.2143 145.901 47.3078 145.883 47.3895 145.846C47.4723 145.808 47.5374 145.755 47.5848 145.686C47.6333 145.617 47.6576 145.535 47.6576 145.439C47.6576 145.308 47.6108 145.202 47.5173 145.121C47.425 145.041 47.2936 145.001 47.1231 145.001H46.539V145.901ZM49.0616 148.016V145.288H49.7949V145.764H49.8233C49.873 145.595 49.9565 145.467 50.0737 145.381C50.1909 145.293 50.3258 145.249 50.4785 145.249C50.5164 145.249 50.5572 145.252 50.601 145.256C50.6448 145.261 50.6833 145.268 50.7164 145.276V145.947C50.6809 145.936 50.6318 145.927 50.5691 145.919C50.5063 145.91 50.4489 145.906 50.3968 145.906C50.2856 145.906 50.1861 145.931 50.0985 145.979C50.0121 146.026 49.9435 146.093 49.8926 146.178C49.8429 146.263 49.818 146.361 49.818 146.473V148.016H49.0616ZM52.2235 148.069C51.9429 148.069 51.7014 148.012 51.499 147.898C51.2978 147.784 51.1427 147.621 51.0338 147.412C50.9249 147.201 50.8705 146.952 50.8705 146.664C50.8705 146.384 50.9249 146.138 51.0338 145.926C51.1427 145.714 51.296 145.549 51.4937 145.43C51.6926 145.312 51.9258 145.253 52.1933 145.253C52.3732 145.253 52.5407 145.282 52.6958 145.34C52.852 145.397 52.9881 145.482 53.1041 145.597C53.2213 145.712 53.3125 145.857 53.3776 146.031C53.4427 146.203 53.4752 146.406 53.4752 146.638V146.846H51.1723V146.377H52.7632C52.7632 146.268 52.7396 146.171 52.6922 146.087C52.6449 146.003 52.5792 145.938 52.4951 145.89C52.4123 145.842 52.3158 145.817 52.2057 145.817C52.0909 145.817 51.9891 145.844 51.9003 145.897C51.8127 145.949 51.7441 146.02 51.6943 146.109C51.6446 146.196 51.6192 146.294 51.618 146.402V146.847C51.618 146.982 51.6428 147.099 51.6926 147.197C51.7435 147.295 51.8151 147.371 51.9074 147.424C51.9997 147.478 52.1092 147.504 52.2359 147.504C52.3199 147.504 52.3969 147.492 52.4667 147.469C52.5365 147.445 52.5963 147.41 52.646 147.362C52.6958 147.315 52.7336 147.257 52.7597 147.188L53.4593 147.234C53.4237 147.402 53.3509 147.549 53.2409 147.675C53.132 147.799 52.9911 147.896 52.8183 147.966C52.6466 148.035 52.4484 148.069 52.2235 148.069ZM53.9546 148.016V147.565L55.2899 145.912V145.892H54.0008V145.288H56.2007V145.78L54.9472 147.392V147.412H56.2469V148.016H53.9546ZM57.9901 148.069C57.7095 148.069 57.468 148.012 57.2656 147.898C57.0644 147.784 56.9093 147.621 56.8004 147.412C56.6915 147.201 56.6371 146.952 56.6371 146.664C56.6371 146.384 56.6915 146.138 56.8004 145.926C56.9093 145.714 57.0626 145.549 57.2603 145.43C57.4592 145.312 57.6924 145.253 57.9599 145.253C58.1398 145.253 58.3073 145.282 58.4624 145.34C58.6186 145.397 58.7547 145.482 58.8707 145.597C58.9879 145.712 59.0791 145.857 59.1442 146.031C59.2093 146.203 59.2418 146.406 59.2418 146.638V146.846H56.9389V146.377H58.5298C58.5298 146.268 58.5062 146.171 58.4588 146.087C58.4115 146.003 58.3458 145.938 58.2617 145.89C58.1789 145.842 58.0824 145.817 57.9723 145.817C57.8575 145.817 57.7557 145.844 57.6669 145.897C57.5793 145.949 57.5107 146.02 57.4609 146.109C57.4112 146.196 57.3858 146.294 57.3846 146.402V146.847C57.3846 146.982 57.4094 147.099 57.4592 147.197C57.5101 147.295 57.5817 147.371 57.674 147.424C57.7663 147.478 57.8758 147.504 58.0025 147.504C58.0865 147.504 58.1635 147.492 58.2333 147.469C58.3031 147.445 58.3629 147.41 58.4126 147.362C58.4624 147.315 58.5002 147.257 58.5263 147.188L59.2259 147.234C59.1903 147.402 59.1175 147.549 59.0075 147.675C58.8986 147.799 58.7577 147.896 58.5849 147.966C58.4132 148.035 58.215 148.069 57.9901 148.069ZM61.1861 145.288V145.857H59.5437V145.288H61.1861ZM59.9165 144.635H60.6729V147.178C60.6729 147.247 60.6836 147.302 60.7049 147.341C60.7262 147.379 60.7558 147.405 60.7937 147.421C60.8327 147.436 60.8777 147.444 60.9286 147.444C60.9641 147.444 60.9996 147.441 61.0352 147.435C61.0707 147.428 61.0979 147.423 61.1168 147.419L61.2358 147.982C61.1979 147.994 61.1446 148.007 61.076 148.023C61.0073 148.039 60.9239 148.049 60.8256 148.053C60.6433 148.06 60.4835 148.036 60.3462 147.98C60.2101 147.924 60.1042 147.838 60.0284 147.721C59.9527 147.604 59.9154 147.456 59.9165 147.277V144.635Z" fill="#2356FE"/>
</g>
<defs>
<clipPath id="clip0_2199_13673">
<rect width="150" height="150" fill="white"/>
</clipPath>
</defs>
</svg>
