<svg width="150" height="150" viewBox="0 0 150 150" fill="none" xmlns="http://www.w3.org/2000/svg">
<g opacity="0.5" clip-path="url(#clip0_2208_13750)">
<path d="M110.002 111.47C110.171 111.088 110.208 110.669 110.106 110.268C110.138 109.717 110.163 109.165 110.163 108.609C110.134 102.074 107.869 95.7043 103.677 90.3674C99.4848 85.0306 93.5684 80.9849 86.7319 78.7805V61.1484H90.2452C90.8668 61.1484 91.4629 60.9262 91.9025 60.5306C92.342 60.135 92.5889 59.5985 92.5889 59.0391C92.5889 58.4796 92.342 57.9431 91.9025 57.5475C91.4629 57.1519 90.8668 56.9297 90.2452 56.9297H59.7845C59.1629 56.9297 58.5667 57.1519 58.1272 57.5475C57.6877 57.9431 57.4407 58.4796 57.4407 59.0391C57.4407 59.5985 57.6877 60.135 58.1272 60.5306C58.5667 60.9262 59.1629 61.1484 59.7845 61.1484H63.2989V78.7805C56.4622 80.9847 50.5454 85.0302 46.3531 90.3672C42.1607 95.7041 39.8962 102.073 39.8672 108.609C39.8672 109.165 39.8914 109.717 39.9236 110.268C39.822 110.669 39.8583 111.088 40.0275 111.47C40.4906 116.075 42.0695 120.532 44.6532 124.529C47.2368 128.525 50.7622 131.963 54.9814 134.601C55.3735 134.846 55.8396 134.977 56.3169 134.977H93.7128C94.1902 134.977 94.6562 134.846 95.0483 134.601C99.2675 131.963 102.793 128.525 105.377 124.529C107.96 120.532 109.539 116.075 110.002 111.47ZM66.3099 82.3338C66.7942 82.2045 67.2191 81.9378 67.5212 81.5735C67.8233 81.2091 67.9865 80.7666 67.9865 80.312V61.1484H82.0444V80.312C82.0443 80.7667 82.2075 81.2091 82.5096 81.5735C82.8118 81.9379 83.2367 82.2046 83.7209 82.3339C89.9941 84.0415 95.4929 87.5156 99.4088 92.2454C103.325 96.9752 105.451 102.711 105.475 108.609H44.5547C44.5788 102.711 46.7052 96.9749 50.6213 92.2451C54.5374 87.5153 60.0365 84.0413 66.3099 82.3338ZM92.9643 130.758H57.0654C53.8333 128.633 51.098 125.956 49.0159 122.88C46.9337 119.803 45.5454 116.388 44.9304 112.828H105.099C104.484 116.388 103.096 119.803 101.014 122.88C98.9317 125.956 96.1964 128.633 92.9643 130.758Z" fill="#2356FE"/>
<path d="M31.879 13.5777L2.05463 40.4248C0.738648 41.6129 -0.000219623 43.2221 4.89688e-08 44.8997C0.000219721 46.5773 0.739508 48.1864 2.0558 49.3742L15.3092 61.3064C15.9604 61.896 16.7351 62.3634 17.5884 62.6816C18.4418 62.9998 19.3568 63.1626 20.2805 63.1603C21.204 63.1624 22.12 62.9997 22.9731 62.6815C23.8262 62.3632 24.6008 61.8958 25.2518 61.3064L47.6296 41.1623L58.7223 39.469C59.1464 39.4043 59.5424 39.2359 59.8672 38.9822C60.1919 38.7285 60.4329 38.3992 60.5636 38.0305C60.6943 37.6617 60.7097 37.2677 60.6082 36.8916C60.5067 36.5155 60.2921 36.1718 59.9881 35.8981L35.1933 13.5777C34.7454 13.1967 34.1525 12.9844 33.5362 12.9844C32.9199 12.9844 32.3269 13.1967 31.879 13.5777ZM21.9376 58.3236C21.4914 58.7073 20.8981 58.9215 20.281 58.9215C19.6639 58.9215 19.0706 58.7073 18.6245 58.3236L5.36998 46.3914C4.93135 45.9953 4.68505 45.4588 4.68505 44.8995C4.68505 44.3402 4.93135 43.8038 5.36998 43.4076L8.72582 40.3867C16.4307 44.5563 25.1628 46.944 34.1427 47.3368L21.9376 58.3236ZM46.1098 37.1155C45.6302 37.1883 45.1878 37.3939 44.8441 37.7036L38.8789 43.0734C29.5381 43.4469 20.2677 41.4583 12.1182 37.333L14.4824 35.2048L16.9674 37.442C17.4072 37.8363 18.0028 38.0575 18.6236 38.057C19.2444 38.0564 19.8395 37.8343 20.2785 37.4392C20.7174 37.0442 20.9643 36.5085 20.9649 35.9498C20.9655 35.3911 20.7197 34.8551 20.2816 34.4593L17.7963 32.2216L19.4532 30.7301L21.9376 32.9668C22.3777 33.3599 22.9729 33.58 23.5929 33.579C24.2129 33.5779 24.8071 33.3558 25.2455 32.9612C25.684 32.5666 25.9308 32.0318 25.9319 31.4738C25.9331 30.9158 25.6886 30.3801 25.2518 29.9841L22.7671 27.7471L24.4235 26.2561L26.9078 28.4927C27.3473 28.8882 27.9433 29.1105 28.5649 29.1105C29.1864 29.1105 29.7825 28.8882 30.222 28.4927C30.6615 28.0971 30.9084 27.5606 30.9084 27.0013C30.9084 26.4419 30.6615 25.9054 30.222 25.5098L27.7374 23.2728L33.5362 18.0528L53.465 35.9929L46.1098 37.1155Z" fill="#2356FE"/>
<path d="M146.175 36.9172L110.027 4.37565L110.892 3.5977C111.33 3.2019 111.575 2.66582 111.575 2.10714C111.574 1.54845 111.327 1.0128 110.888 0.617754C110.449 0.222704 109.854 0.000532542 109.233 9.56121e-07C108.613 -0.00053063 108.017 0.220622 107.577 0.614919L105.059 2.88181L105.056 2.88392L97.4956 9.69048L87.414 18.7661C87.1945 18.9615 87.02 19.1941 86.9007 19.4505C86.7814 19.7068 86.7196 19.9819 86.7188 20.2598C86.7179 20.5377 86.7781 20.813 86.8959 21.0699C87.0137 21.3268 87.1868 21.5603 87.4052 21.7568C87.6235 21.9533 87.8829 22.1091 88.1683 22.2151C88.4538 22.3211 88.7597 22.3753 89.0685 22.3745C89.3773 22.3738 89.6829 22.3181 89.9677 22.2107C90.2525 22.1034 90.511 21.9464 90.7282 21.7488L91.5918 20.9713L127.739 53.513C130.185 55.7132 133.501 56.9491 136.959 56.9487C140.416 56.9483 143.732 55.7117 146.177 53.511C148.622 51.3102 149.995 48.3256 149.994 45.2136C149.994 42.1017 148.62 39.1174 146.175 36.9172ZM114.741 14.586L97.5386 15.6187L106.713 7.35915L114.741 14.586ZM136.958 52.7313C135.861 52.734 134.774 52.5409 133.761 52.1631C132.747 51.7852 131.827 51.2303 131.054 50.5303L125.602 45.6226L127.789 43.6542C128.226 43.2583 128.472 42.7224 128.471 42.164C128.47 41.6056 128.223 41.0703 127.784 40.6754C127.346 40.2806 126.751 40.0584 126.13 40.0577C125.51 40.0569 124.914 40.2776 124.475 40.6714L122.289 42.6395L120.562 41.085L122.748 39.1172C123.185 38.7213 123.43 38.1854 123.43 37.627C123.429 37.0686 123.182 36.5332 122.743 36.1384C122.304 35.7435 121.71 35.5214 121.089 35.5206C120.469 35.5199 119.873 35.7406 119.433 36.1344L117.248 38.1017L115.522 36.5473L117.708 34.5791C118.146 34.1833 118.391 33.6472 118.391 33.0886C118.39 32.5299 118.143 31.9942 117.704 31.5992C117.266 31.2041 116.67 30.9819 116.05 30.9814C115.429 30.9809 114.833 31.202 114.393 31.5963L112.208 33.5641L110.481 32.0091L112.666 30.0411C113.104 29.6452 113.349 29.1093 113.348 28.5508C113.348 27.9924 113.101 27.4571 112.662 27.0623C112.223 26.6674 111.629 26.4453 111.008 26.4445C110.388 26.4438 109.792 26.6645 109.352 27.0583L107.167 29.0259L105.214 27.2683L107.401 25.2991C107.619 25.1033 107.793 24.8706 107.911 24.6144C108.029 24.3582 108.09 24.0835 108.09 23.8061C108.091 23.5287 108.03 23.2539 107.912 22.9976C107.794 22.7413 107.621 22.5084 107.403 22.3123C107.185 22.1162 106.926 21.9607 106.641 21.8547C106.357 21.7488 106.051 21.6944 105.743 21.6948C105.435 21.6952 105.13 21.7503 104.845 21.8569C104.56 21.9636 104.302 22.1197 104.085 22.3163L101.9 24.2841L97.0052 19.8779L118.631 18.5796C118.789 18.5702 118.946 18.5465 119.099 18.5088L142.861 39.8999C144.029 40.9509 144.824 42.29 145.146 43.7479C145.469 45.2058 145.304 46.7169 144.672 48.0903C144.04 49.4637 142.97 50.6377 141.597 51.4638C140.224 52.2899 138.609 52.731 136.958 52.7313Z" fill="#2356FE"/>
<path d="M82.5479 26.1017C82.0181 26.7146 77.3672 32.2228 77.3672 36.8906C77.3672 42.6873 81.011 45.3281 84.3973 45.3281C87.7824 45.3281 91.4262 42.6873 91.4262 36.8906C91.4262 32.2228 86.7764 26.7156 86.2466 26.1028C86.0274 25.8495 85.747 25.6445 85.4266 25.5035C85.1061 25.3625 84.7542 25.2892 84.3975 25.2891C84.0408 25.289 83.6888 25.3621 83.3683 25.5029C83.0478 25.6438 82.7672 25.8486 82.5479 26.1017ZM86.7388 36.8906C86.7388 39.3749 85.7763 41.1094 84.3974 41.1094C83.0184 41.1094 82.0548 39.3749 82.0548 36.8906C82.0548 35.1881 83.2278 32.9531 84.3939 31.1815C85.5554 32.951 86.7388 35.2005 86.7388 36.8906Z" fill="#2356FE"/>
<path d="M66.8249 39.0313C66.4297 39.0311 66.041 39.1209 65.6948 39.2924C65.3487 39.4638 65.0563 39.7113 64.845 40.0118C63.9341 41.3054 60.9655 45.7271 60.9655 48.3123C60.9344 49.0222 61.0629 49.7305 61.3433 50.3946C61.6238 51.0588 62.0503 51.6651 62.5974 52.1773C63.1445 52.6895 63.8009 53.0969 64.5272 53.3753C65.2536 53.6536 66.0349 53.7971 66.8243 53.7971C67.6137 53.7971 68.395 53.6536 69.1213 53.3753C69.8476 53.0969 70.504 52.6895 71.0511 52.1773C71.5982 51.6651 72.0248 51.0588 72.3052 50.3946C72.5856 49.7305 72.7141 49.0222 72.6831 48.3123C72.6831 45.7271 69.7145 41.3065 68.8058 40.0128C68.5942 39.7123 68.3017 39.4647 67.9554 39.2931C67.6091 39.1215 67.2202 39.0314 66.8249 39.0313ZM66.8249 49.5781C66.3213 49.5781 65.653 49.4473 65.653 48.3123C65.8696 47.3089 66.2654 46.3436 66.8249 45.4541C67.3836 46.3438 67.7789 47.309 67.9956 48.3123C67.9956 49.4473 67.3273 49.5781 66.8249 49.5781Z" fill="#2356FE"/>
<path d="M84.3996 94.9219C83.2407 94.9217 82.1077 95.2308 81.144 95.8101C80.1803 96.3894 79.4291 97.213 78.9854 98.1765C78.5418 99.1401 78.4256 100.2 78.6515 101.223C78.8775 102.246 79.4354 103.186 80.2548 103.924C81.0742 104.661 82.1183 105.164 83.2549 105.367C84.3915 105.571 85.5697 105.467 86.6405 105.067C87.7112 104.668 88.6264 103.992 89.2703 103.125C89.9141 102.258 90.2578 101.238 90.2578 100.195C90.256 98.7974 89.6382 97.4572 88.54 96.4686C87.4418 95.48 85.9528 94.9238 84.3996 94.9219ZM84.3996 101.25C84.1678 101.25 83.9411 101.189 83.7482 101.073C83.5554 100.957 83.405 100.792 83.3161 100.6C83.2272 100.407 83.2039 100.195 83.2489 99.9902C83.294 99.7855 83.4055 99.5975 83.5694 99.4499C83.7332 99.3023 83.942 99.2017 84.1694 99.161C84.3967 99.1202 84.6324 99.141 84.8466 99.2208C85.0608 99.3006 85.2439 99.4358 85.3727 99.6093C85.5016 99.7827 85.5703 99.9867 85.5703 100.195C85.5701 100.475 85.4467 100.743 85.2273 100.941C85.0078 101.138 84.7101 101.25 84.3996 101.25Z" fill="#2356FE"/>
<path d="M63.3047 113.898C62.1458 113.898 61.013 114.208 60.0494 114.787C59.0858 115.367 58.3348 116.19 57.8913 117.154C57.4478 118.117 57.3318 119.178 57.5579 120.201C57.784 121.224 58.342 122.163 59.1615 122.901C59.9809 123.638 61.025 124.141 62.1616 124.344C63.2982 124.547 64.4763 124.443 65.547 124.044C66.6176 123.645 67.5327 122.969 68.1766 122.102C68.8204 121.234 69.1641 120.215 69.1641 119.172C69.1625 117.774 68.5447 116.433 67.4462 115.445C66.3477 114.456 64.8582 113.9 63.3047 113.898ZM63.3047 120.227C63.0729 120.227 62.8463 120.165 62.6536 120.049C62.4609 119.933 62.3107 119.768 62.222 119.575C62.1333 119.383 62.1101 119.171 62.1553 118.966C62.2006 118.762 62.3122 118.574 62.476 118.426C62.6399 118.279 62.8487 118.178 63.0761 118.137C63.3034 118.097 63.539 118.118 63.7531 118.197C63.9673 118.277 64.1503 118.412 64.2791 118.586C64.4078 118.759 64.4766 118.963 64.4766 119.172C64.4764 119.452 64.3529 119.72 64.1332 119.918C63.9134 120.115 63.6154 120.226 63.3047 120.227Z" fill="#2356FE"/>
<path d="M72.6792 93.8586C74.6206 93.8586 76.1944 92.4422 76.1944 90.6949C76.1944 88.9477 74.6206 87.5312 72.6792 87.5312C70.7379 87.5312 69.1641 88.9477 69.1641 90.6949C69.1641 92.4422 70.7379 93.8586 72.6792 93.8586Z" fill="#2356FE"/>
<path d="M93.9528 120.773C95.2471 120.773 96.2963 119.829 96.2963 118.664C96.2963 117.499 95.2471 116.555 93.9528 116.555C92.6586 116.555 91.6094 117.499 91.6094 118.664C91.6094 119.829 92.6586 120.773 93.9528 120.773Z" fill="#2356FE"/>
<path d="M80.8825 127.085C82.1768 127.085 83.226 126.141 83.226 124.976C83.226 123.811 82.1768 122.867 80.8825 122.867C79.5883 122.867 78.5391 123.811 78.5391 124.976C78.5391 126.141 79.5883 127.085 80.8825 127.085Z" fill="#2356FE"/>
<path d="M3.5245 148.176H2.7468C2.7326 148.075 2.7036 147.986 2.6598 147.908C2.616 147.828 2.55978 147.761 2.49112 147.705C2.42247 147.65 2.34316 147.607 2.2532 147.577C2.16442 147.548 2.06795 147.533 1.96378 147.533C1.77557 147.533 1.61162 147.58 1.47195 147.673C1.33227 147.766 1.22396 147.901 1.14702 148.078C1.07008 148.254 1.03161 148.469 1.03161 148.721C1.03161 148.98 1.07008 149.198 1.14702 149.374C1.22514 149.551 1.33404 149.684 1.47372 149.774C1.6134 149.864 1.77498 149.909 1.95845 149.909C2.06143 149.909 2.15672 149.895 2.24432 149.868C2.3331 149.841 2.41181 149.801 2.48047 149.749C2.54912 149.696 2.60594 149.631 2.65092 149.555C2.69709 149.48 2.72905 149.393 2.7468 149.296L3.5245 149.3C3.50438 149.467 3.45407 149.628 3.37358 149.783C3.29427 149.937 3.18714 150.074 3.0522 150.196C2.91844 150.317 2.75864 150.413 2.5728 150.484C2.38814 150.554 2.17921 150.589 1.94602 150.589C1.62169 150.589 1.33168 150.515 1.07599 150.369C0.821496 150.222 0.620265 150.009 0.472301 149.731C0.325521 149.453 0.252131 149.116 0.252131 148.721C0.252131 148.324 0.326705 147.987 0.475852 147.709C0.625 147.431 0.827415 147.219 1.0831 147.073C1.33878 146.926 1.62642 146.853 1.94602 146.853C2.15672 146.853 2.35204 146.883 2.53196 146.942C2.71307 147.001 2.87346 147.087 3.01314 147.201C3.15282 147.313 3.26645 147.451 3.35405 147.615C3.44283 147.778 3.49964 147.965 3.5245 148.176ZM4.06161 150.539V147.812H4.79492V148.288H4.82333C4.87305 148.118 4.9565 147.991 5.07369 147.904C5.19087 147.817 5.32582 147.773 5.47852 147.773C5.51639 147.773 5.55723 147.775 5.60103 147.78C5.64483 147.785 5.6833 147.791 5.71644 147.799V148.471C5.68093 148.46 5.63181 148.45 5.56907 148.442C5.50633 148.434 5.44892 148.43 5.39684 148.43C5.28557 148.43 5.18614 148.454 5.09854 148.502C5.01213 148.55 4.94348 148.616 4.89258 148.701C4.84286 148.787 4.818 148.885 4.818 148.996V150.539H4.06161ZM7.22346 150.592C6.94292 150.592 6.70144 150.536 6.49902 150.422C6.29779 150.307 6.14273 150.145 6.03382 149.935C5.92492 149.725 5.87047 149.475 5.87047 149.188C5.87047 148.907 5.92492 148.661 6.03382 148.449C6.14273 148.237 6.29602 148.072 6.4937 147.954C6.69256 147.835 6.92575 147.776 7.19327 147.776C7.37319 147.776 7.54069 147.805 7.69576 147.863C7.85201 147.92 7.98813 148.006 8.10414 148.121C8.22132 148.236 8.31247 148.38 8.37757 148.554C8.44268 148.727 8.47523 148.929 8.47523 149.161V149.369H6.17232V148.9H7.76323C7.76323 148.791 7.73955 148.695 7.69221 148.611C7.64486 148.527 7.57916 148.461 7.49512 148.414C7.41226 148.365 7.31578 148.341 7.2057 148.341C7.09088 148.341 6.98908 148.368 6.9003 148.421C6.81271 148.473 6.74405 148.543 6.69434 148.632C6.64462 148.72 6.61917 148.817 6.61799 148.925V149.371C6.61799 149.506 6.64284 149.622 6.69256 149.721C6.74346 149.819 6.81507 149.895 6.9074 149.948C6.99973 150.001 7.10923 150.028 7.23588 150.028C7.31993 150.028 7.39687 150.016 7.46671 149.992C7.53655 149.969 7.59632 149.933 7.64604 149.886C7.69576 149.838 7.73364 149.78 7.75968 149.712L8.45925 149.758C8.42374 149.926 8.35094 150.073 8.24086 150.198C8.13195 150.322 7.99109 150.42 7.81827 150.489C7.64663 150.558 7.44836 150.592 7.22346 150.592ZM9.74654 150.591C9.57253 150.591 9.41747 150.56 9.28134 150.5C9.14521 150.438 9.03749 150.348 8.95819 150.228C8.88006 150.108 8.841 149.957 8.841 149.777C8.841 149.626 8.86882 149.499 8.92445 149.396C8.98008 149.293 9.05584 149.21 9.15172 149.147C9.2476 149.084 9.3565 149.037 9.47843 149.005C9.60153 148.973 9.73056 148.951 9.8655 148.938C10.0241 148.921 10.152 148.906 10.249 148.891C10.3461 148.876 10.4165 148.853 10.4603 148.824C10.5041 148.794 10.526 148.75 10.526 148.692V148.682C10.526 148.569 10.4905 148.482 10.4195 148.421C10.3496 148.359 10.2502 148.328 10.1212 148.328C9.98506 148.328 9.87675 148.359 9.79625 148.419C9.71576 148.478 9.66249 148.553 9.63645 148.643L8.93688 148.586C8.97239 148.42 9.04223 148.277 9.1464 148.156C9.25056 148.034 9.38491 147.941 9.54945 147.876C9.71517 147.809 9.90693 147.776 10.1247 147.776C10.2762 147.776 10.4213 147.794 10.5597 147.83C10.6994 147.865 10.8231 147.92 10.9308 147.995C11.0397 148.069 11.1256 148.165 11.1883 148.282C11.251 148.398 11.2824 148.537 11.2824 148.7V150.539H10.5651V150.161H10.5438C10.5 150.246 10.4414 150.321 10.368 150.386C10.2946 150.45 10.2064 150.501 10.1034 150.537C10.0004 150.573 9.88148 150.591 9.74654 150.591ZM9.96316 150.069C10.0744 150.069 10.1727 150.047 10.2579 150.003C10.3431 149.958 10.41 149.897 10.4585 149.822C10.5071 149.746 10.5313 149.66 10.5313 149.564V149.275C10.5077 149.29 10.4751 149.304 10.4337 149.317C10.3934 149.329 10.3479 149.341 10.297 149.351C10.2461 149.361 10.1952 149.37 10.1443 149.378C10.0934 149.385 10.0472 149.391 10.0058 149.397C9.91699 149.41 9.83946 149.431 9.77317 149.46C9.70688 149.488 9.65539 149.526 9.6187 149.575C9.582 149.622 9.56365 149.681 9.56365 149.752C9.56365 149.855 9.60094 149.934 9.67551 149.989C9.75127 150.042 9.84715 150.069 9.96316 150.069ZM13.3199 147.812V148.38H11.6775V147.812H13.3199ZM12.0503 147.158H12.8067V149.701C12.8067 149.771 12.8174 149.825 12.8387 149.864C12.86 149.902 12.8896 149.929 12.9275 149.944C12.9665 149.96 13.0115 149.967 13.0624 149.967C13.0979 149.967 13.1334 149.964 13.1689 149.958C13.2045 149.951 13.2317 149.946 13.2506 149.942L13.3696 150.505C13.3317 150.517 13.2784 150.531 13.2098 150.546C13.1411 150.563 13.0577 150.573 12.9594 150.576C12.7771 150.583 12.6173 150.559 12.48 150.504C12.3439 150.448 12.238 150.362 12.1622 150.244C12.0864 150.127 12.0492 149.979 12.0503 149.8V147.158ZM15.0262 150.592C14.7456 150.592 14.5042 150.536 14.3018 150.422C14.1005 150.307 13.9455 150.145 13.8366 149.935C13.7277 149.725 13.6732 149.475 13.6732 149.188C13.6732 148.907 13.7277 148.661 13.8366 148.449C13.9455 148.237 14.0988 148.072 14.2964 147.954C14.4953 147.835 14.7285 147.776 14.996 147.776C15.1759 147.776 15.3434 147.805 15.4985 147.863C15.6547 147.92 15.7909 148.006 15.9069 148.121C16.0241 148.236 16.1152 148.38 16.1803 148.554C16.2454 148.727 16.278 148.929 16.278 149.161V149.369H13.9751V148.9H15.566C15.566 148.791 15.5423 148.695 15.4949 148.611C15.4476 148.527 15.3819 148.461 15.2979 148.414C15.215 148.365 15.1185 148.341 15.0084 148.341C14.8936 148.341 14.7918 148.368 14.703 148.421C14.6154 148.473 14.5468 148.543 14.4971 148.632C14.4474 148.72 14.4219 148.817 14.4207 148.925V149.371C14.4207 149.506 14.4456 149.622 14.4953 149.721C14.5462 149.819 14.6178 149.895 14.7101 149.948C14.8025 150.001 14.912 150.028 15.0386 150.028C15.1227 150.028 15.1996 150.016 15.2694 149.992C15.3393 149.969 15.3991 149.933 15.4488 149.886C15.4985 149.838 15.5364 149.78 15.5624 149.712L16.262 149.758C16.2265 149.926 16.1537 150.073 16.0436 150.198C15.9347 150.322 15.7938 150.42 15.621 150.489C15.4494 150.558 15.2511 150.592 15.0262 150.592ZM17.7765 150.583C17.5694 150.583 17.3818 150.53 17.2137 150.424C17.0468 150.316 16.9142 150.158 16.816 149.95C16.7189 149.74 16.6704 149.483 16.6704 149.179C16.6704 148.866 16.7207 148.607 16.8213 148.4C16.9219 148.191 17.0557 148.036 17.2226 147.933C17.3907 147.828 17.5747 147.776 17.7748 147.776C17.9275 147.776 18.0547 147.802 18.1565 147.854C18.2595 147.905 18.3424 147.969 18.4051 148.046C18.469 148.122 18.5175 148.196 18.5507 148.27H18.5738V146.903H19.3284V150.539H18.5827V150.102H18.5507C18.5152 150.178 18.4649 150.253 18.3998 150.328C18.3358 150.401 18.2524 150.462 18.1494 150.511C18.0476 150.559 17.9233 150.583 17.7765 150.583ZM18.0162 149.982C18.1382 149.982 18.2412 149.948 18.3252 149.882C18.4104 149.815 18.4755 149.721 18.5205 149.6C18.5667 149.479 18.5898 149.338 18.5898 149.175C18.5898 149.013 18.5673 148.872 18.5223 148.753C18.4773 148.633 18.4122 148.541 18.327 148.476C18.2417 148.411 18.1382 148.378 18.0162 148.378C17.892 148.378 17.7872 148.412 17.702 148.479C17.6167 148.547 17.5522 148.64 17.5084 148.76C17.4646 148.879 17.4427 149.018 17.4427 149.175C17.4427 149.334 17.4646 149.474 17.5084 149.596C17.5534 149.717 17.6179 149.812 17.702 149.88C17.7872 149.948 17.892 149.982 18.0162 149.982ZM21.1217 150.539V146.903H21.8781V148.27H21.9012C21.9343 148.196 21.9823 148.122 22.045 148.046C22.1089 147.969 22.1918 147.905 22.2936 147.854C22.3966 147.802 22.5244 147.776 22.6771 147.776C22.876 147.776 23.0595 147.828 23.2275 147.933C23.3956 148.036 23.53 148.191 23.6306 148.4C23.7312 148.607 23.7815 148.866 23.7815 149.179C23.7815 149.483 23.7324 149.74 23.6341 149.95C23.5371 150.158 23.4045 150.316 23.2364 150.424C23.0695 150.53 22.8825 150.583 22.6753 150.583C22.5286 150.583 22.4037 150.559 22.3007 150.511C22.1989 150.462 22.1154 150.401 22.0503 150.328C21.9852 150.253 21.9355 150.178 21.9012 150.102H21.8675V150.539H21.1217ZM21.8621 149.175C21.8621 149.338 21.8846 149.479 21.9296 149.6C21.9746 149.721 22.0397 149.815 22.1249 149.882C22.2101 149.948 22.3137 149.982 22.4356 149.982C22.5587 149.982 22.6629 149.948 22.7481 149.88C22.8334 149.812 22.8979 149.717 22.9417 149.596C22.9867 149.474 23.0091 149.334 23.0091 149.175C23.0091 149.018 22.9872 148.879 22.9434 148.76C22.8997 148.64 22.8351 148.547 22.7499 148.479C22.6647 148.412 22.5599 148.378 22.4356 148.378C22.3125 148.378 22.2084 148.411 22.1231 148.476C22.0391 148.541 21.9746 148.633 21.9296 148.753C21.8846 148.872 21.8621 149.013 21.8621 149.175ZM24.6653 151.562C24.5694 151.562 24.4795 151.554 24.3954 151.539C24.3126 151.525 24.2439 151.506 24.1895 151.484L24.3599 150.919C24.4487 150.946 24.5286 150.961 24.5996 150.963C24.6718 150.966 24.734 150.949 24.786 150.914C24.8393 150.878 24.8825 150.818 24.9157 150.733L24.96 150.617L23.9817 147.812H24.7772L25.3418 149.815H25.3702L25.9402 147.812H26.7409L25.6809 150.834C25.63 150.981 25.5608 151.108 25.4732 151.217C25.3868 151.327 25.2773 151.412 25.1447 151.471C25.0121 151.532 24.8523 151.562 24.6653 151.562ZM31.5079 148.176H30.7302C30.716 148.075 30.687 147.986 30.6432 147.908C30.5994 147.828 30.5432 147.761 30.4745 147.705C30.4059 147.65 30.3266 147.607 30.2366 147.577C30.1478 147.548 30.0513 147.533 29.9472 147.533C29.759 147.533 29.595 147.58 29.4553 147.673C29.3157 147.766 29.2074 147.901 29.1304 148.078C29.0535 148.254 29.015 148.469 29.015 148.721C29.015 148.98 29.0535 149.198 29.1304 149.374C29.2085 149.551 29.3174 149.684 29.4571 149.774C29.5968 149.864 29.7584 149.909 29.9419 149.909C30.0448 149.909 30.1401 149.895 30.2277 149.868C30.3165 149.841 30.3952 149.801 30.4639 149.749C30.5325 149.696 30.5893 149.631 30.6343 149.555C30.6805 149.48 30.7124 149.393 30.7302 149.296L31.5079 149.3C31.4878 149.467 31.4375 149.628 31.357 149.783C31.2777 149.937 31.1705 150.074 31.0356 150.196C30.9018 150.317 30.742 150.413 30.5562 150.484C30.3715 150.554 30.1626 150.589 29.9294 150.589C29.6051 150.589 29.3151 150.515 29.0594 150.369C28.8049 150.222 28.6037 150.009 28.4557 149.731C28.3089 149.453 28.2355 149.116 28.2355 148.721C28.2355 148.324 28.3101 147.987 28.4593 147.709C28.6084 147.431 28.8108 147.219 29.0665 147.073C29.3222 146.926 29.6098 146.853 29.9294 146.853C30.1401 146.853 30.3354 146.883 30.5154 146.942C30.6965 147.001 30.8569 147.087 30.9965 147.201C31.1362 147.313 31.2499 147.451 31.3374 147.615C31.4262 147.778 31.483 147.965 31.5079 148.176ZM32.045 150.539V147.812H32.7783V148.288H32.8067C32.8564 148.118 32.9399 147.991 33.0571 147.904C33.1743 147.817 33.3092 147.773 33.4619 147.773C33.4998 147.773 33.5406 147.775 33.5844 147.78C33.6282 147.785 33.6667 147.791 33.6998 147.799V148.471C33.6643 148.46 33.6152 148.45 33.5525 148.442C33.4897 148.434 33.4323 148.43 33.3802 148.43C33.269 148.43 33.1695 148.454 33.0819 148.502C32.9955 148.55 32.9269 148.616 32.876 148.701C32.8263 148.787 32.8014 148.885 32.8014 148.996V150.539H32.045ZM35.2069 150.592C34.9263 150.592 34.6848 150.536 34.4824 150.422C34.2812 150.307 34.1261 150.145 34.0172 149.935C33.9083 149.725 33.8539 149.475 33.8539 149.188C33.8539 148.907 33.9083 148.661 34.0172 148.449C34.1261 148.237 34.2794 148.072 34.4771 147.954C34.676 147.835 34.9092 147.776 35.1767 147.776C35.3566 147.776 35.5241 147.805 35.6792 147.863C35.8354 147.92 35.9715 148.006 36.0875 148.121C36.2047 148.236 36.2959 148.38 36.361 148.554C36.4261 148.727 36.4586 148.929 36.4586 149.161V149.369H34.1557V148.9H35.7466C35.7466 148.791 35.723 148.695 35.6756 148.611C35.6283 148.527 35.5626 148.461 35.4785 148.414C35.3957 148.365 35.2992 148.341 35.1891 148.341C35.0743 148.341 34.9725 148.368 34.8837 148.421C34.7961 148.473 34.7275 148.543 34.6777 148.632C34.628 148.72 34.6026 148.817 34.6014 148.925V149.371C34.6014 149.506 34.6262 149.622 34.676 149.721C34.7269 149.819 34.7985 149.895 34.8908 149.948C34.9831 150.001 35.0926 150.028 35.2193 150.028C35.3033 150.028 35.3803 150.016 35.4501 149.992C35.5199 149.969 35.5797 149.933 35.6294 149.886C35.6792 149.838 35.717 149.78 35.7431 149.712L36.4426 149.758C36.4071 149.926 36.3343 150.073 36.2243 150.198C36.1154 150.322 35.9745 150.42 35.8017 150.489C35.63 150.558 35.4318 150.592 35.2069 150.592ZM37.7299 150.591C37.5559 150.591 37.4009 150.56 37.2647 150.5C37.1286 150.438 37.0209 150.348 36.9416 150.228C36.8635 150.108 36.8244 149.957 36.8244 149.777C36.8244 149.626 36.8522 149.499 36.9078 149.396C36.9635 149.293 37.0392 149.21 37.1351 149.147C37.231 149.084 37.3399 149.037 37.4618 149.005C37.5849 148.973 37.714 148.951 37.8489 148.938C38.0075 148.921 38.1354 148.906 38.2324 148.891C38.3295 148.876 38.3999 148.853 38.4437 148.824C38.4875 148.794 38.5094 148.75 38.5094 148.692V148.682C38.5094 148.569 38.4739 148.482 38.4029 148.421C38.333 148.359 38.2336 148.328 38.1046 148.328C37.9685 148.328 37.8601 148.359 37.7797 148.419C37.6992 148.478 37.6459 148.553 37.6199 148.643L36.9203 148.586C36.9558 148.42 37.0256 148.277 37.1298 148.156C37.234 148.034 37.3683 147.941 37.5328 147.876C37.6986 147.809 37.8903 147.776 38.1081 147.776C38.2596 147.776 38.4047 147.794 38.5431 147.83C38.6828 147.865 38.8065 147.92 38.9142 147.995C39.0231 148.069 39.109 148.165 39.1717 148.282C39.2344 148.398 39.2658 148.537 39.2658 148.7V150.539H38.5485V150.161H38.5272C38.4834 150.246 38.4248 150.321 38.3514 150.386C38.278 150.45 38.1898 150.501 38.0868 150.537C37.9838 150.573 37.8649 150.591 37.7299 150.591ZM37.9466 150.069C38.0578 150.069 38.1561 150.047 38.2413 150.003C38.3265 149.958 38.3934 149.897 38.4419 149.822C38.4905 149.746 38.5147 149.66 38.5147 149.564V149.275C38.4911 149.29 38.4585 149.304 38.4171 149.317C38.3768 149.329 38.3313 149.341 38.2804 149.351C38.2295 149.361 38.1786 149.37 38.1277 149.378C38.0768 149.385 38.0306 149.391 37.9892 149.397C37.9004 149.41 37.8229 149.431 37.7566 149.46C37.6903 149.488 37.6388 149.526 37.6021 149.575C37.5654 149.622 37.5471 149.681 37.5471 149.752C37.5471 149.855 37.5843 149.934 37.6589 149.989C37.7347 150.042 37.8306 150.069 37.9466 150.069ZM41.3033 147.812V148.38H39.6609V147.812H41.3033ZM40.0337 147.158H40.7901V149.701C40.7901 149.771 40.8008 149.825 40.8221 149.864C40.8434 149.902 40.873 149.929 40.9109 149.944C40.9499 149.96 40.9949 149.967 41.0458 149.967C41.0813 149.967 41.1168 149.964 41.1523 149.958C41.1879 149.951 41.2151 149.946 41.234 149.942L41.353 150.505C41.3151 150.517 41.2618 150.531 41.1932 150.546C41.1245 150.563 41.0411 150.573 40.9428 150.576C40.7605 150.583 40.6007 150.559 40.4634 150.504C40.3273 150.448 40.2214 150.362 40.1456 150.244C40.0698 150.127 40.0326 149.979 40.0337 149.8V147.158ZM41.796 150.539V147.812H42.5524V150.539H41.796ZM42.176 147.46C42.0635 147.46 41.967 147.423 41.8865 147.348C41.8072 147.273 41.7676 147.182 41.7676 147.077C41.7676 146.973 41.8072 146.883 41.8865 146.809C41.967 146.733 42.0635 146.695 42.176 146.695C42.2884 146.695 42.3843 146.733 42.4636 146.809C42.5441 146.883 42.5843 146.973 42.5843 147.077C42.5843 147.182 42.5441 147.273 42.4636 147.348C42.3843 147.423 42.2884 147.46 42.176 147.46ZM45.7009 147.812L44.7474 150.539H43.8952L42.9417 147.812H43.7407L44.3071 149.763H44.3355L44.9001 147.812H45.7009ZM47.243 150.592C46.9624 150.592 46.721 150.536 46.5186 150.422C46.3173 150.307 46.1623 150.145 46.0534 149.935C45.9445 149.725 45.89 149.475 45.89 149.188C45.89 148.907 45.9445 148.661 46.0534 148.449C46.1623 148.237 46.3155 148.072 46.5132 147.954C46.7121 147.835 46.9453 147.776 47.2128 147.776C47.3927 147.776 47.5602 147.805 47.7153 147.863C47.8715 147.92 48.0077 148.006 48.1237 148.121C48.2409 148.236 48.332 148.38 48.3971 148.554C48.4622 148.727 48.4948 148.929 48.4948 149.161V149.369H46.1919V148.9H47.7828C47.7828 148.791 47.7591 148.695 47.7117 148.611C47.6644 148.527 47.5987 148.461 47.5146 148.414C47.4318 148.365 47.3353 148.341 47.2252 148.341C47.1104 148.341 47.0086 148.368 46.9198 148.421C46.8322 148.473 46.7636 148.543 46.7139 148.632C46.6642 148.72 46.6387 148.817 46.6375 148.925V149.371C46.6375 149.506 46.6624 149.622 46.7121 149.721C46.763 149.819 46.8346 149.895 46.9269 149.948C47.0193 150.001 47.1288 150.028 47.2554 150.028C47.3395 150.028 47.4164 150.016 47.4862 149.992C47.5561 149.969 47.6159 149.933 47.6656 149.886C47.7153 149.838 47.7532 149.78 47.7792 149.712L48.4788 149.758C48.4433 149.926 48.3705 150.073 48.2604 150.198C48.1515 150.322 48.0106 150.42 47.8378 150.489C47.6662 150.558 47.4679 150.592 47.243 150.592ZM50.1598 146.903H51.108L52.1094 149.346H52.152L53.1534 146.903H54.1016V150.539H53.3558V148.172H53.3256L52.3846 150.521H51.8768L50.9357 148.163H50.9055V150.539H50.1598V146.903ZM55.4985 150.591C55.3245 150.591 55.1694 150.56 55.0333 150.5C54.8972 150.438 54.7894 150.348 54.7101 150.228C54.632 150.108 54.593 149.957 54.593 149.777C54.593 149.626 54.6208 149.499 54.6764 149.396C54.732 149.293 54.8078 149.21 54.9037 149.147C54.9996 149.084 55.1085 149.037 55.2304 149.005C55.3535 148.973 55.4825 148.951 55.6175 148.938C55.7761 148.921 55.9039 148.906 56.001 148.891C56.098 148.876 56.1685 148.853 56.2123 148.824C56.2561 148.794 56.278 148.75 56.278 148.692V148.682C56.278 148.569 56.2425 148.482 56.1714 148.421C56.1016 148.359 56.0022 148.328 55.8731 148.328C55.737 148.328 55.6287 148.359 55.5482 148.419C55.4677 148.478 55.4144 148.553 55.3884 148.643L54.6888 148.586C54.7243 148.42 54.7942 148.277 54.8983 148.156C55.0025 148.034 55.1369 147.941 55.3014 147.876C55.4671 147.809 55.6589 147.776 55.8767 147.776C56.0282 147.776 56.1732 147.794 56.3117 147.83C56.4514 147.865 56.5751 147.92 56.6828 147.995C56.7917 148.069 56.8775 148.165 56.9403 148.282C57.003 148.398 57.0344 148.537 57.0344 148.7V150.539H56.317V150.161H56.2957C56.2519 150.246 56.1933 150.321 56.1199 150.386C56.0465 150.45 55.9584 150.501 55.8554 150.537C55.7524 150.573 55.6334 150.591 55.4985 150.591ZM55.7151 150.069C55.8264 150.069 55.9246 150.047 56.0099 150.003C56.0951 149.958 56.162 149.897 56.2105 149.822C56.259 149.746 56.2833 149.66 56.2833 149.564V149.275C56.2596 149.29 56.2271 149.304 56.1856 149.317C56.1454 149.329 56.0998 149.341 56.0489 149.351C55.998 149.361 55.9471 149.37 55.8962 149.378C55.8453 149.385 55.7992 149.391 55.7577 149.397C55.6689 149.41 55.5914 149.431 55.5251 149.46C55.4588 149.488 55.4073 149.526 55.3706 149.575C55.334 149.622 55.3156 149.681 55.3156 149.752C55.3156 149.855 55.3529 149.934 55.4275 149.989C55.5032 150.042 55.5991 150.069 55.7151 150.069ZM58.3776 148.962V150.539H57.6212V146.903H58.3563V148.293H58.3882C58.4498 148.132 58.5492 148.006 58.6865 147.915C58.8238 147.822 58.9961 147.776 59.2032 147.776C59.3926 147.776 59.5577 147.818 59.6986 147.901C59.8406 147.982 59.9507 148.1 60.0289 148.254C60.1082 148.407 60.1472 148.589 60.146 148.803V150.539H59.3896V148.938C59.3908 148.769 59.3482 148.639 59.2618 148.545C59.1766 148.452 59.057 148.405 58.9031 148.405C58.8002 148.405 58.709 148.427 58.6297 148.471C58.5516 148.514 58.49 148.578 58.445 148.662C58.4012 148.745 58.3788 148.845 58.3776 148.962ZM60.7413 150.539V147.812H61.4977V150.539H60.7413ZM61.1213 147.46C61.0088 147.46 60.9123 147.423 60.8319 147.348C60.7525 147.273 60.7129 147.182 60.7129 147.077C60.7129 146.973 60.7525 146.883 60.8319 146.809C60.9123 146.733 61.0088 146.695 61.1213 146.695C61.2337 146.695 61.3296 146.733 61.4089 146.809C61.4894 146.883 61.5297 146.973 61.5297 147.077C61.5297 147.182 61.4894 147.273 61.4089 147.348C61.3296 147.423 61.2337 147.46 61.1213 147.46ZM62.1036 150.539V147.812H62.8369V148.288H62.8653C62.915 148.118 62.9985 147.991 63.1157 147.904C63.2329 147.817 63.3678 147.773 63.5205 147.773C63.5584 147.773 63.5992 147.775 63.643 147.78C63.6868 147.785 63.7253 147.791 63.7584 147.799V148.471C63.7229 148.46 63.6738 148.45 63.6111 148.442C63.5483 148.434 63.4909 148.43 63.4388 148.43C63.3276 148.43 63.2281 148.454 63.1405 148.502C63.0541 148.55 62.9855 148.616 62.9346 148.701C62.8849 148.787 62.86 148.885 62.86 148.996V150.539H62.1036ZM64.8491 150.591C64.6751 150.591 64.52 150.56 64.3839 150.5C64.2478 150.438 64.14 150.348 64.0607 150.228C63.9826 150.108 63.9435 149.957 63.9435 149.777C63.9435 149.626 63.9714 149.499 64.027 149.396C64.0826 149.293 64.1584 149.21 64.2543 149.147C64.3501 149.084 64.459 149.037 64.581 149.005C64.7041 148.973 64.8331 148.951 64.968 148.938C65.1267 148.921 65.2545 148.906 65.3516 148.891C65.4486 148.876 65.5191 148.853 65.5629 148.824C65.6067 148.794 65.6286 148.75 65.6286 148.692V148.682C65.6286 148.569 65.593 148.482 65.522 148.421C65.4522 148.359 65.3527 148.328 65.2237 148.328C65.0876 148.328 64.9793 148.359 64.8988 148.419C64.8183 148.478 64.765 148.553 64.739 148.643L64.0394 148.586C64.0749 148.42 64.1448 148.277 64.2489 148.156C64.3531 148.034 64.4875 147.941 64.652 147.876C64.8177 147.809 65.0095 147.776 65.2273 147.776C65.3788 147.776 65.5238 147.794 65.6623 147.83C65.802 147.865 65.9257 147.92 66.0334 147.995C66.1423 148.069 66.2281 148.165 66.2908 148.282C66.3536 148.398 66.3849 148.537 66.3849 148.7V150.539H65.6676V150.161H65.6463C65.6025 150.246 65.5439 150.321 65.4705 150.386C65.3971 150.45 65.3089 150.501 65.206 150.537C65.103 150.573 64.984 150.591 64.8491 150.591ZM65.0657 150.069C65.177 150.069 65.2752 150.047 65.3604 150.003C65.4457 149.958 65.5125 149.897 65.5611 149.822C65.6096 149.746 65.6339 149.66 65.6339 149.564V149.275C65.6102 149.29 65.5777 149.304 65.5362 149.317C65.496 149.329 65.4504 149.341 65.3995 149.351C65.3486 149.361 65.2977 149.37 65.2468 149.378C65.1959 149.385 65.1497 149.391 65.1083 149.397C65.0195 149.41 64.942 149.431 64.8757 149.46C64.8094 149.488 64.7579 149.526 64.7212 149.575C64.6845 149.622 64.6662 149.681 64.6662 149.752C64.6662 149.855 64.7035 149.934 64.7781 149.989C64.8538 150.042 64.9497 150.069 65.0657 150.069Z" fill="#2356FE"/>
</g>
<defs>
<clipPath id="clip0_2208_13750">
<rect width="150" height="150" fill="white"/>
</clipPath>
</defs>
</svg>
