<svg width="150" height="150" viewBox="0 0 150 150" fill="none" xmlns="http://www.w3.org/2000/svg">
<g opacity="0.5" clip-path="url(#clip0_2202_13869)">
<path fill-rule="evenodd" clip-rule="evenodd" d="M121.05 65.8381C124.16 65.8381 126.68 68.3588 126.68 71.4682C126.68 72.8521 126.171 74.1875 125.249 75.2195L106.375 96.3421L109.282 125.051C109.595 128.145 107.341 130.907 104.248 131.22C103.279 131.318 102.301 131.163 101.41 130.771L75.0043 119.134L48.5984 130.771C45.753 132.024 42.4299 130.734 41.176 127.889C40.7834 126.998 40.6285 126.02 40.7266 125.051L43.6334 96.3421L24.76 75.2195C22.6882 72.9008 22.8883 69.3417 25.207 67.2699C26.239 66.3478 27.5744 65.8381 28.9583 65.8381H121.05ZM75.012 18.75C84.9056 18.75 92.9259 26.7704 92.9259 36.664C92.9259 46.5576 84.9056 54.5779 75.012 54.5779C65.1184 54.5779 57.098 46.5576 57.098 36.664C57.098 26.7704 65.1184 18.75 75.012 18.75Z" fill="#2356FE"/>
</g>
<defs>
<clipPath id="clip0_2202_13869">
<rect width="150" height="150" fill="white"/>
</clipPath>
</defs>
</svg>
