<svg width="150" height="150" viewBox="0 0 150 150" fill="none" xmlns="http://www.w3.org/2000/svg">
<g opacity="0.5" clip-path="url(#clip0_2202_13854)">
<path d="M59.7575 42.1826V15.3266C59.7575 11.272 63.082 7.97656 67.181 7.97656H108.569C112.668 7.97656 115.992 11.2735 115.992 15.3266V42.1826C115.992 46.2372 112.668 49.5326 108.569 49.5326H101.569C100.674 49.5326 99.9453 50.2493 99.9453 51.1372V61.7205C99.9453 63.7008 97.6968 64.8266 96.0881 63.669L76.8208 49.8387C76.5483 49.6402 76.2131 49.5341 75.8642 49.5341H67.1795C63.082 49.5326 59.7575 46.2372 59.7575 42.1826ZM102.679 95.6629C102.679 103.18 108.858 109.298 116.45 109.298C124.042 109.298 130.221 103.18 130.221 95.6629C130.221 88.1493 124.042 82.0311 116.45 82.0311C108.858 82.0311 102.679 88.1493 102.679 95.6629ZM33.5825 109.299C41.1744 109.299 47.3534 103.181 47.3534 95.6644C47.3534 88.1508 41.1744 82.0326 33.5825 82.0326C25.9754 82.0326 19.7963 88.1508 19.7963 95.6644C19.7978 103.181 25.9769 109.299 33.5825 109.299ZM116.45 112.508C100.509 112.508 87.4356 124.924 86.5861 140.501H146.298C145.463 124.924 132.391 112.508 116.45 112.508ZM67.1825 52.7432C61.3065 52.7432 56.5096 48.0054 56.5096 42.1826V32.316H43.7718C40.8866 32.316 38.5494 34.6296 38.5494 37.4735V57.7629C38.5494 60.6069 40.8881 62.9205 43.7718 62.9205H49.0555C49.9509 62.9205 50.6795 63.6387 50.6795 64.525V72.5205C50.6795 73.6963 52.0142 74.3675 52.9723 73.6766L67.5177 63.2281C67.7917 63.0296 68.1254 62.9205 68.4744 62.9205H75.033C77.9182 62.9205 80.2555 60.6069 80.2555 57.7629V56.2599L75.3514 52.7417L67.1825 52.7432ZM33.5825 112.508C17.6259 112.508 4.56824 124.924 3.71875 140.501H63.4325C62.5815 124.924 49.5101 112.508 33.5825 112.508Z" fill="#2356FE"/>
</g>
<defs>
<clipPath id="clip0_2202_13854">
<rect width="150" height="150" fill="white"/>
</clipPath>
</defs>
</svg>
