<svg width="150" height="150" viewBox="0 0 150 150" fill="none" xmlns="http://www.w3.org/2000/svg">
<path d="M128.473 46.896H124.037C125.695 44.0502 126.567 40.8147 126.562 37.521C126.564 34.3479 125.761 31.2263 124.227 28.4485C122.693 25.6707 120.48 23.3275 117.793 21.6384C115.107 19.9493 112.036 18.9696 108.868 18.7909C105.7 18.6122 102.539 19.2404 99.6797 20.6167C96.8017 15.9185 92.3606 12.3844 87.1362 10.6349C81.9117 8.88537 76.2379 9.03231 71.1111 11.0499C65.9842 13.0675 61.732 16.8268 59.1011 21.6677C56.4702 26.5085 55.6288 32.1215 56.7246 37.521H23.4375C20.9511 37.521 18.5665 38.5088 16.8084 40.2669C15.0502 42.0251 14.0625 44.4096 14.0625 46.896V103.146C14.0625 105.632 15.0502 108.017 16.8084 109.775C18.5665 111.533 20.9511 112.521 23.4375 112.521H44.9238C47.7299 119.45 52.5427 125.382 58.7444 129.555C64.9461 133.729 72.2536 135.954 79.7289 135.944C87.2042 135.935 94.506 133.691 100.697 129.502C106.888 125.313 111.686 119.369 114.475 112.433C120.327 111.938 125.781 109.264 129.755 104.94C133.73 100.616 135.936 94.9569 135.938 89.0835V54.3609C135.934 52.382 135.147 50.4851 133.748 49.0859C132.348 47.6866 130.451 46.8991 128.473 46.896ZM79.6875 18.771C82.5967 18.7708 85.4343 19.6729 87.8094 21.353C90.1844 23.033 91.98 25.4083 92.9486 28.1515C93.9172 30.8947 94.0112 33.8708 93.2176 36.6696C92.424 39.4685 90.7819 41.9523 88.5176 43.7789C87.8731 41.951 86.678 40.3678 85.0967 39.2471C83.5154 38.1264 81.6256 37.5234 79.6875 37.521H66.4336C65.6838 35.4003 65.4537 33.1307 65.7625 30.9026C66.0714 28.6746 66.9102 26.5531 68.2086 24.7163C69.507 22.8795 71.2271 21.381 73.2244 20.3465C75.2218 19.312 77.4381 18.7717 79.6875 18.771ZM51.5625 93.771C50.3193 93.771 49.127 93.2772 48.2479 92.3981C47.3689 91.519 46.875 90.3267 46.875 89.0835V65.646H42.1875C40.9443 65.646 39.752 65.1522 38.8729 64.2731C37.9939 63.394 37.5 62.2017 37.5 60.9585C37.5 59.7153 37.9939 58.5231 38.8729 57.644C39.752 56.7649 40.9443 56.271 42.1875 56.271H60.9375C62.1807 56.271 63.373 56.7649 64.2521 57.644C65.1311 58.5231 65.625 59.7153 65.625 60.9585C65.625 62.2017 65.1311 63.394 64.2521 64.2731C63.373 65.1522 62.1807 65.646 60.9375 65.646H56.25V89.0835C56.25 90.3267 55.7561 91.519 54.8771 92.3981C53.998 93.2772 52.8057 93.771 51.5625 93.771ZM107.812 98.4585C107.81 104.648 105.767 110.664 101.998 115.574C98.2292 120.484 92.9461 124.014 86.9675 125.616C80.9889 127.218 74.6487 126.803 68.9299 124.436C63.211 122.068 58.4328 117.88 55.3359 112.521H79.6875C82.1739 112.521 84.5585 111.533 86.3166 109.775C88.0748 108.017 89.0625 105.632 89.0625 103.146V56.271H107.812V98.4585ZM107.812 46.896H98.4375C100.283 44.4396 101.626 41.6434 102.39 38.6674C103.154 35.6914 103.324 32.594 102.891 29.5523C104.124 28.7879 105.518 28.3202 106.963 28.1862C108.408 28.0521 109.864 28.2552 111.217 28.7796C112.57 29.304 113.783 30.1353 114.76 31.208C115.737 32.2808 116.452 33.5657 116.848 34.9616C117.244 36.3576 117.311 37.8264 117.043 39.2525C116.775 40.6786 116.18 42.0231 115.304 43.18C114.428 44.3369 113.295 45.2747 111.995 45.9195C110.695 46.5643 109.264 46.8986 107.812 46.896ZM126.562 89.0835C126.562 92.0295 125.637 94.9011 123.917 97.2928C122.197 99.6846 119.769 101.476 116.977 102.414C117.118 101.1 117.188 99.7797 117.188 98.4585V56.271H126.562V89.0835Z" fill="#2356FE" fill-opacity="0.5"/>
</svg>
