<svg width="182" height="150" viewBox="0 0 182 150" fill="none" xmlns="http://www.w3.org/2000/svg">
<g clip-path="url(#clip0_2208_14166)">
<path d="M52.1675 14.7773C26.091 41.9246 33.7536 78.83 37.0889 108.205C38.2686 118.566 39.4966 128.452 44.8588 134.035C50.221 139.617 59.7122 140.901 69.6752 142.118C97.8858 145.607 133.336 153.573 159.407 126.431C185.483 99.284 174.485 49.3269 125.281 50.3094C126.231 -0.920456 78.244 -12.37 52.1675 14.7773Z" fill="#2356FE" fill-opacity="0.5"/>
<g clip-path="url(#clip1_2208_14166)">
<path fill-rule="evenodd" clip-rule="evenodd" d="M96.7813 84.1953C93.9213 84.1953 91.6795 85.9235 90.2928 87.9963C88.8888 90.0862 88.1146 92.8135 88.1146 95.6786C88.1146 98.5494 88.8888 101.271 90.2928 103.361C91.6795 105.428 93.9213 107.162 96.7813 107.162C99.6413 107.162 101.883 105.434 103.27 103.361C104.674 101.271 105.448 98.5436 105.448 95.6786C105.448 92.8078 104.674 90.0862 103.27 87.9963C101.883 85.9293 99.6413 84.1953 96.7813 84.1953ZM125.67 84.1953C122.81 84.1953 120.568 85.9235 119.182 87.9963C117.778 90.0862 117.003 92.8135 117.003 95.6786C117.003 98.5494 117.778 101.271 119.182 103.361C120.568 105.428 122.81 107.162 125.67 107.162C128.53 107.162 130.772 105.434 132.159 103.361C133.563 101.271 134.337 98.5436 134.337 95.6786C134.337 92.8078 133.563 90.0862 132.159 87.9963C130.772 85.9293 128.53 84.1953 125.67 84.1953ZM79.4479 110.033C76.5879 110.033 74.3461 111.761 72.9595 113.834C71.5555 115.924 70.7812 118.651 70.7812 121.516C70.7812 124.387 71.5555 127.108 72.9595 129.198C74.3461 131.265 76.5879 132.999 79.4479 132.999C82.3079 132.999 84.5497 131.271 85.9364 129.198C87.3404 127.108 88.1146 124.381 88.1146 121.516C88.1146 118.645 87.3404 115.924 85.9364 113.834C84.5497 111.767 82.3079 110.033 79.4479 110.033ZM111.226 110.033C104.292 110.033 99.1559 113.73 95.8741 118.318C92.6328 122.836 91.0035 128.446 91.0035 132.999C91.0035 138.304 94.0565 146.058 98.5967 146.058C103.868 146.058 106.869 146.058 111.226 146.058C115.576 146.058 117.565 146.079 121.347 146.058C124.466 146.041 131.448 138.304 131.448 132.999C131.448 128.446 129.819 122.836 126.577 118.318C123.301 113.724 118.165 110.033 111.226 110.033ZM143.003 110.033C140.143 110.033 137.902 111.761 136.515 113.834C135.111 115.924 134.337 118.651 134.337 121.516C134.337 124.387 135.111 127.108 136.515 129.198C137.902 131.265 140.143 132.999 143.003 132.999C145.863 132.999 148.105 131.271 149.492 129.198C150.896 127.108 151.67 124.381 151.67 121.516C151.67 118.645 150.896 115.924 149.492 113.834C148.105 111.767 145.863 110.033 143.003 110.033Z" fill="#F0F0F0"/>
</g>
</g>
<defs>
<clipPath id="clip0_2208_14166">
<rect width="182" height="150" fill="white"/>
</clipPath>
<clipPath id="clip1_2208_14166">
<rect width="91" height="94.7368" fill="white" transform="translate(60.6719 63.1484)"/>
</clipPath>
</defs>
</svg>
