<svg width="150" height="150" viewBox="0 0 150 150" fill="none" xmlns="http://www.w3.org/2000/svg">
<path d="M70 75H80M40 75H50M100 75H110M145 145H75C61.1553 145 47.6216 140.895 36.1101 133.203C24.5987 125.511 15.6266 114.579 10.3285 101.788C5.03033 88.997 3.6441 74.9224 6.34506 61.3437C9.04603 47.765 15.7129 35.2922 25.5026 25.5026C35.2922 15.7129 47.765 9.04603 61.3437 6.34506C74.9224 3.6441 88.997 5.03033 101.788 10.3285C114.579 15.6266 125.511 24.5987 133.203 36.1101C140.895 47.6216 145 61.1553 145 75V145Z" stroke="#2356FE"/>
</svg>
