<svg width="150" height="150" viewBox="0 0 150 150" fill="none" xmlns="http://www.w3.org/2000/svg">
<g opacity="0.5">
<path d="M131.25 140.625V37.5H103.125V9.375H18.75V140.625H0V150H65.625V121.875H84.375V150H150V140.625H131.25ZM56.25 103.125H37.5V84.375H56.25V103.125ZM56.25 75H37.5V56.25H56.25V75ZM56.25 46.875H37.5V28.125H56.25V46.875ZM84.375 103.125H65.625V84.375H84.375V103.125ZM84.375 75H65.625V56.25H84.375V75ZM84.375 46.875H65.625V28.125H84.375V46.875ZM121.875 103.125H103.125V84.375H121.875V103.125ZM121.875 75H103.125V56.25H121.875V75Z" fill="#2356FE"/>
</g>
</svg>
